<?xml version="1.0" encoding="UTF-8"?>

<svg version="1.1" xmlns="http://www.w3.org/2000/svg" viewBox="0 0 182 185">
<path d="M0 0 C0.9074999999999998 0.0025781249999999867 1.8150000000000004 0.005156250000000001 2.75 0.0078125 C3.2037499999999994 0.006523437500000007 3.2037499999999994 0.006523437500000007 5.5 0 C7.75 0.13281249999999994 7.75 0.13281249999999994 8.75 1.1328125 C8.84287260493038 2.5450629564727394 8.867467717704871 3.9619018439510616 8.863525390625 5.377197265625 C8.863449859619141 6.278055572509766 8.863374328613281 7.178913879394531 8.863296508789063 8.107070922851563 C8.858135223388672 9.086229705810547 8.852973937988281 10.065388488769532 8.84765625 11.07421875 C8.846241302490235 12.071625823974609 8.84482635498047 13.069032897949219 8.843368530273438 14.096664428710938 C8.837751142979831 17.296243735630096 8.82519570941123 20.495754186683047 8.8125 23.6953125 C8.807487239406624 25.85872295092847 8.802923945486972 28.022134493781422 8.798828125 30.185546875 C8.787776069019966 35.50132575302036 8.77102103673975 40.81706420934213 8.75 46.1328125 C9.719375 46.2771875 10.68875 46.4215625 11.6875 46.5703125 C14.750000000000007 47.13281250000001 14.750000000000007 47.13281250000001 15.75 48.1328125 C15.848239370617332 49.797103013987744 15.879736308781101 51.46563180905255 15.875 53.1328125 C15.8762890625 53.5865625 15.8762890625 53.5865625 15.8828125 55.8828125 C15.75 58.1328125 15.75 58.1328125 14.75 59.1328125 C11.906649521524113 59.23268224821093 9.093028368871419 59.271591312773204 6.25 59.2578125 C5.4520703125 59.2616796875 4.654140625 59.265546875 3.83203125 59.26953125 C-2.123392325680263 59.259420174319736 -2.123392325680263 59.259420174319736 -3.25 58.1328125 C-3.348937777360314 56.358352406549976 -3.377990923925374 54.57994998851518 -3.37939453125 52.802734375 C-3.382546691894531 51.664854736328124 -3.3856988525390626 50.52697509765625 -3.388946533203125 49.3546142578125 C-3.3869223022460937 48.11610717773438 -3.3848980712890624 46.87760009765625 -3.3828125 45.6015625 C-3.383769226074219 44.34017456054688 -3.3847259521484374 43.07878662109375 -3.385711669921875 41.7791748046875 C-3.386393748254358 39.10584112216182 -3.385035293003725 36.432598133742594 -3.38037109375 33.75927734375 C-3.3746738055930128 30.325745593568495 -3.377953007372532 26.892292002371054 -3.383943557739258 23.458763122558594 C-3.388417619911885 20.19386007021876 -3.3852888348020405 16.928966569738805 -3.3828125 13.6640625 C-3.3848367309570313 12.425555419921874 -3.3868609619140626 11.18704833984375 -3.388946533203125 9.9110107421875 C-3.385794372558594 8.773131103515626 -3.3826422119140624 7.6352514648437495 -3.37939453125 6.462890625 C-3.378598937988281 5.455528564453125 -3.3778033447265625 4.448166503906251 -3.376983642578125 3.4102783203125 C-3.206499088615523 0.3526187930063087 -3.0555109137002994 0.180360019211476 0 0 Z " fill="#FF3F52" transform="translate(3.25,-0.1328125)"/>
<path d="M0 0 C2.71484375 -0.4687500000000001 2.71484375 -0.4687500000000001 5.9375 -0.5 C6.46794921875 -0.5154687499999999 6.46794921875 -0.5154687499999999 9.15234375 -0.59375 C12 -0.00000000000000033306690738754696 12 -0.00000000000000033306690738754696 13.443115234375 1.877197265625 C15.647669880554417 6.299097607365775 17.181873950208924 10.881380753207207 18.7578125 15.55859375 C18.93207260131836 16.069548416137696 18.93207260131836 16.069548416137696 19.813934326171875 18.655288696289063 C20.547884912392874 20.811959226519484 21.278952665733556 22.96961270558644 22.00732421875 25.128173828125 C23.120701603546507 28.424772878128632 24.245199733105096 31.717423291192212 25.37109375 35.009765625 C26.08400166587802 37.10914816639954 26.7962629606251 39.20875042139901 27.5078125 41.30859375 C27.84322052001953 42.29000839233399 28.178628540039057 43.27142303466797 28.524200439453125 44.28257751464844 C31.57554196440138 53.36452120811168 31.57554196440138 53.36452120811168 32 58 C31 59 31 59 28.49609375 59.09765625 C25.6640625 59.065104166666664 22.83203125 59.032552083333336 20 59 C18.35 55.7 16.700000000000003 52.4 15 49 C9.719999999999999 49 4.439999999999998 49 -1 49 C-1.6393750000000011 50.464375 -2.2787500000000023 51.92875 -2.9375 53.4375 C-4.875000000000007 57.87500000000001 -4.875000000000007 57.87500000000001 -6 59 C-7.664290513987748 59.098239370617335 -9.33281930905255 59.1297363087811 -11 59.125 C-11.45375 59.1262890625 -11.45375 59.1262890625 -13.75 59.1328125 C-15.999999999999996 59 -15.999999999999996 59 -17 58 C-16.522586824739655 51.40158713313998 -14.814649006435115 45.35708847894866 -12.91015625 39.04296875 C-12.605569915771483 38.01818923950195 -12.300983581542969 36.99340972900391 -11.987167358398438 35.93757629394531 C-11.345516654965863 33.784368587039516 -10.700731769981601 31.63209262831997 -10.052978515625 29.480712890625 C-9.061153668023387 26.18302362040116 -8.081663094987615 22.88184691000457 -7.103515625 19.580078125 C-6.477291799285268 17.484156960168356 -5.850363284232529 15.388446186828427 -5.22265625 13.29296875 C-4.9298829650878915 12.305481414794922 -4.637109680175783 11.317994079589845 -4.3354644775390625 10.300582885742188 C-4.058552703857423 9.385655670166015 -3.781640930175783 8.470728454589844 -3.496337890625 7.528076171875 C-3.2550868225097673 6.723917694091797 -3.0138357543945347 5.919759216308593 -2.7652740478515625 5.0912322998046875 C-2 3.0000000000000013 -2 3.0000000000000013 0 0 Z M6 22 C5.329682807856408 23.95708680206209 4.663853168625636 25.91571113426463 4 27.875 C3.6287499999999966 28.965546875 3.2575000000000003 30.056093750000002 2.875 31.1796875 C2 34 2 34 2 36 C5.299999999999997 36 8.600000000000001 36 12 36 C11.382414456205161 34.03931579785523 10.755686550259846 32.081509371244046 10.125 30.125 C9.950976562500003 29.5797265625 9.950976562500003 29.5797265625 9.0703125 26.8203125 C8 24 8 24 6 22 Z " fill="#FF3F52" transform="translate(39,0)"/>
<path d="M0 0 C1.055223541259764 -0.012835235595703126 2.110447082519528 -0.025670471191406252 3.1976470947265625 -0.0388946533203125 C4.348573455810552 -0.046281585693359384 5.499499816894527 -0.05366851806640627 6.685302734375 -0.06127929687500003 C7.863500823974604 -0.0693510437011719 9.041698913574223 -0.0774227905273438 10.255599975585938 -0.08573913574218756 C12.75827553936061 -0.09960446024682024 15.26097020955541 -0.11031559007716585 17.763671875 -0.11816406250000006 C21.578414130292202 -0.13531602881788662 25.39227635815209 -0.17917463156748847 29.206787109375 -0.223388671875 C31.637119268951764 -0.23352044244760128 34.06745881355634 -0.24203502613647476 36.497802734375 -0.248779296875 C37.066181106567385 -0.2575333404541016 37.066181106567385 -0.2575333404541016 39.94252014160156 -0.3018341064453125 C47.605923345181566 -0.28102278164721217 53.318975841152735 0.6127436563068702 59.079833984375 6.106689453125 C63.6313890837537 12.657771648184516 65.68618962867754 17.579589479114475 64.665771484375 25.645751953125 C63.20572249909617 31.710570815052446 59.4443151901236 35.92942179873296 55.056396484375 40.177001953125 C55.717685546875 41.129619140625 56.37897460937501 42.082236328125 57.060302734375 43.063720703125 C57.91395002756198 44.3301205336771 58.766771720179065 45.59707715526446 59.618896484375 46.864501953125 C59.83771484375001 47.177421875 59.83771484375001 47.177421875 60.945068359375 48.760986328125 C64.10623024264402 53.515174672254005 64.10623024264402 53.515174672254005 63.833740234375 57.134033203125 C63.57721679687501 57.808212890625 63.320693359375014 58.482392578125 63.056396484375 59.177001953125 C59.194696054594885 59.87977464163278 55.89388284078254 60.09597894900154 52.056396484375 59.177001953125 C47.997257809391414 55.341906646565825 45.11699144649549 50.64891290158243 42.920166015625 45.52880859375 C41.056396484375 43.177001953125 41.056396484375 43.177001953125 37.702392578125 42.593505859375 C36.32807348460129 42.58754621573688 34.95345244446544 42.60928337053999 33.579833984375 42.653564453125 C33.2169075012207 42.65591598510743 33.2169075012207 42.65591598510743 31.380279541015625 42.667816162109375 C29.063018873582536 42.68916349399732 26.748045976051117 42.74579125413576 24.431396484375 42.802001953125 C22.863709609715116 42.81850732690858 21.295998435976372 42.8328558540838 19.728271484375 42.844970703125 C8.252024589877806 42.981373847622194 8.252024589877806 42.981373847622194 7.056396484375 44.177001953125 C6.846708973310555 46.50686318717432 6.688242593010514 48.84144231443882 6.556396484375 51.177001953125 C6.167507595486114 58.06589084201389 6.167507595486114 58.06589084201389 5.056396484375 59.177001953125 C3.3921059703872487 59.275241323742335 1.723577175322447 59.3067382619061 0.056396484375 59.302001953125 C-0.39735351562499943 59.303291015625 -0.39735351562499943 59.303291015625 -2.693603515625 59.309814453125 C-4.943603515625 59.177001953125 -4.943603515625 59.177001953125 -5.943603515625 58.177001953125 C-6.0425412929853195 56.402541859674976 -6.071594439550367 54.62413944164018 -6.072998046875 52.846923828125 C-6.076150207519532 51.709044189453124 -6.079302368164065 50.57116455078125 -6.082550048828125 49.3988037109375 C-6.0805258178710915 48.16029663085938 -6.078501586914058 46.92178955078125 -6.076416015625 45.645751953125 C-6.077372741699222 44.38436401367188 -6.078329467773443 43.12297607421875 -6.079315185546875 41.8233642578125 C-6.079997263879363 39.15003057528682 -6.078638808628725 36.476787586867594 -6.073974609375 33.803466796875 C-6.068277321218019 30.369935046693495 -6.0715565229975255 26.936481455496054 -6.077547073364258 23.502952575683594 C-6.082021135536891 20.23804952334376 -6.07889235042704 16.973156022863805 -6.076416015625 13.708251953125 C-6.0784402465820335 12.469744873046874 -6.080464477539067 11.23123779296875 -6.082550048828125 9.9552001953125 C-6.079397888183593 8.817320556640626 -6.07624572753906 7.6794409179687495 -6.072998046875 6.507080078125 C-6.072202453613286 5.499718017578125 -6.0714068603515585 4.492355957031251 -6.070587158203125 3.4544677734375 C-5.836409670448063 -0.7455316392480889 -3.6993773533882433 0.03903455181576976 0 0 Z M6.056396484375 12.177001953125 C6.029553361037415 14.989564765051943 6.009634608378747 17.801874363311505 5.993896484375 20.614501953125 C5.985517578124998 21.416943359375 5.977138671874997 22.219384765625 5.968505859375 23.046142578125 C5.959882181804275 25.089954162386533 6.004114985308135 27.133840969591937 6.056396484375 29.177001953125 C8.116055448748085 31.23666091749808 12.455301907889222 30.36525647166355 15.290771484375 30.380126953125 C16.120947875976555 30.38582702636719 16.951124267578123 30.391527099609377 17.80645751953125 30.39739990234375 C19.568468420871326 30.406866633836298 21.330497161804573 30.413390495891306 23.092529296875 30.417236328125 C25.78132407718539 30.426911732156345 28.46934480841783 30.45790604654012 31.157958984375 30.489501953125 C32.86889193955889 30.496034832126497 34.57983037236352 30.501284184428474 36.290771484375 30.505126953125 C37.093031616210936 30.51747375488281 37.89529174804687 30.529820556640626 38.72186279296875 30.54254150390625 C43.32519356950425 30.524296184679166 46.32666458145033 30.170256470422796 50.056396484375 27.177001953125 C52.398084123413014 23.66447049456799 52.55263325765583 22.312308397131893 52.056396484375 18.177001953125 C49.90549197059312 14.839391500704837 48.85226849348709 13.442292622829028 45.056396484375 12.177001953125 C42.10675535581457 12.091592953512285 39.181366294436486 12.061172683400079 36.232177734375 12.079345703125 C35.80147727966309 12.080053176879883 35.80147727966309 12.080053176879883 33.62187194824219 12.083633422851563 C30.87084479084332 12.08923055037992 28.119899040998405 12.101782496132849 25.368896484375 12.114501953125 C23.50366328484526 12.11951732559316 21.638428809534858 12.124080167669026 19.773193359375 12.128173828125 C15.200896371126703 12.139199037454802 10.628660230370457 12.156461684724302 6.056396484375 12.177001953125 Z " fill="#FF3F52" transform="translate(79.943603515625,-0.177001953125)"/>
<path d="M0 0 C1.391204708818293 0.00015906390304569473 2.7824153423732696 0.005850325796810121 4.173583984375 0.015869140625 C4.9046385192871185 0.01728408813476562 5.6356930541992085 0.01869903564453125 6.3889007568359375 0.0201568603515625 C8.732534056574906 0.025771308489495937 11.076073127278988 0.03832617334904777 13.419677734375 0.051025390625 C15.004962816712862 0.05603853329076293 16.59024939077983 0.06060176154678572 18.175537109375 0.064697265625 C22.0694538339782 0.0757454234446044 25.963299788759116 0.09301967350071641 29.857177734375 0.113525390625 C29.8840505262267 1.9259459077335088 29.903514888948934 3.7384777249881727 29.919677734375 5.551025390625 C29.931279296875005 6.5603613281249995 29.94288085937501 7.569697265625 29.954833984375 8.609619140625 C29.857177734375 11.113525390625 29.857177734375 11.113525390625 28.857177734375 12.113525390625 C27.370787814081012 12.27007566275615 25.877686462856644 12.364194817672978 24.384521484375 12.429931640625 C23.48540039062499 12.471826171875 22.586279296875006 12.513720703125 21.659912109375 12.556884765625 C21.187148437500014 12.576542968750001 21.187148437500014 12.576542968750001 18.794677734375 12.676025390625 C17.845283203125007 12.719208984375 16.895888671875014 12.762392578125 15.917724609375 12.806884765625 C13.564395978343015 12.913316713762125 11.210806746387078 13.013956926570483 8.857177734375 13.113525390625 C8.527177734374987 16.413525390625 8.197177734375003 19.713525390625 7.857177734375 23.113525390625 C9.277724609375014 23.078720703125 10.698271484374999 23.043916015625 12.161865234375 23.008056640625 C14.018624281384064 22.97992392779153 15.875396066069158 22.952623218070038 17.732177734375 22.926025390625 C18.669326171875014 22.900888671875 19.606474609375 22.875751953125 20.572021484375 22.849853515625 C21.467919921874994 22.840185546875 22.36381835937499 22.830517578125 23.286865234375 22.820556640625 C24.114282226562494 22.80484619140625 24.94169921874999 22.7891357421875 25.794189453125 22.77294921875 C26.4749755859375 22.88533935546875 27.15576171875 22.9977294921875 27.857177734375 23.113525390625 C30.320418422329453 26.808386422556698 30.247094616826928 28.7464563071636 29.857177734375 33.113525390625 C28.28497643332389 35.2669928560765 27.424803826210393 36.020793408178534 24.7724609375 36.4541015625 C23.99217529296874 36.43839111328125 23.211889648437506 36.4226806640625 22.407958984375 36.406494140625 C21.560400390625006 36.396826171875 20.71284179687501 36.387158203125 19.839599609375 36.377197265625 C18.958525390625 36.352060546875 18.077451171874998 36.326923828125 17.169677734375 36.301025390625 C16.277001953124994 36.287490234375 15.384326171874989 36.273955078125 14.464599609375 36.260009765625 C12.261867906965392 36.22467182387511 10.059446537897998 36.17086507981991 7.857177734375 36.113525390625 C7.857177734375 39.413525390625 7.857177734375 42.713525390625 7.857177734375 46.113525390625 C8.567451171875007 46.107724609375 8.567451171875007 46.107724609375 12.161865234375 46.078369140625 C14.01863475785322 46.06899151676905 15.875405696933115 46.05989128712029 17.732177734375 46.051025390625 C18.669326171875014 46.042646484375 19.606474609375 46.034267578125 20.572021484375 46.025634765625 C21.01997070312501 46.0240234375 21.01997070312501 46.0240234375 23.286865234375 46.015869140625 C23.70057373046876 46.013250732421874 23.70057373046876 46.013250732421874 25.794189453125 46 C27.857177734375 46.113525390625 27.857177734375 46.113525390625 29.857177734375 47.113525390625 C29.8840505262267 48.92594590773351 29.903514888948934 50.73847772498817 29.919677734375 52.551025390625 C29.931279296875005 53.560361328125 29.94288085937501 54.569697265625 29.954833984375 55.609619140625 C29.857177734375 58.113525390625 29.857177734375 58.113525390625 28.857177734375 59.113525390625 C26.49319305016013 59.21430659096556 24.15906462320362 59.25325754357571 21.794677734375 59.246337890625 C21.088190917968745 59.24729461669922 20.38170410156249 59.248251342773436 19.65380859375 59.249237060546875 C18.15746979944285 59.24991871681706 16.661128063873008 59.248065436549446 15.164794921875 59.243896484375 C12.866876162948785 59.23854796419976 10.569152872926878 59.24384189795437 8.271240234375 59.250244140625 C6.820718967133672 59.249583356502704 5.370197822098646 59.24830218826917 3.919677734375 59.246337890625 C3.5738464355468693 59.24735000610352 3.5738464355468693 59.24735000610352 1.82373046875 59.252471923828125 C-3.0278700276337247 59.22847762861627 -3.0278700276337247 59.22847762861627 -4.142822265625 58.113525390625 C-4.241760042985305 56.339065297174976 -4.270813189550381 54.56066287914018 -4.272216796875 52.783447265625 C-4.275368957519532 51.645567626953124 -4.278521118164065 50.50768798828125 -4.281768798828125 49.3353271484375 C-4.2797445678710915 48.09682006835938 -4.277720336914058 46.85831298828125 -4.275634765625 45.582275390625 C-4.276591491699207 44.32088745117188 -4.277548217773443 43.05949951171875 -4.278533935546875 41.7598876953125 C-4.279216013879363 39.08655401278682 -4.277857558628739 36.413311024367594 -4.273193359375 33.739990234375 C-4.267496071218005 30.306458484193495 -4.2707752729975255 26.873004892996054 -4.276765823364258 23.439476013183594 C-4.281239885536877 20.17457296084376 -4.278111100427054 16.909679460363805 -4.275634765625 13.644775390625 C-4.2776589965820335 12.406268310546874 -4.279683227539067 11.16776123046875 -4.281768798828125 9.8917236328125 C-4.278616638183593 8.753843994140626 -4.27546447753906 7.6159643554687495 -4.272216796875 6.443603515625 C-4.271421203613272 5.436241455078125 -4.270625610351573 4.428879394531251 -4.269805908203125 3.3909912109375 C-4.071374067913041 -0.16790601981651943 -3.6524979973174823 0.13193595655656215 0 0 Z " fill="#FF3F52" transform="translate(152.142822265625,-0.113525390625)"/>
<path d="M0 0 C7.157728906958141 4.59682411019314 11.422539257214567 10.931427239975989 14 19 C15.601256099500148 29.213417283298256 13.966048228772365 37.53535037627171 8 46 C2.428848760221541 52.57110146230279 -4.627747616237102 56.35903015839483 -13.17578125 57.37890625 C-22.600678229782616 57.72223387206023 -29.92718462352026 55.73728658934009 -37.3125 49.8125 C-43.98847459708921 43.55546308005606 -47.129379203309824 36.11004703008433 -47.4375 27.0625 C-47.505264126982965 18.320927619198102 -44.878221848327684 11.574312949309572 -39.171875 4.84375 C-28.453252310701686 -5.439156319814643 -12.922004818445146 -7.425165719003644 0 0 Z M-32 16 C-35.23207451299339 20.903837192127895 -35.85275452673899 25.28266851390906 -35 31 C-33.32948908273235 36.54848268949611 -30.55216731013104 39.89116055343487 -25.78125 43.08984375 C-21.630901140866854 45.21052639074128 -17.60911430539406 45.31248232578943 -13 45 C-6.579817015214488 42.896836608432324 -2.8827813109908504 39.85663371322748 0.8125 34.25 C2.787560172499468 28.844572159475106 2.787560172499468 24.155427840524894 0.8125 18.75 C-2.8827813109908504 13.143366286772519 -6.579817015214502 10.103163391567662 -13 8 C-21.02787267743848 7.139870784560159 -26.859497504815522 9.859955352974097 -32 16 Z " fill="#FF3F52" transform="translate(131,66)"/>
<path d="M0 0 C9.52875 -0.10312499999999858 19.0575 -0.20624999999999716 28.875 -0.3125 C31.8641748046875 -0.35802001953125284 34.853349609375 -0.4035400390624986 37.93310546875 -0.450439453125 C40.32778809536689 -0.46505562884008356 42.72248323342377 -0.47779361657129726 45.1171875 -0.48828125 C46.33994384765625 -0.5138610839843736 47.5627001953125 -0.5394409179687472 48.822509765625 -0.5657958984375 C58.62409639977755 -0.5707451948595121 65.57055763813811 1.6984492009566452 72.875 8.3125 C79.47958838352095 15.431124743559138 81.37904915284408 23.12892132874856 81.2734375 32.64453125 C80.58585999487492 41.08208949146338 76.05962507901211 47.3245229321318 70 53 C61.28211190970045 60.14105594091066 50.991158437754976 60.30563216121551 40.15625 60.23046875 C39.61079528808594 60.23023963928223 39.61079528808594 60.23023963928223 36.8504638671875 60.22908020019531 C34.56468607525257 60.2260790669589 32.27890993416507 60.21825767785931 29.9931640625 60.205810546875 C26.482348999889723 60.187407476585946 22.971796057501763 60.18530218176349 19.4609375 60.185546875 C17.23437270523661 60.180636335121505 15.007809699457137 60.17481005360224 12.78125 60.16796875 C11.729254150390625 60.166855926513676 10.67725830078125 60.16574310302735 9.5933837890625 60.16459655761719 C8.624774169921874 60.158216705322275 7.65616455078125 60.15183685302733 6.658203125 60.145263671875 C5.804561767578125 60.14145187377929 4.95092041015625 60.13764007568359 4.0714111328125 60.13371276855469 C1.9999999999999933 60 1.9999999999999933 60 0 59 C0 39.53 0 20.060000000000002 0 0 Z M12 12 C12 23.549999999999997 12 35.099999999999994 12 47 C18.120982951382274 47.11515227124255 24.238169547505215 47.21458041719835 30.359375 47.274658203125 C32.438932020167755 47.299715054658435 34.51840173527132 47.33377021278743 36.59765625 47.377197265625 C39.596573942029494 47.43823845427981 42.594321778721984 47.46629841891199 45.59375 47.48828125 C46.05432800292969 47.50118446350098 46.05432800292969 47.50118446350098 48.3851318359375 47.56648254394531 C54.77707393643948 47.569224705533756 59.09171806239621 46.18080245748092 64 42 C68.12800558433614 36.707685148287 69.55014366072226 32.711752660811584 69 26 C66.887485794289 19.84615427032017 63.77811214687226 16.19054762757844 58.12457275390625 12.912628173828125 C55.73758937192922 11.887279297991086 54.09525698723404 11.758073235705552 51.5068359375 11.77294921875 C50.626224975585934 11.773100280761724 49.745614013671876 11.773251342773435 48.83831787109375 11.773406982421875 C47.896516723632814 11.783729553222656 46.95471557617188 11.794052124023438 45.984375 11.8046875 C45.01340881347656 11.80751739501953 44.042442626953125 11.810347290039061 43.04205322265625 11.813262939453125 C39.94457615233398 11.82444707909714 36.84738950242354 11.849548582383193 33.75 11.875 C31.648441679499 11.885032076984217 29.546878821304805 11.894157530300305 27.4453125 11.90234375 C22.296673419072036 11.92267802757081 17.148661347090318 11.961830352451557 12 12 Z " fill="#FF3F52" transform="translate(0,63)"/>
<path d="M0 0 C0.5046679687499989 0.005800781250002274 0.5046679687499989 0.005800781250002274 3.05859375 0.03515625 C4.070507812500011 0.04417968749999801 5.082421874999994 0.053203125000003126 6.125 0.0625 C6.5162304687499955 0.06830078125000227 6.5162304687499955 0.06830078125000227 8.49609375 0.09765625 C9.824286014862082 4.090955794637637 9.614031424676739 8.137185983704114 9.577880859375 12.291015625 C9.5748143005371 13.114228057861325 9.571747741699227 13.93744049072265 9.568588256835938 14.785598754882813 C9.56144286710719 16.570398711679772 9.552057907556332 18.355190794076492 9.540693283081055 20.139968872070313 C9.523297048795882 22.964208185508966 9.513002172820336 25.788390882357447 9.504776000976563 28.6126708984375 C9.480324904575554 36.64173742487401 9.44470634761197 44.6707274860499 9.400146484375 52.69970703125 C9.373377054142225 57.61260983508157 9.356325959268077 62.52546870325449 9.345277786254883 67.43843078613281 C9.339066397566654 69.3107516091786 9.329059092309336 71.18306380354909 9.31519889831543 73.05534362792969 C9.296000173702538 75.67171827400608 9.289089187884429 78.28786131900563 9.284912109375 80.904296875 C9.276150512695324 81.6784443664551 9.26738891601562 82.45259185791014 9.25836181640625 83.25019836425781 C9.265240681098021 87.0210645035313 9.375742802981165 89.900556134868 11.49609375 93.09765625 C13.47609374999999 93.09765625 15.456093750000008 93.09765625 17.49609375 93.09765625 C17.506401214599606 91.94729385375976 17.516708679199212 90.79693145751952 17.527328491210938 89.61170959472656 C17.624884593736226 78.79559965831425 17.72760131062182 67.9795495469248 17.83543300628662 57.16353702545166 C17.89070903602544 51.602290761353515 17.944136376218637 46.0410392869439 17.993408203125 40.479736328125 C18.040982898375432 35.117535347924075 18.09332293341123 29.75540052334071 18.14903450012207 24.393278121948242 C18.16948940346566 22.342672470772342 18.18819717221686 20.29204865597586 18.205167770385742 18.241411209106445 C18.229142634626555 15.379705047673227 18.259206248827354 12.51812518201065 18.290771484375 9.656494140625 C18.296526947021476 8.799821472167963 18.302282409667953 7.94314880371094 18.308212280273438 7.060516357421875 C18.382041588719915 1.2117084112800853 18.382041588719915 1.2117084112800853 19.49609375 0.09765625 C21.34896876547961 0.025391233795645007 23.20443252567975 0.013844052019308606 25.05859375 0.03515625 C26.07050781250001 0.04417968749999801 27.082421874999994 0.053203125000003126 28.125 0.0625 C28.90746093749999 0.07410156249999744 29.68992187500001 0.08570312500000199 30.49609375 0.09765625 C30.58880026548428 12.38042867624543 30.659862315620927 24.663117774845233 30.70334243774414 36.94616889953613 C30.72421142365647 42.64978524540628 30.75251697966476 48.353162105644486 30.7978515625 54.056640625 C30.841333143974566 59.56148505792791 30.865236040363442 65.06609922380022 30.87560272216797 70.57110214233398 C30.882989879016037 72.67065937842847 30.897415280425207 74.77020410483715 30.91901397705078 76.86966323852539 C30.948078237230277 79.81198548605471 30.952048427348473 82.75335792932145 30.9501953125 85.69580078125 C30.957385864257816 86.12917503356934 30.957385864257816 86.12917503356934 30.9937744140625 88.32231140136719 C30.956883678350437 93.74048618681337 30.09039281928017 96.79443045594383 26.49609375 101.09765625 C21.109656218908725 105.84285121786613 17.72627733399338 106.57218082223523 10.6171875 106.50390625 C5.799567170478781 105.87683176405483 2.545484943638229 103.85244877999793 -0.50390625 100.09765625 C-3.3964872781063775 94.51369242965279 -3.92926294202897 90.10696482780645 -3.8603515625 83.87353515625 C-3.8623959350586006 82.97679077148439 -3.864440307617201 82.08004638671875 -3.866546630859375 81.1561279296875 C-3.8695387174091707 78.2119462603377 -3.8511313063337127 75.26833320484417 -3.83203125 72.32421875 C-3.828971988738175 70.27395770817878 -3.8270971389132455 68.22369458639199 -3.82635498046875 66.17343139648438 C-3.821762523465452 61.88816306375688 -3.8073718155681036 57.60308376400269 -3.78515625 53.31787109375 C-3.756767467309203 47.81289808189506 -3.7459329103057826 42.3080731014915 -3.741474151611328 36.80303382873535 C-3.7373288212273224 32.575576872341884 -3.7275205464478063 28.348150080594465 -3.7155990600585938 24.120708465576172 C-3.709886936139071 22.089626233842466 -3.7051313632743472 20.05854108681777 -3.7013320922851563 18.027454376220703 C-3.694495681585039 15.20005367307553 -3.6808787197474544 12.372772910357654 -3.6650390625 9.54541015625 C-3.6639212036132847 8.699734802246098 -3.6628033447265693 7.854059448242182 -3.661651611328125 6.982757568359375 C-3.6106058072113854 0.14081925925161443 -3.6106058072113854 0.14081925925161443 0 0 Z " fill="#FF3F52" transform="translate(151.50390625,62.90234375)"/>
<path d="M0 0 C0.3512292480468737 0.00004028320311988409 0.3512292480468737 0.00004028320311988409 2.128662109375 0.000244140625 C4.270873122003341 -0.001940550492690818 6.412567834625179 -0.020088243214786417 8.5546875 -0.0390625 C9.910805523783385 -0.04199671491369372 11.266926003023855 -0.04398132305269087 12.623046875 -0.044921875 C13.86304443359375 -0.04903076171875398 15.1030419921875 -0.05313964843749375 16.380615234375 -0.057373046875 C19.345703125 0.185546875 19.345703125 0.185546875 21.345703125 2.185546875 C21.611328125 4.279296874999972 21.611328125 4.279296874999972 21.595703125 6.685546875 C21.59828125 7.082578124999998 21.59828125 7.082578124999998 21.611328125 9.091796875 C21.345703125 11.185546875 21.345703125 11.185546875 19.345703125 13.185546875 C16.375703125 13.185546875 13.405703124999999 13.185546875 10.345703125 13.185546875 C10.345703125 28.365546875000007 10.345703125 43.545546875000014 10.345703125 59.185546875 C6.715703125000001 59.185546875 3.0857031249999984 59.185546875 -0.654296875 59.185546875 C-1.654296875 58.185546875 -1.654296875 58.185546875 -1.7745513916015625 56.35691833496094 C-1.7723307800292964 55.559718780517585 -1.7701101684570304 54.76251922607423 -1.767822265625 53.941162109375 C-1.7677467346191413 53.04030380249023 -1.767671203613281 52.13944549560546 -1.7675933837890625 51.21128845214844 C-1.7624320983886719 50.23212966918945 -1.7572708129882813 49.25297088623046 -1.751953125 48.244140625 C-1.7505381774902347 47.246733551025386 -1.7491232299804693 46.24932647705077 -1.7476654052734375 45.22169494628906 C-1.7420480179798314 42.0221156393699 -1.7294925844112292 38.82260518831694 -1.716796875 35.623046875 C-1.7117841144066244 33.45963642407153 -1.707220820486972 31.296224881218563 -1.703125 29.1328125 C-1.6920729440199658 23.817033621979647 -1.67531791173975 18.501295165657865 -1.654296875 13.185546875 C-2.9330468750000005 13.206171874999995 -4.211796875 13.226796874999991 -5.529296875 13.248046875 C-9.404296874999998 13.310546875 -9.404296874999998 13.310546875 -11.654296875 12.185546875 C-11.681169666851691 10.373126357891493 -11.700634029573939 8.560594540636828 -11.716796875 6.748046875 C-11.7283984375 5.738710937500002 -11.74 4.7293750000000045 -11.751953125 3.689453125 C-11.524141153297029 -2.1516458294641865 -4.541317684064015 0.01647410793326287 0 0 Z " fill="#FF3F52" transform="translate(11.654296875,125.814453125)"/>
<path d="M0 0 C0.4451923370361328 -0.002132492065427982 0.4451923370361328 -0.002132492065427982 2.6981353759765625 -0.0129241943359375 C3.68257629394531 -0.012471008300778408 4.6670172119140645 -0.012017822265619316 5.6812896728515625 -0.0115509033203125 C6.712101593017579 -0.014909515380864491 7.742913513183595 -0.01826812744140227 8.804962158203125 -0.021728515625 C12.231279364870922 -0.031270536938933446 15.65754787727218 -0.03318323682928792 19.083877563476563 -0.0342559814453125 C21.45420349815761 -0.03746623964153173 23.82452922938691 -0.04083012939872788 26.194854736328125 -0.044342041015625 C31.17080647413647 -0.050341415728468064 36.146740821166844 -0.05218110743804516 41.12269592285156 -0.0515899658203125 C47.513353649041804 -0.0514882830930361 53.903900418706 -0.06514326482974298 60.29453182220459 -0.08236217498779297 C65.19200151392538 -0.09345523689644608 70.08944415221902 -0.09551000789484476 74.98692512512207 -0.09498023986816406 C77.34374435582828 -0.09616432763586147 79.70056419865462 -0.10060989630304107 82.05737113952637 -0.10831260681152344 C85.34745534518592 -0.11805851675408974 88.63729568417608 -0.11525590504531635 91.92738342285156 -0.1092071533203125 C92.90980010986328 -0.11482666015625398 93.892216796875 -0.12044616699218125 94.90440368652344 -0.1262359619140625 C95.35100593566895 -0.12413871765136264 95.35100593566895 -0.12413871765136264 97.611083984375 -0.113525390625 C98.38962203025818 -0.11407015800476472 99.16816007614136 -0.11461492538451523 99.970290184021 -0.11517620086669922 C101.86903381347656 0.1337127685546875 101.86903381347656 0.1337127685546875 103.86903381347656 2.1337127685546875 C104.16981506347656 4.227462768554716 104.16981506347656 4.227462768554716 104.18153381347656 6.6337127685546875 C104.19829162597657 7.427775268554683 104.21504943847657 8.221837768554678 104.23231506347656 9.039962768554688 C104.11243225097655 9.730900268554677 103.99254943847654 10.421837768554695 103.86903381347656 11.133712768554688 C99.92463397947805 13.763312657887042 96.56623275074173 13.399066629931525 91.99134826660156 13.360763549804688 C91.083828125 13.361055603027353 90.17630798339843 13.36134765624999 89.24128723144531 13.361648559570313 C86.23819963209947 13.360253949112291 83.23535938307768 13.344686502164876 80.23231506347656 13.329025268554688 C78.15152115454322 13.32529560725689 76.07072549090246 13.32244841431077 73.98992919921875 13.320449829101563 C68.51049459030658 13.312809692173857 63.031165829213535 13.293157887575802 57.55177307128906 13.271041870117188 C51.961577677090816 13.250591664212806 46.37136519826706 13.241449875903157 40.78114318847656 13.231369018554688 C29.81039353117913 13.209912397622816 18.839722470495772 13.175771819830175 7.8690338134765625 13.133712768554688 C7.8690338134765625 16.763712768554683 7.8690338134765625 20.39371276855468 7.8690338134765625 24.133712768554688 C9.044452362060547 24.131492156982432 10.21987091064453 24.12927154541015 11.430908203125 24.126983642578125 C22.482420583906602 24.10675375072941 33.533929232011104 24.09174136865795 44.585455894470215 24.081900596618652 C50.26779893262301 24.07667137940058 55.950127081200634 24.069573036417125 61.63246154785156 24.058273315429688 C67.11132517279833 24.047445805306666 72.59017443375214 24.041436225908 78.06904792785645 24.038835525512695 C80.16432992375404 24.036981028956717 82.25961109204816 24.033359953392846 84.35488700866699 24.027982711791992 C87.27880964902721 24.020774088495045 90.20267214655183 24.01972175073928 93.12660217285156 24.020187377929688 C93.56428924560547 24.018389739990226 93.56428924560547 24.018389739990226 95.77925109863281 24.009292602539063 C101.75498165219648 24.019660607274602 101.75498165219648 24.019660607274602 102.86903381347656 25.133712768554688 C102.96727376991777 26.610201525656237 102.99876900012771 28.091466940077282 102.99403381347656 29.571212768554688 C102.99532287597657 29.97275573730468 102.99532287597657 29.97275573730468 103.00184631347656 32.00480651855469 C102.86903381347656 34.13371276855469 102.86903381347656 34.13371276855469 101.86903381347656 36.13371276855469 C70.84903381347655 36.13371276855469 39.829033813476556 36.13371276855469 7.8690338134765625 36.13371276855469 C7.8690338134765625 39.76371276855468 7.8690338134765625 43.39371276855468 7.8690338134765625 47.13371276855469 C9.042231750488284 47.12927154541015 10.215429687499999 47.12483032226561 11.424179077148438 47.12025451660156 C22.46065319180397 47.079775691414255 33.49711231900403 47.04976078101021 44.53364372253418 47.03008842468262 C50.20813456091659 47.01963482233052 55.88256565008837 47.00544693997233 61.55702209472656 46.98283386230469 C67.02941096207162 46.961161603887206 72.50174222724173 46.94915603188497 77.97417068481445 46.9439582824707 C80.06584200444807 46.940252400839086 82.15751004325895 46.933016134527975 84.2491569519043 46.9222526550293 C87.17053380380437 46.90781236015596 90.09167020002008 46.9057316847738 93.01307678222656 46.90666198730469 C93.88485565185547 46.89947143554687 94.75663452148439 46.892280883789056 95.65483093261719 46.88487243652344 C101.64092949091639 46.90560844599452 101.64092949091639 46.90560844599452 103.86903381347656 49.13371276855469 C104.09950256347656 51.00871276855466 104.09950256347656 51.00871276855466 104.05653381347656 53.13371276855469 C104.05008850097656 53.8349627685547 104.04364318847655 54.53621276855469 104.03700256347656 55.25871276855469 C103.86903381347656 57.133712768554716 103.86903381347656 57.133712768554716 102.86903381347656 59.13371276855469 C88.93524109304587 59.15704324868199 75.00145138827922 59.17462626255693 61.06764316558838 59.18552494049072 C54.59835700877366 59.190754451933174 48.129083927430315 59.197853327386895 41.65980529785156 59.20915222167969 C35.422330811940554 59.21997868734985 29.18486894095213 59.225989088765886 22.947385787963867 59.22859001159668 C20.56183104175623 59.230444697259685 18.176277023388067 59.2340661299867 15.790727615356445 59.23944282531738 C12.462077901577594 59.246650058236554 9.133481026499844 59.24770384474627 5.8048248291015625 59.24723815917969 C5.306357955932619 59.24903579711915 5.306357955932619 59.24903579711915 2.7838134765625 59.25813293457031 C2.3329689025878935 59.25744560241699 2.3329689025878935 59.25744560241699 0.051422119140625 59.25396728515625 C-0.7367108821868911 59.25488907814025 -1.5248438835144071 59.255810871124254 -2.336859703063965 59.256760597229004 C-4.1309661865234375 59.13371276855469 -4.1309661865234375 59.13371276855469 -5.1309661865234375 58.13371276855469 C-5.22990396388375 56.35925267510467 -5.2589571104488115 54.58085025706987 -5.2603607177734375 52.80363464355469 C-5.26351287841797 51.66575500488281 -5.266665039062502 50.527875366210935 -5.2699127197265625 49.35551452636719 C-5.267888488769529 48.11700744628905 -5.265864257812503 46.87850036621094 -5.2637786865234375 45.60246276855469 C-5.264735412597659 44.34107482910156 -5.265692138671874 43.07968688964843 -5.2666778564453125 41.78007507324219 C-5.267359934777794 39.10674139071651 -5.266001479527162 36.43349840229729 -5.2613372802734375 33.76017761230469 C-5.25563999211645 30.326645862123172 -5.25891919389597 26.893192270925738 -5.264909744262695 23.45966339111328 C-5.269383806435322 20.19476033877345 -5.2662550213254775 16.929866838293492 -5.2637786865234375 13.664962768554688 C-5.265802917480471 12.426455688476551 -5.267827148437497 11.187948608398443 -5.2699127197265625 9.911911010742188 C-5.26676055908203 8.774031372070311 -5.263608398437498 7.636151733398435 -5.2603607177734375 6.4637908935546875 C-5.259565124511717 5.456428833007806 -5.258769531250003 4.449066772460924 -5.2579498291015625 3.4111785888671875 C-5.040262247112487 -0.49307252112575384 -3.48362514233564 0.007502319971706584 0 0 Z " fill="#FF3F52" transform="translate(41.13096618652344,125.86628723144531)"/>
<path d="M0 0 C0.3458312988281307 0.0010121154785167619 0.3458312988281307 0.0010121154785167619 2.095947265625 0.006134033203125 C2.8024340820312545 0.005177307128917619 3.508920898437509 0.004220581054681816 4.23681640625 0.00323486328125 C5.7331552005571496 0.0025532070110614313 7.229496936126992 0.0044064872786862 8.725830078125 0.008575439453125 C11.023748837051215 0.013923959628357352 13.321472127073093 0.008630025873770819 15.619384765625 0.002227783203125 C17.069906032866328 0.00288856732541376 18.520427177901354 0.004169735558946286 19.970947265625 0.006134033203125 C20.66260986328126 0.004109802246091476 21.354272460937494 0.0020855712890579525 22.06689453125 0 C26.918495027633725 0.023994295211849703 26.918495027633725 0.023994295211849703 28.033447265625 1.138946533203125 C28.10571228182937 2.9918215486827364 28.117259463605706 4.847285308882874 28.095947265625 6.701446533203125 C28.08692382812501 7.713360595703136 28.07790039062499 8.72527465820312 28.068603515625 9.767852783203125 C28.057001953124995 10.550313720703116 28.04540039062499 11.332774658203135 28.033447265625 12.138946533203125 C23.352054727891954 12.163599414589555 18.670699674782725 12.181783924933114 13.9892578125 12.193878173828125 C12.395501121024552 12.198918106240228 10.801749075316252 12.205750030195901 9.2080078125 12.214385986328125 C6.92194473905036 12.226466518578235 4.635942594939422 12.23217808450363 2.349853515625 12.236602783203125 C1.6331800842285134 12.241764068603516 0.9165066528320267 12.246925354003906 0.1781158447265625 12.252243041992188 C-1.537189458242068 12.252439162056106 -3.252365397675419 12.200866607122606 -4.966552734375 12.138946533203125 C-5.966552734375 11.138946533203125 -5.966552734375 11.138946533203125 -6.099365234375 8.888946533203125 C-6.096787109374986 7.981446533203126 -6.094208984375001 7.073946533203127 -6.091552734375 6.138946533203125 C-6.094130859375014 5.231446533203126 -6.096708984374999 4.323946533203127 -6.099365234375 3.388946533203125 C-5.851143386482278 -0.8162235958028532 -3.6919199344471565 0.018258926486566907 0 0 Z " fill="#FF3F52" transform="translate(153.966552734375,172.86105346679688)"/>
</svg>
