<?xml version="1.0" standalone="no"?><svg xmlns="http://www.w3.org/2000/svg" xmlns:xlink="http://www.w3.org/1999/xlink" style="isolation:isolate" viewBox="122 138.535 598.678 300.744"><g><path d=" M 549.352 158.969 C 546.358 155.842 541.825 156.472 540.075 158.147 C 540.075 158.147 482.547 213.195 458.27 236.427 L 458.27 161.651 C 458.27 159.396 455.791 155.535 451.309 155.535 C 446.979 155.535 444.299 159.246 444.299 161.668 L 444.299 299.619 C 444.299 301.732 446.979 305.602 451.168 305.602 C 455.528 305.602 458.27 301.907 458.27 299.62 L 458.27 255.763 C 468.004 246.448 549.748 168.227 549.748 168.227 C 551.375 166.666 552.452 162.206 549.352 158.969 Z " fill="rgb(110,68,29)"/><path d=" M 413.217 158.615 C 410.223 155.487 405.69 156.118 403.941 157.793 C 403.941 157.793 346.243 213.099 321.924 236.411 L 321.924 161.65 C 321.924 159.396 319.446 155.536 314.963 155.536 C 310.633 155.536 307.954 159.247 307.954 161.668 L 307.954 299.619 C 307.954 301.731 310.633 305.601 314.823 305.601 C 319.183 305.601 321.924 301.906 321.924 299.62 L 321.924 255.762 C 331.668 246.424 413.614 167.872 413.614 167.872 C 415.242 166.313 416.317 161.853 413.217 158.615 Z " fill="rgb(110,68,29)"/><path d=" M 360.59 232.694 C 364.182 230.011 368.478 231.622 369.826 233.427 C 369.826 233.427 416.22 295.299 417.091 296.466 C 418.459 298.298 418.473 302.898 414.979 305.507 C 411.622 308.014 407.161 306.516 405.897 304.825 C 405.219 303.918 358.643 241.8 358.643 241.8 C 357.194 239.861 357.121 235.285 360.59 232.694 Z " fill="rgb(110,68,29)"/><path d=" M 497.856 232.694 C 501.448 230.011 505.744 231.622 507.092 233.427 C 507.092 233.427 553.485 295.299 554.356 296.466 C 555.725 298.298 555.739 302.898 552.245 305.507 C 548.887 308.014 544.426 306.516 543.163 304.825 C 542.485 303.918 495.909 241.8 495.909 241.8 C 494.46 239.861 494.387 235.285 497.856 232.694 Z " fill="rgb(110,68,29)"/><path d=" M 184.335 170.52 C 156.682 176.89 136 201.709 136 231.268 C 136 265.641 163.963 293.606 198.334 293.606 C 232.705 293.606 260.668 265.641 260.667 231.268 C 260.668 201.843 240.173 177.116 212.71 170.609 C 212.155 170.477 210.793 170.16 210.793 170.16 C 208.425 169.656 205.352 166.263 206.252 162.029 C 207.185 157.644 211.476 156.021 213.681 156.491 L 215.647 156.916 C 249.425 164.779 274.668 195.131 274.667 231.268 C 274.668 273.362 240.424 307.606 198.334 307.606 C 156.243 307.606 122 273.362 122 231.268 C 122 195.072 147.326 164.678 181.189 156.876 C 181.85 156.724 183.585 156.371 183.585 156.371 C 185.955 155.877 190.134 157.744 191.015 161.984 C 191.928 166.372 188.653 169.584 186.447 170.043 C 186.447 170.043 185.145 170.333 184.335 170.52 Z " fill="rgb(110,68,29)"/><path d=" M 658.342 293.378 C 685.996 287.008 706.678 262.19 706.678 232.63 C 706.678 198.257 678.715 170.293 644.344 170.293 C 609.973 170.293 582.01 198.257 582.01 232.63 C 582.01 262.055 602.504 286.783 629.967 293.29 C 630.522 293.421 631.885 293.739 631.885 293.739 C 634.252 294.243 637.326 297.635 636.426 301.87 C 635.492 306.254 631.201 307.877 628.996 307.408 L 627.029 306.983 C 593.252 299.12 568.01 268.768 568.01 232.63 C 568.01 190.537 602.254 156.293 644.344 156.293 C 686.434 156.293 720.678 190.537 720.678 232.63 C 720.678 268.827 695.352 299.22 661.488 307.023 C 660.828 307.174 659.092 307.528 659.092 307.528 C 656.723 308.022 652.543 306.155 651.662 301.915 C 650.75 297.527 654.024 294.315 656.231 293.856 C 656.231 293.856 657.531 293.566 658.342 293.378 Z " fill="rgb(110,68,29)"/><path d=" M 317.598 412.297 L 317.598 392.849 L 314.681 392.849 L 314.681 438.673 L 317.598 438.673 L 317.598 415.031 L 345.433 415.031 L 345.433 438.673 L 348.35 438.673 L 348.35 392.849 L 345.433 392.849 L 345.433 412.297 L 317.598 412.297 Z  M 384.692 392.241 C 371.747 392.241 360.929 402.877 360.929 415.761 C 360.929 428.645 371.808 439.28 384.692 439.28 C 397.576 439.28 408.454 428.645 408.454 415.761 C 408.454 402.877 397.576 392.241 384.692 392.241 Z  M 384.692 394.976 C 396.057 394.976 405.537 404.457 405.537 415.761 C 405.537 427.004 396.057 436.546 384.692 436.546 C 373.266 436.546 363.846 427.065 363.846 415.761 C 363.846 404.457 373.266 394.976 384.692 394.976 Z  M 429.728 395.584 L 441.58 395.584 L 441.58 392.849 L 414.961 392.849 L 414.961 395.584 L 426.812 395.584 L 426.812 438.673 L 429.728 438.673 L 429.728 395.584 Z  M 475.73 395.584 L 475.73 392.849 L 453.851 392.849 L 453.851 438.673 L 475.73 438.673 L 475.73 435.938 L 456.769 435.938 L 456.769 414.971 L 475.244 414.971 L 475.244 412.235 L 456.769 412.235 L 456.769 395.584 L 475.73 395.584 Z  M 494.564 392.849 L 491.648 392.849 L 491.648 438.673 L 514.021 438.673 L 514.021 435.938 L 494.564 435.938 L 494.564 392.849 Z  M 547.008 398.684 C 544.82 394.733 540.443 392.241 535.825 392.241 C 528.958 392.241 524.096 397.043 524.096 403.849 C 524.096 407.495 525.797 410.17 528.836 412.054 L 537.101 416.43 C 541.053 418.374 546.34 420.562 546.34 425.728 C 546.34 431.805 541.053 436.546 535.035 436.546 C 529.505 436.546 525.919 433.143 523.974 428.28 L 521.422 429.435 C 523.549 435.329 528.532 439.28 534.914 439.28 C 542.328 439.28 549.256 433.568 549.256 425.971 C 549.256 421.839 547.494 419.043 544.029 416.855 L 535.277 412.297 C 531.57 410.534 527.014 408.528 527.014 403.728 C 527.014 398.927 530.721 394.976 535.642 394.976 C 539.958 394.976 542.875 397.103 544.941 400.385 L 547.008 398.684 Z " fill="rgb(44,46,53)"/></g></svg>