<?xml version="1.0" encoding="UTF-8"?>

<svg version="1.1" xmlns="http://www.w3.org/2000/svg" viewBox="0 0 512 511">
<path d="M0 0 C168.96 0 337.92 0 512 0 C512 168.63 512 337.26 512 511 C343.03999999999996 511 174.07999999999998 511 0 511 C0 342.37 0 173.74 0 0 Z " fill="#E30513" transform="translate(0,0)"/>
<path d="M0 0 C1.9375 1.6875 1.9375 1.6875 3 3 C3.659999999999968 1.6800000000000068 4.319999999999993 0.36000000000001364 5 -1 C10.610000000000014 -1 16.220000000000027 -1 22 -1 C21.360940151596708 4.112478787226166 20.706529445470494 8.723910899357293 19.546875 13.67578125 C19.25981689453124 14.907238769531261 18.972758789062482 16.138696289062494 18.677001953125 17.407470703125 C18.368448769553993 18.709253276996662 18.05943949155096 20.010927820750453 17.75 21.3125 C17.593489685058614 21.9751889038086 17.43697937011717 22.6378778076172 17.275726318359375 23.320648193359375 C6.856811434357326 67.42297654992808 6.856811434357326 67.42297654992808 -4.5 74.57421875 C-13.511141081714698 79.25411196059292 -23.744974748065772 80.90431475942353 -33.73828125 78.28125 C-39.623542974015265 75.82823334864577 -43.4569763755411 72.31453543668835 -47 67 C-47 64.36000000000001 -47 61.72000000000003 -47 59 C-44.360000000000014 58.670000000000016 -44.360000000000014 58.670000000000016 -31 57 C-30.670000000000016 58.15499999999997 -30.670000000000016 58.15499999999997 -29 64 C-25.297483528421253 65.23417215719292 -21.852821374392875 65.45150250481163 -18 65 C-15.125 63.5 -15.125 63.5 -13 62 C-12.340000000000032 62 -11.680000000000007 62 -11 62 C-9.140385864317295 57.749453404153826 -8.067954348523642 53.50066475449256 -7 49 C-8.051874999999995 49.65999999999997 -9.103749999999991 50.31999999999999 -10.1875 51 C-15.942324440479524 53.85185793764441 -21.71983941944353 53.902773083454974 -28 53 C-34.30764858086627 50.624523370987845 -39.15913258674868 45.78000177027053 -42.09765625 39.74609375 C-44.90981145308257 31.187889820272517 -43.91262860336235 22.35896738046651 -39.9375 14.4375 C-34.91430559336578 5.490565384167581 -28.382531846292295 0.2715482603976511 -18.5625 -2.75 C-11.542613835704856 -3.434866942858065 -6.307405030091218 -3.4059987162492575 0 0 Z " fill="#FDFAFB" transform="translate(333,229)"/>
<path d="M0 0 C7.1459469829757865 4.336429365737445 11.387521520045254 9.56117447568883 14.0625 17.4375 C14.0625 18.757499999999993 14.0625 20.077499999999986 14.0625 21.4375 C11.31013726428941 21.599757191843196 8.56732523960838 21.718432796696305 5.8125 21.8125 C5.035195312500008 21.86277343750001 4.257890625000002 21.913046874999992 3.45703125 21.96484375 C1.1814224143249135 22.023192694504502 -0.729291579852827 22.00039875267339 -2.9375 21.4375 C-5.3203125 18.53125 -5.3203125 18.53125 -6.9375 15.4375 C-11.859062269789092 11.922098378722069 -17.076347189829377 11.692766062074043 -22.9375 12.4375 C-25.1953125 13.23828125 -25.1953125 13.23828125 -26.9375 14.4375 C-27.593589790444085 17.4992523554057 -27.9375 20.309713836042903 -27.9375 23.4375 C-23.485616801829636 25.374646780840607 -18.92790097863613 26.569909817805524 -14.25 27.8125 C5.952316057458916 33.36778184848072 5.952316057458916 33.36778184848072 12.0625 41.4375 C15.196949114516016 47.29755704018211 15.144486098969452 55.39032414879148 13.4453125 61.74609375 C10.349765150373884 68.77271229140797 4.376557703702844 73.60562887953654 -2.4375 76.875 C-11.408206036349071 80.04924982824662 -21.597306719703923 79.75441565904987 -30.4375 76.375 C-39.63967279489276 71.90501647140894 -45.43828513340096 66.15420394287372 -48.9375 56.4375 C-49.316129678715676 54.445578646756644 -49.66055436844232 52.44608463308674 -49.9375 50.4375 C-33.47792909221299 49.20687787605331 -33.47792909221299 49.20687787605331 -29.83984375 52.11328125 C-28.6875 54.25 -28.6875 54.25 -27.77734375 56.45703125 C-26.9375 58.4375 -26.9375 58.4375 -24.25 60.4375 C-18.735212711418228 62.10234144560957 -13.417299100663115 62.146014028760874 -7.875 60.5625 C-5.9375 59.4375 -5.9375 59.4375 -4.9375 57.4375 C-4.5625 54.0625 -4.5625 54.0625 -4.9375 50.4375 C-9.59182923467904 45.51720909476785 -15.153549431826463 44.318010961517444 -21.625 43.1875 C-31.015530773948527 41.228678591178436 -38.47256493101058 37.46412338257821 -43.9375 29.4375 C-46.642721646199526 24.799977177943674 -46.56668890601545 19.654192828355946 -45.9375 14.4375 C-44.12656710819789 8.289003295498219 -40.29912613542972 3.8604590582122 -34.9375 0.4375 C-24.87241023370744 -4.874630709987741 -10.252477393742225 -4.817118775451746 0 0 Z " fill="#FDFAFA" transform="translate(106.9375,206.5625)"/>
<path d="M0 0 C4.265141111491062 3.1298921091787975 6.890389782527336 6.836604436664999 8.1953125 11.90234375 C9.333038545549016 23.73237273382111 8.594576036020271 32.68266051662022 0.9453125 42.15234375 C-6.59452418950093 50.22157322833823 -15.673703072221713 53.935126131933714 -26.6171875 54.46484375 C-34.85006919411069 54.26013425922753 -41.90723315583483 51.792215498164865 -47.8125 45.8984375 C-53.5390667295878 38.60882236354405 -54.5388225785135 32.02659401152499 -53.8046875 22.90234375 C-52.11188516114882 13.92622378516731 -47.30518591033561 6.432603444595884 -39.9921875 1.02734375 C-27.40591404573908 -7.033107748939756 -12.982296236390482 -7.896158533389013 0 0 Z " fill="#FDFAFB" transform="translate(279.8046875,231.09765625)"/>
<path d="M0 0 C4.714455076118099 3.1154001380195666 8.302736858736523 6.5088545429711075 10 12 C10.553200291486007 18.986384326347434 10.236101996843558 24.291694009469268 8 31 C-5.529999999999973 31 -19.060000000000002 31 -33 31 C-29 39 -29 39 -27 40 C-15.780532417829818 41.03852431337236 -15.780532417829818 41.03852431337236 -11.5625 37.875 C-8.05612432394662 35.367941391621855 -5.1972795681493835 36.09948511104545 -1.0625 36.75 C0.9631096307282974 37.14279014259898 2.985935277401097 37.5517570241434 5 38 C4.007964843792877 43.6978429484717 -0.2633845713127698 47.978569164986936 -4.80859375 51.3359375 C-12.89571085973347 56.126969017124964 -20.77248273682079 56.97559653883832 -30 56 C-36.95666174909286 53.91672161524491 -42.004122623901594 50.03431482133783 -46 44 C-46.371249999999975 43.444414062500016 -46.74250000000001 42.88882812500003 -47.125 42.31640625 C-49.77386787493788 35.30400156322247 -49.056747371517076 25.471095458755315 -46.90234375 18.39453125 C-42.45584615578417 9.039100311769857 -36.54878949719688 2.934180351847175 -27 -1 C-26.092499999999973 -1.4124999999999943 -25.185000000000002 -1.8249999999999886 -24.25 -2.25 C-16.134571904572795 -4.122791098944731 -7.492917692550009 -3.83994054493445 0 0 Z " fill="#FDF9F9" transform="translate(399,229)"/>
<path d="M0 0 C4.813001148524904 4.06469001589204 8.327850638921802 8.901572918420698 10 15 C10 19.620000000000005 10 24.24000000000001 10 29 C-3.1999999999999886 29.329999999999984 -16.400000000000006 29.659999999999968 -30 30 C-27 36 -27 36 -24 38 C-21.03906250000003 38.37109375 -21.03906250000003 38.37109375 -17.625 38.4375 C-16.503515625000006 38.477460937499984 -15.382031250000011 38.51742187499997 -14.2265625 38.55859375 C-11 38 -11 38 -8.60546875 35.4921875 C-5.862291058904077 32.86827840416913 -5.5354410980369835 32.641484082751845 -2.01171875 32.51171875 C-0.5694978964881443 32.544646166746816 0.8723309508683883 32.60384406774483 2.3125 32.6875 C3.0530664062499966 32.71005859374998 3.793632812499993 32.73261718750001 4.556640625 32.755859375 C6.3719735723505835 32.814418502333865 8.186256806810832 32.904091135495264 10 33 C7.7942604505927875 41.06977883929471 4.949175344473559 46.46921005662756 -2.5 50.8125 C-10.041143574206671 54.914988317658185 -19.320363859189 55.24381134099616 -27.5625 53.0625 C-34.7327035026791 50.328537513366996 -41.05102167703356 44.48144719008724 -44.5625 37.6875 C-47.61335624906184 29.86139049153701 -48.68522155285116 21.230512362775272 -45.4375 13.25 C-41.265996070936836 5.198705703346604 -35.419979346906416 -0.5338247564855294 -27 -4 C-17.153247592599428 -6.395991559100594 -8.803799999970039 -5.1334833802642095 0 0 Z " fill="#FDF8F8" transform="translate(170,231)"/>
<path d="M0 0 C0.7488647460937443 0.005236816406238631 1.4977294921874886 0.010473632812505684 2.269287109375 0.015869140625 C3.0781738281249886 0.01909179687498863 3.8870605468750057 0.022314453125005684 4.720458984375 0.025634765625 C5.570595703125008 0.034013671874987494 6.420732421875016 0.04239257812500341 7.296630859375 0.051025390625 C8.150634765625 0.05553710937499545 9.004638671875 0.060048828124990905 9.884521484375 0.064697265625 C12.00108749392001 0.07652165673977152 14.117617709797173 0.09445770459277014 16.234130859375 0.113525390625 C12.239034303868948 20.935028615203578 7.470550779543288 41.570647242272514 2.234130859375 62.113525390625 C10.484130859375 62.113525390625 18.734130859375 62.113525390625 27.234130859375 62.113525390625 C26.234130859375 71.113525390625 26.234130859375 71.113525390625 24.234130859375 78.113525390625 C9.71413085937499 78.113525390625 -4.805869140624992 78.113525390625 -19.765869140625 78.113525390625 C-17.51870360774518 66.8776977262259 -17.51870360774518 66.8776977262259 -16.320556640625 61.621337890625 C-16.051948242187507 60.43813964843753 -15.783339843750014 59.25494140625 -15.506591796875 58.035888671875 C-15.220903320312487 56.782758789062484 -14.935214843750003 55.52962890624997 -14.640869140625 54.238525390625 C-14.02001061222171 51.50960025361576 -13.400333775559716 48.78040904647713 -12.781494140625 46.051025390625 C-12.620371398925784 45.34043975830079 -12.459248657226567 44.62985412597658 -12.293243408203125 43.897735595703125 C-11.028881928807124 38.307539608037246 -9.79199996278382 32.711534409160265 -8.562744140625 27.113525390625 C-8.19703954154221 25.45190032259697 -7.831317038362812 23.790279194948653 -7.465576171875 22.128662109375 C-6.928560391267837 19.688227097809403 -6.392833563226986 17.24754417449813 -5.86102294921875 14.80596923828125 C-5.366370269438136 12.53537400892148 -4.867321938573838 10.265784790725121 -4.367431640625 7.996337890625 C-4.29362274169921 7.654373779296861 -4.29362274169921 7.654373779296861 -3.92010498046875 5.923828125 C-2.645322325657162 0.1700642722840655 -2.645322325657162 0.1700642722840655 0 0 Z " fill="#FEFCFC" transform="translate(197.765869140625,204.886474609375)"/>
<path d="M0 0 C-1.748071291498718 5.467371911708852 -3.6579408100897126 10.75824847972467 -6 16 C-6.6406640624999795 16.002578125000014 -7.281328125000016 16.00515625 -7.94140625 16.0078125 C-13.76821589623927 16.26832559893768 -17.198884447200953 17.191120712313392 -21.52734375 21.13671875 C-24.933501331961565 25.446366406752418 -26.45633380402728 30.145082942534714 -27.5703125 35.45703125 C-27.826835937499993 36.65134765624998 -28.083359374999986 37.84566406250002 -28.34765625 39.076171875 C-28.604179687499993 40.309160156250016 -28.860703124999986 41.54214843750003 -29.125 42.8125 C-29.64525829475673 45.27801674807881 -30.168526119943238 47.742901050901935 -30.6953125 50.20703125 C-30.922348632812486 51.29475830078127 -31.149384765624973 52.38248535156248 -31.38330078125 53.503173828125 C-32 56 -32 56 -33 57 C-35.86267566950306 57.07325168038648 -38.70071899510549 57.0923820506535 -41.5625 57.0625 C-42.368808593749975 57.057988281250005 -43.17511718750001 57.05347656250001 -44.005859375 57.048828125 C-46.00393756219228 57.037005177146796 -48.001977829925636 57.019069140541546 -50 57 C-46.020682357564965 38.66213068002281 -42.01305152730572 20.330509137693298 -38 2 C-32.389999999999986 2 -26.779999999999973 2 -21 2 C-21 3.9799999999999898 -21 5.960000000000008 -21 8 C-20.298749999999984 7.236874999999998 -19.597500000000025 6.4737499999999955 -18.875 5.6875 C-12.833958971780874 0.040439908403868685 -7.943228330850729 -0.4238481520414439 0 0 Z " fill="#FDFAFA" transform="translate(454,226)"/>
<path d="M0 0 C4.075208555498818 1.5378145492448425 7.058981571604932 3.010128786076848 9 7 C9.542656434242474 12.607449820505849 9.203097112345745 16.195354331481383 6 21 C1.3075793595074288 25.629855031952673 -2.152139451455355 27.401437809990625 -8.671875 27.359375 C-12.5900423643767 26.75455721892172 -14.30358816244933 24.831232429428212 -17 22 C-18.85730399755991 18.28539200488018 -18.44282905549329 14.054068817896393 -18 10 C-14.309725303901445 2.33558332348764 -8.371412351714838 -1.3868806890066594 0 0 Z " fill="#E20914" transform="translate(262,242)"/>
<path d="M0 0 C2.4716650012312016 1.9067130009497646 3.970956541698513 3.531841754117295 4.55859375 6.66796875 C4.746528434267873 12.914033256549715 3.232009909469525 16.914754234254815 -0.8125 21.6875 C-4.455868248181957 24.926049553939492 -7.937942671045278 25.200194315416923 -12.65625 25.05078125 C-15.876531802738612 24.50823377236469 -17.612003714714206 23.025527303116178 -19.8125 20.6875 C-21.78801003291443 16.736479934171143 -21.504462281153167 11.830082003088734 -20.1640625 7.6796875 C-16.219732288956834 -0.10783625000829034 -8.268848700307785 -3.8587960601436464 0 0 Z " fill="#E20915" transform="translate(327.8125,242.3125)"/>
<path d="M0 0 C3.3125 1.8125 3.3125 1.8125 6 4 C6.618750000000006 4.4950000000000045 7.237500000000011 4.990000000000009 7.875 5.5 C9 7 9 7 9 11 C0.09000000000000341 11 -8.819999999999993 11 -18 11 C-16.839301099338172 5.196505496690804 -15.641655362795177 4.341991861212534 -11 1 C-7.276522664281032 -0.24115911190631323 -3.8678582791535234 -0.5420861982146903 0 0 Z " fill="#E21821" transform="translate(157,238)"/>
<path d="M0 0 C3.4713473085291753 1.7010590799630165 4.827918724731944 2.7418780870979447 7 6 C7 7.319999999999993 7 8.639999999999986 7 10 C-2.240000000000009 10 -11.480000000000018 10 -21 10 C-19.047808711870744 5.119521779676887 -18.353626118728528 3.6716900832708745 -14.265625 0.94921875 C-9.732155051256768 -0.9501488319734506 -4.79038159368389 -0.7831686529183344 0 0 Z " fill="#E2161F" transform="translate(389,239)"/>
</svg>
