<?xml version="1.0" encoding="UTF-8"?>

<svg version="1.1" xmlns="http://www.w3.org/2000/svg" viewBox="0 0 1185 309">
<path d="M0 0 C16.8 0 33.7 0 51 0 C51 1.0 51 2.0 51 3 C51.4 3.0 51.4 3.0 53.3 2.9 C54.3 2.9 55.3 2.9 56.4 2.9 C56.9 2.9 56.9 2.9 59.4 2.8 C62 3 62 3 64 5 C65.2 5.2 66.3 5.3 67.5 5.5 C71 6 71 6 73 8 C74.7 8.7 76.3 9.4 78 10 C82.9 12.0 85.8 14.7 89.3 18.4 C91.4 20.3 93.4 21.1 96 22 C98.1 23.7 98.9 24.7 99.8 27.2 C101.0 30.1 102.3 31.4 104.5 33.5 C107.3 36.2 108.8 38.2 110 42 C111.0 44.0 112.0 46.0 113 48 C113.3 48.5 113.3 48.5 114.6 51.3 C116 54 116 54 117 55 C117.1 55.6 117.1 55.6 117.4 58.4 C118 62 118 62 120 64 C120.2 67.6 120.2 67.6 120 71 C118.4 72.6 116.7 72.2 114.5 72.2 C113.5 72.2 112.5 72.2 111.5 72.2 C110.5 72.2 109.4 72.2 108.3 72.2 C107.2 72.2 106.2 72.3 105.1 72.3 C102.8 72.3 100.5 72.3 98.2 72.3 C94.7 72.3 91.2 72.4 87.7 72.4 C85.5 72.4 83.3 72.4 81.1 72.4 C80.0 72.4 79.0 72.5 77.9 72.5 C70.6 72.5 70.6 72.5 67.4 70.1 C65.9 67.8 64.9 65.6 64 63 C61.5 56.6 56.7 50.6 50.3 47.8 C49.5 47.6 48.8 47.3 48 47 C47.7 46.7 47.3 46.3 47 46 C45.9 45.9 44.7 45.7 43.6 45.6 C40 45 40 45 38 43 C35.2 42.7 35.2 42.7 31.8 42.7 C30.5 42.7 29.3 42.7 28.0 42.7 C26.7 42.7 25.3 42.7 24 42.8 C23.3 42.7 23.3 42.7 20.0 42.7 C19.4 42.7 19.4 42.7 16.2 42.7 C15.7 42.7 15.7 42.7 12.8 42.7 C10 43 10 43 8 45 C6.3 45.7 4.7 46.4 3 47 C-2.5 49.4 -6.7 52.1 -9.2 57.8 C-9.5 58.5 -9.7 59.2 -10 60 C-10.3 60.3 -10.7 60.7 -11 61 C-11.2 64.4 -11.2 64.4 -11 68 C-10.7 68.3 -10.7 68.3 -9 70 C-8.7 70.8 -8.5 71.5 -8.2 72.3 C-6.4 76.5 -3.7 79.2 0.4 81.1 C1.3 81.4 2.1 81.7 3 82 C5.0 83.0 7.0 84.0 9 85 C10.1 85.5 11.2 86.1 12.3 86.6 C15 88 15 88 16 89 C18.5 89.3 21.1 89.4 23.7 89.6 C26 90 26 90 28 92 C29.2 92.2 30.3 92.3 31.5 92.5 C35 93 35 93 37 95 C39.2 95.2 41.3 95.4 43.5 95.5 C49.8 95.8 49.8 95.8 52 98 C54.3 98.3 54.3 98.3 57 98.5 C61.8 98.8 61.8 98.8 64 101 C65.2 101.2 66.3 101.3 67.5 101.5 C71 102 71 102 73 104 C74.7 104.7 76.3 105.4 78 106 C80.0 107.0 82.0 108.0 84 109 C85.0 109.5 86.0 110.0 87 110.5 C88.0 111.0 89.0 111.5 90 112 C90.4 112.2 90.4 112.2 92.7 113.1 C97.1 115.6 100.2 118.8 103.8 122.4 C104.4 123.0 105.1 123.7 105.8 124.4 C109.1 127.7 111.7 130.4 113 135 C115.8 140.8 115.8 140.8 117 142 C117.1 142.6 117.1 142.6 117.4 145.4 C118 149 118 149 120 151 C120.3 153.8 120.3 153.8 120.3 157.2 C120.3 158.5 120.3 159.7 120.3 161.0 C120.3 162.3 120.3 163.7 120.2 165 C120.3 166.3 120.3 167.6 120.3 169.0 C120.3 170.2 120.3 171.5 120.3 172.8 C120.3 173.9 120.3 175.0 120.3 176.2 C120 179 120 179 118 181 C117.7 183.3 117.7 183.3 117.5 186 C117.2 190.8 117.2 190.8 115 193 C114.3 194.7 113.6 196.3 113 198 C112.0 200.0 111.0 202.0 110 204 C109.6 204.9 109.2 205.8 108.9 206.7 C106.4 211.1 103.2 214.2 99.6 217.8 C99.0 218.4 98.3 219.1 97.6 219.8 C94.3 223.1 91.6 225.6 87 227 C86.3 227.7 85.7 228.3 85 229 C82.8 231.2 80.9 232.0 78 233 C77.7 233.3 77.3 233.7 77 234 C76.4 234.1 76.4 234.1 73.6 234.4 C70 235 70 235 68 237 C65.7 237.3 63.3 237.7 61 238 C60.3 238.7 59.7 239.3 59 240 C57.1 240.3 57.1 240.3 54.7 240.3 C53.9 240.4 53.0 240.4 52.2 240.4 C50.4 240.5 48.6 240.5 46.8 240.6 C46.0 240.6 45.1 240.6 44.3 240.7 C43.5 240.7 42.7 240.7 41.9 240.7 C40.0 241 40.0 241 38 243 C35.0 243.3 35.0 243.3 31.5 243.2 C30.3 243.3 29.2 243.3 28.0 243.3 C25 243 25 243 23 241 C21.1 240.7 21.1 240.7 18.7 240.7 C17.9 240.6 17.0 240.6 16.2 240.6 C15.7 240.6 15.7 240.6 13.5 240.5 C11.8 240.5 10.0 240.4 8.3 240.3 C7.5 240.3 6.7 240.3 5.9 240.3 C4.0 240 4.0 240 2 238 C-0.3 237.7 -0.3 237.7 -3 237.5 C-7.8 237.2 -7.8 237.2 -10 235 C-11.2 234.8 -12.3 234.7 -13.5 234.5 C-17.0 234 -17.0 234 -19 232 C-20.7 231.3 -22.3 230.6 -24 230 C-28.2 228.1 -30.8 226.2 -34 223 C-34.7 222.8 -35.4 222.6 -36.1 222.3 C-40.5 220.3 -43.4 217.1 -46.7 213.7 C-47.4 213.0 -48.0 212.4 -48.7 211.7 C-52.1 208.3 -54.6 205.6 -56 201 C-56.7 200.3 -57.3 199.7 -58 199 C-60.2 196.8 -61.0 194.9 -62 192 C-62.3 191.7 -62.7 191.3 -63 191 C-63.1 189.9 -63.3 188.7 -63.4 187.6 C-64 184 -64 184 -66 182 C-66.3 179.3 -66.1 176.7 -66 174 C-67.0 174 -68.0 174 -69 174 C-69 170.0 -69 166.1 -69 162 C-62.0 161.9 -54.9 161.8 -47.9 161.8 C-45.5 161.8 -43.1 161.7 -40.7 161.7 C-37.2 161.6 -33.8 161.6 -30.3 161.6 C-29.8 161.6 -29.8 161.6 -27.1 161.5 C-26.6 161.5 -26.6 161.5 -24.0 161.5 C-23.2 161.5 -22.3 161.5 -21.4 161.5 C-18.2 162.2 -17.0 163.5 -15 166 C-13.9 168.4 -13.9 168.4 -13 171 C-10.9 175.7 -8.3 179.2 -4.6 182.8 C-4.2 183.2 -3.7 183.7 -3.2 184.2 C-0.3 187.1 2.2 188.7 6 190 C6.3 190.3 6.7 190.7 7 191 C8.1 191.1 9.3 191.3 10.4 191.4 C14 192 14 192 16 194 C19.0 194.3 19.0 194.3 22.9 194.3 C23.6 194.3 24.3 194.3 25.0 194.3 C26.4 194.3 27.8 194.3 29.3 194.3 C31.5 194.3 33.7 194.3 35.9 194.3 C37.3 194.3 38.7 194.3 40.1 194.3 C41.4 194.3 42.6 194.3 44.0 194.3 C47 194 47 194 49 192 C50.0 192.0 51.0 192.0 52.1 191.9 C57.0 191.4 59.7 187.8 63.1 184.4 C65.0 182.0 66.0 179.9 67 177 C67.3 176.7 67.7 176.3 68 176 C68.1 174.4 68.2 172.7 68.2 171.1 C68.2 170.2 68.2 169.3 68.2 168.3 C68 166 68 166 66 164 C65.3 162.3 64.6 160.7 64 159 C60.5 151.6 60.5 151.6 56.6 150.1 C54.0 149 54.0 149 52.1 146.9 C49.3 144.3 46.8 144.4 43 144 C42.3 143.3 41.7 142.7 41 142 C39.8 141.8 38.7 141.7 37.5 141.5 C34 141 34 141 32 139 C29.7 138.7 29.7 138.7 27 138.5 C22.2 138.2 22.2 138.2 20 136 C17.8 135.8 15.7 135.6 13.5 135.5 C7.2 135.2 7.2 135.2 5 133 C3.8 132.8 2.7 132.7 1.5 132.5 C-2.0 132 -2.0 132 -4 130 C-5.2 129.8 -6.3 129.7 -7.5 129.5 C-11.0 129 -11.0 129 -13 127 C-14.7 126.3 -16.3 125.6 -18 125 C-20.0 124.0 -22.0 123.0 -24 122 C-25.0 121.5 -26.1 121.1 -27.1 120.6 C-30.0 119.0 -31.7 117.3 -34 115 C-34.8 114.7 -35.5 114.4 -36.3 114.1 C-39.5 112.8 -41.3 111.1 -43.7 108.7 C-44.5 107.9 -45.2 107.2 -46.0 106.4 C-48.0 104.0 -49.0 102.0 -50 99 C-51.0 97.0 -52.0 95.0 -53 93 C-53.5 91.9 -54.1 90.8 -54.6 89.7 C-56 87 -56 87 -57 86 C-57.1 83.1 -57.2 80.2 -57.2 77.2 C-57.2 76.3 -57.2 75.5 -57.2 74.6 C-57.2 72.7 -57.2 70.8 -57.2 68.9 C-57.2 66.1 -57.2 63.2 -57.2 60.3 C-57.2 58.5 -57.2 56.7 -57.2 54.9 C-57.2 54.0 -57.2 53.2 -57.3 52.3 C-57.2 46.2 -57.2 46.2 -55 44 C-54.3 42.3 -53.6 40.7 -53 39 C-52.0 37.0 -51.0 35.0 -50 33 C-49.6 32.1 -49.2 31.2 -48.8 30.2 C-46.7 26.4 -44.2 23.8 -41.1 20.8 C-40.6 20.2 -40.1 19.7 -39.6 19.1 C-36.6 16.2 -34.0 14.3 -30 13 C-28.0 12.0 -26.0 11.0 -24 10 C-20.9 8.4 -17.8 6.9 -14.7 5.4 C-12 4.0 -12 4.0 -11 3 C-9.1 2.9 -7.3 2.9 -5.4 2.9 C-4.4 2.9 -3.4 3.0 -2.4 3.0 C-1.6 3.0 -0.8 3.0 0 3 C0 2.0 0 1.0 0 0 Z " fill="#E30412" transform="translate(69,0)"/>
<path d="M0 0 C0.5 0.0 0.5 0.0 2.8 0.0 C3.9 0.0 5.0 0.0 6.1 0.0 C7.2 0.0 8.4 0.0 9.6 0.0 C10.7 0.0 11.9 0.0 13.1 0.0 C16.9 0.0 20.7 0.0 24.4 0.1 C27.0 0.1 29.5 0.1 32.1 0.1 C38.3 0.1 44.6 0.1 50.9 0.1 C50.9 1.1 50.9 2.1 50.9 3.1 C50.2 3.5 49.5 3.8 48.9 4.1 C48.5 6.3 48.5 6.3 48.4 9.1 C48.1 13.9 48.1 13.9 45.9 16.1 C45.5 18.4 45.5 18.4 45.4 21.1 C45.1 25.9 45.1 25.9 42.9 28.1 C42.6 30.3 42.5 32.4 42.4 34.6 C42.1 40.9 42.1 40.9 39.9 43.1 C39.5 45.4 39.5 45.4 39.4 48.1 C39.1 52.9 39.1 52.9 36.9 55.1 C36.6 57.3 36.5 59.4 36.4 61.6 C36.1 67.9 36.1 67.9 33.9 70.1 C33.5 72.4 33.5 72.4 33.4 75.1 C33.1 79.9 33.1 79.9 30.9 82.1 C30.5 84.4 30.5 84.4 30.4 87.1 C30.1 91.9 30.1 91.9 27.9 94.1 C27.6 96.3 27.5 98.4 27.4 100.6 C27.1 106.9 27.1 106.9 24.9 109.1 C24.5 111.4 24.5 111.4 24.4 114.1 C24.1 118.9 24.1 118.9 21.9 121.1 C21.5 123.4 21.5 123.4 21.4 126.1 C21.1 130.9 21.1 130.9 18.9 133.1 C18.6 135.3 18.5 137.4 18.4 139.6 C18.1 145.9 18.1 145.9 15.9 148.1 C15.5 150.4 15.5 150.4 15.4 153.1 C15.1 157.9 15.1 157.9 12.9 160.1 C12.6 162.3 12.5 164.4 12.4 166.6 C12.1 172.9 12.1 172.9 9.9 175.1 C9.9 178.4 9.9 181.7 9.9 185.1 C22.1 185.3 22.1 185.3 83.9 186.1 C83.9 188.8 83.9 191.4 83.9 194.1 C83.2 194.8 82.5 195.4 81.9 196.1 C81.5 198.4 81.5 198.4 81.4 201.1 C81.1 205.9 81.1 205.9 78.9 208.1 C78.6 210.3 78.5 212.4 78.4 214.6 C78.1 220.9 78.1 220.9 75.9 223.1 C75.5 225.5 75.5 225.5 75.3 228.2 C75.0 233.0 75.0 233.0 73.9 234.1 C72.2 234.2 70.5 234.2 68.8 234.2 C68.2 234.2 68.2 234.2 65.4 234.2 C64.2 234.2 63.0 234.2 61.7 234.2 C60.5 234.2 59.2 234.2 57.9 234.2 C54.3 234.2 50.8 234.2 47.3 234.2 C43.6 234.2 40.0 234.2 36.3 234.2 C29.4 234.2 22.4 234.2 15.5 234.2 C7.5 234.2 -0.4 234.2 -8.3 234.2 C-24.6 234.2 -40.9 234.1 -57.1 234.1 C-57.1 233.1 -57.1 232.1 -57.1 231.1 C-56.5 230.8 -55.8 230.5 -55.1 230.1 C-54.8 227.9 -54.8 227.9 -54.6 225.2 C-54.4 220.3 -54.4 220.3 -52.1 218.1 C-51.9 216.0 -51.7 213.8 -51.6 211.6 C-51.4 205.3 -51.4 205.3 -49.1 203.1 C-48.8 200.8 -48.8 200.8 -48.6 198.1 C-48.4 193.3 -48.4 193.3 -46.1 191.1 C-45.8 188.8 -45.8 188.8 -45.6 186.1 C-45.4 181.3 -45.4 181.3 -43.1 179.1 C-42.9 177.0 -42.7 174.8 -42.6 172.6 C-42.4 166.3 -42.4 166.3 -40.1 164.1 C-39.8 161.8 -39.8 161.8 -39.6 159.1 C-39.4 154.3 -39.4 154.3 -37.1 152.1 C-36.8 149.8 -36.8 149.8 -36.6 147.1 C-36.4 142.3 -36.4 142.3 -34.1 140.1 C-33.9 138.0 -33.7 135.8 -33.6 133.6 C-33.4 127.3 -33.4 127.3 -31.1 125.1 C-30.8 122.8 -30.8 122.8 -30.6 120.1 C-30.4 115.3 -30.4 115.3 -28.1 113.1 C-27.8 110.8 -27.8 110.8 -27.6 108.1 C-27.4 103.3 -27.4 103.3 -25.1 101.1 C-24.9 99.0 -24.7 96.8 -24.6 94.6 C-24.4 88.3 -24.4 88.3 -22.1 86.1 C-21.8 83.8 -21.8 83.8 -21.6 81.1 C-21.4 76.3 -21.4 76.3 -19.1 74.1 C-18.9 72.0 -18.7 69.8 -18.6 67.6 C-18.4 61.3 -18.4 61.3 -16.1 59.1 C-15.8 56.8 -15.8 56.8 -15.6 54.1 C-15.4 49.3 -15.4 49.3 -13.1 47.1 C-12.8 44.8 -12.8 44.8 -12.6 42.1 C-12.4 37.3 -12.4 37.3 -10.1 35.1 C-9.9 33.0 -9.7 30.8 -9.6 28.6 C-9.4 22.3 -9.4 22.3 -7.1 20.1 C-6.8 17.8 -6.8 17.8 -6.6 15.1 C-6.4 10.3 -6.4 10.3 -4.1 8.1 C-3.8 5.8 -3.4 3.5 -3.1 1.1 C-2.1 0.1 -2.1 0.1 0 0 Z " fill="#E30412" transform="translate(417.1,2.9)"/>
<path d="M0 0 C0.5 -0.0 0.5 -0.0 2.8 -0.0 C3.3 -0.0 3.3 -0.0 5.8 -0.0 C6.8 -0.0 7.8 -0.0 8.8 -0.0 C11.0 -0.0 13.1 -0.0 15.3 -0.0 C18.6 0.0 21.9 -0.0 25.2 -0.0 C27.2 -0.0 29.3 -0.0 31.4 -0.0 C32.4 -0.0 33.4 -0.0 34.4 -0.0 C35.3 -0.0 36.2 -0.0 37.2 0 C37.6 0.0 37.6 0.0 39.6 0.0 C41.6 0.3 41.6 0.3 43.6 2.3 C44.7 2.4 45.9 2.6 47.1 2.8 C50.6 3.3 50.6 3.3 52.6 5.3 C54.2 5.9 55.9 6.6 57.6 7.3 C61.8 9.1 64.4 11.1 67.6 14.3 C68.0 14.4 68.0 14.4 69.9 15.1 C73.1 16.5 74.9 18.1 77.3 20.6 C77.7 21.0 77.7 21.0 79.6 22.9 C81.6 25.3 82.5 27.3 83.6 30.3 C83.9 30.6 83.9 30.6 85.6 32.3 C87.8 34.5 88.5 36.3 89.6 39.3 C92.4 45.0 92.4 45.0 93.6 46.3 C93.7 46.8 93.7 46.8 94.0 49.7 C94.6 53.3 94.6 53.3 96.6 55.3 C97.0 57.8 97.1 60.4 97.2 62.9 C97.6 65.3 97.6 65.3 99.6 67.3 C99.8 70.0 99.8 70.0 99.8 73.5 C99.8 74.8 99.8 76.0 99.8 77.3 C99.8 78.7 99.8 80.0 99.8 81.3 C99.8 82.0 99.8 82.0 99.8 85.3 C99.7 95.1 99.7 95.1 98.6 96.3 C97.0 96.4 95.4 96.4 93.9 96.4 C93.4 96.4 93.4 96.4 90.8 96.4 C90.2 96.4 90.2 96.4 87.4 96.5 C86.2 96.5 85.0 96.5 83.8 96.5 C80.5 96.5 77.3 96.5 74.0 96.6 C70.7 96.6 67.3 96.6 63.9 96.6 C57.5 96.7 51.0 96.7 44.6 96.8 C37.3 96.8 30.0 96.9 22.7 96.9 C7.7 97.0 -7.4 97.2 -22.4 97.3 C-22.5 100.6 -22.5 100.6 -22.4 104.3 C-22.1 104.6 -22.1 104.6 -20.4 106.3 C-19.7 107.9 -19.1 109.6 -18.4 111.3 C-15.9 117.6 -11.1 123.7 -4.7 126.4 C-4.0 126.7 -3.2 127.0 -2.4 127.3 C-2.1 127.6 -1.8 127.9 -1.4 128.3 C-0.3 128.4 0.9 128.5 2.0 128.7 C5.6 129.3 5.6 129.3 7.6 131.3 C9.8 131.5 9.8 131.5 12.5 131.5 C13.5 131.5 14.5 131.5 15.5 131.5 C16.5 131.5 17.5 131.5 18.6 131.5 C19.6 131.5 20.6 131.5 21.7 131.5 C22.2 131.5 22.2 131.5 24.6 131.5 C25.1 131.5 25.1 131.5 27.4 131.5 C29.6 131.3 29.6 131.3 31.6 129.3 C33.9 128.9 36.2 128.6 38.6 128.3 C39.2 127.6 39.9 126.9 40.6 126.3 C42.2 125.6 43.9 124.9 45.6 124.3 C47.6 122.3 47.6 122.3 48.5 119.8 C49.6 117.2 50.4 116.0 52.6 114.3 C54.6 113.9 54.6 113.9 56.9 113.9 C57.7 113.9 58.6 113.9 59.5 113.9 C59.9 113.9 59.9 113.9 62.3 114.0 C62.8 114.0 62.8 114.0 65.2 114.0 C68.2 114.0 71.2 114.0 74.3 114.1 C76.3 114.1 78.4 114.1 80.4 114.1 C85.5 114.1 90.5 114.2 95.6 114.3 C95.9 115.9 96.2 117.6 96.6 119.3 C95.6 119.6 94.6 119.9 93.6 120.3 C93.6 121.5 93.7 122.8 93.7 124.1 C93.8 126.3 93.8 126.3 93.6 128.3 C92.9 128.9 92.3 129.6 91.6 130.3 C90.9 131.9 90.2 133.6 89.6 135.3 C87.6 139.8 85.3 142.9 81.9 146.4 C81.0 147.3 80.0 148.2 79.1 149.2 C78.6 149.6 78.1 150.1 77.7 150.6 C76.2 152.0 74.8 153.5 73.3 154.9 C72.4 155.8 71.5 156.7 70.6 157.7 C69.7 158.5 68.9 159.3 68.0 160.2 C65.6 162.3 63.6 163.2 60.6 164.3 C60.3 164.6 59.9 164.9 59.6 165.3 C58.4 165.4 57.3 165.5 56.1 165.7 C52.6 166.3 52.6 166.3 50.6 168.3 C48.2 168.6 45.9 168.9 43.6 169.3 C42.9 169.9 42.3 170.6 41.6 171.3 C39.6 171.5 39.6 171.5 37.3 171.6 C36.5 171.6 35.6 171.7 34.8 171.7 C33.0 171.7 31.2 171.8 29.4 171.8 C28.6 171.9 27.7 171.9 26.9 171.9 C26.1 171.9 25.3 172.0 24.5 172.0 C22.6 172.3 22.6 172.3 20.6 174.3 C18.3 174.5 18.3 174.5 15.6 174.5 C15.1 174.5 15.1 174.5 12.9 174.5 C10.6 174.3 10.6 174.3 8.6 172.3 C5.9 172.0 3.3 171.8 0.6 171.8 C-7.1 171.5 -7.1 171.5 -9.4 169.3 C-10.6 169.1 -11.7 168.9 -12.9 168.8 C-16.4 168.3 -16.4 168.3 -18.4 166.3 C-20.1 165.6 -21.7 164.9 -23.4 164.3 C-27.6 162.4 -30.2 160.5 -33.4 157.3 C-34.1 157.0 -34.8 156.8 -35.6 156.6 C-39.9 154.6 -42.8 151.3 -46.1 147.9 C-46.8 147.3 -47.5 146.6 -48.2 145.9 C-51.5 142.6 -54.0 139.9 -55.4 135.3 C-56.1 134.6 -56.7 133.9 -57.4 133.3 C-59.7 131.0 -60.3 129.3 -61.4 126.3 C-64.2 120.5 -64.2 120.5 -65.4 119.3 C-65.7 116.7 -65.9 114.2 -66.0 111.6 C-66.4 109.3 -66.4 109.3 -68.4 107.3 C-68.7 105.4 -68.7 105.4 -68.7 103.1 C-68.7 102.3 -68.7 101.4 -68.7 100.5 C-68.7 99.6 -68.7 98.7 -68.7 97.7 C-68.7 96.8 -68.7 95.8 -68.7 94.9 C-68.7 92.9 -68.7 90.9 -68.7 88.8 C-68.7 85.8 -68.7 82.7 -68.7 79.6 C-68.7 77.7 -68.7 75.7 -68.7 73.8 C-68.7 73.3 -68.7 73.3 -68.7 71.0 C-68.7 70.1 -68.7 69.3 -68.7 68.4 C-68.7 67.6 -68.7 66.9 -68.7 66.1 C-68.4 64.3 -68.4 64.3 -66.4 62.3 C-66.1 59.9 -66.1 59.9 -65.9 57.3 C-65.6 52.5 -65.6 52.5 -63.4 50.3 C-62.7 48.6 -62.1 46.9 -61.4 45.3 C-59.5 41.1 -57.6 38.5 -54.4 35.3 C-54.2 34.6 -54.0 33.8 -53.8 33.1 C-51.7 28.8 -48.5 25.9 -45.1 22.6 C-44.4 21.9 -43.8 21.2 -43.1 20.5 C-39.7 17.2 -37.1 14.7 -32.4 13.3 C-31.8 12.6 -31.1 11.9 -30.4 11.3 C-28.2 9.0 -26.3 8.3 -23.4 7.3 C-23.1 6.9 -22.8 6.6 -22.4 6.3 C-21.3 6.1 -20.1 6.0 -19.0 5.8 C-15.4 5.3 -15.4 5.3 -13.4 3.3 C-12.3 3.1 -12.3 3.1 -6.4 2.3 C-4.0 -0.2 -3.3 0.0 0 0 Z M5.6 35.3 C3.2 35.6 0.9 35.9 -1.4 36.3 C-2.1 36.9 -2.7 37.6 -3.4 38.3 C-3.8 38.4 -3.8 38.4 -5.7 39.0 C-9.4 40.7 -11.8 43.2 -14.6 46.1 C-15.1 46.6 -15.7 47.1 -16.2 47.7 C-19.2 50.7 -21.2 53.1 -22.4 57.3 C-24.2 62.1 -24.2 62.1 -26.4 63.3 C-26.4 64.2 -26.4 65.2 -26.4 66.3 C2.0 66.3 30.3 66.3 59.6 66.3 C59.9 64.6 60.2 63.0 60.6 61.3 C60.1 61.1 60.1 61.1 57.6 60.3 C57.6 59.5 57.7 58.7 57.7 57.9 C57.6 55.3 57.6 55.3 55.6 53.3 C55.3 52.5 55.0 51.7 54.7 50.9 C53.4 47.8 51.7 46.0 49.3 43.6 C48.5 42.8 47.8 42.0 47.0 41.2 C44.6 39.2 42.5 38.3 39.6 37.3 C39.4 37.1 39.4 37.1 38.6 36.3 C37.4 36.1 36.3 36.0 35.1 35.8 C31.6 35.3 31.6 35.3 29.6 33.3 C27.4 33 27.4 33 24.6 33.0 C23.7 33.0 22.7 33.0 21.7 33.0 C20.7 33.0 19.6 33.0 18.6 33.0 C17.6 33.0 16.5 33.0 15.5 33.0 C14.5 33.0 13.5 33.0 12.5 33.0 C12.1 33.0 12.1 33.0 9.8 33 C7.6 33.3 7.6 33.3 5.6 35.3 Z " fill="#E30412" transform="translate(266.4,68.7)"/>
<path d="M0 0 C0.5 -0.0 0.5 -0.0 3.0 -0.0 C3.5 -0.0 3.5 -0.0 6.2 -0.0 C7.2 -0.0 8.3 -0.0 9.4 -0.0 C11.7 -0.0 14.0 -0.0 16.3 -0.0 C19.8 0.0 23.3 -0.0 26.8 -0.0 C29.0 -0.0 31.2 -0.0 33.5 -0.0 C34.5 -0.0 35.6 -0.0 36.7 -0.0 C37.6 -0.0 38.6 -0.0 39.6 0 C40.5 0.0 41.3 0.0 42.2 0.0 C44.3 0.3 44.3 0.3 46.3 2.3 C47.5 2.4 48.6 2.6 49.8 2.8 C53.3 3.3 53.3 3.3 55.3 5.3 C56.4 5.4 57.5 5.5 58.6 5.6 C63.1 6.4 64.3 8.0 67.3 11.3 C67.7 11.4 67.7 11.4 69.7 12.2 C72.7 13.4 74.4 14.9 76.7 17.2 C77.4 18.0 78.2 18.8 79.0 19.6 C79.9 20.4 80.7 21.2 81.5 22.1 C82.3 22.9 83.1 23.7 84.0 24.5 C84.4 24.9 84.4 24.9 86.3 26.9 C87.1 27.6 87.8 28.3 88.5 29.1 C90.4 31.4 91.3 33.4 92.3 36.3 C95.1 42.0 95.1 42.0 96.3 43.3 C96.4 43.8 96.4 43.8 96.7 46.7 C97.3 50.3 97.3 50.3 99.3 52.3 C99.6 54.1 99.6 54.1 99.6 56.4 C99.6 57.3 99.6 58.1 99.6 59.0 C99.6 59.5 99.6 59.5 99.6 61.8 C99.6 62.7 99.6 63.7 99.6 64.7 C99.6 66.7 99.6 68.7 99.6 70.7 C99.6 73.7 99.6 76.8 99.6 79.9 C99.6 81.8 99.6 83.8 99.6 85.7 C99.6 86.7 99.6 87.6 99.6 88.5 C99.6 89.0 99.6 89.0 99.6 91.1 C99.6 91.9 99.6 92.6 99.6 93.4 C99.3 95.3 99.3 95.3 97.3 97.3 C97.1 98.4 97.0 99.6 96.8 100.8 C96.3 104.3 96.3 104.3 94.3 106.3 C94.1 107.4 94.0 108.6 93.8 109.8 C93.3 113.3 93.3 113.3 91.3 115.3 C90.6 116.9 90.0 118.6 89.3 120.3 C87.4 124.4 85.5 127.1 82.3 130.3 C82.2 130.6 82.2 130.6 81.6 132.4 C79.6 136.7 76.4 139.6 73.0 142.9 C72.3 143.6 71.7 144.3 71.0 145.0 C67.6 148.4 64.9 150.8 60.3 152.3 C59.6 152.9 59.0 153.6 58.3 154.3 C56.1 156.5 54.2 157.1 51.3 158.3 C50.7 158.9 50.1 159.6 49.4 160.3 C46.6 162.9 44.1 162.8 40.3 163.3 C39.6 163.9 39.0 164.6 38.3 165.3 C36.6 165.9 35.0 166.6 33.3 167.3 C33.0 167.6 32.6 167.9 32.3 168.3 C29.8 168.5 27.2 168.7 24.7 168.9 C22.3 169.3 22.3 169.3 20.3 171.3 C18.4 171.5 18.4 171.5 16.0 171.6 C15.2 171.6 14.3 171.7 13.5 171.7 C11.7 171.7 9.9 171.8 8.1 171.8 C7.3 171.9 6.5 171.9 5.6 171.9 C4.8 171.9 4.0 172.0 3.2 172.0 C1.3 172.3 1.3 172.3 -0.7 174.3 C-3.7 174.5 -3.7 174.5 -7.2 174.5 C-8.4 174.5 -9.5 174.5 -10.7 174.5 C-13.7 174.3 -13.7 174.3 -15.7 172.3 C-18.4 172.0 -21.0 171.8 -23.7 171.8 C-31.4 171.5 -31.4 171.5 -33.7 169.3 C-35.4 168.6 -37.0 167.9 -38.7 167.3 C-39.0 166.9 -39.4 166.6 -39.7 166.3 C-40.8 166.2 -41.8 166.1 -42.9 166.0 C-47.4 165.1 -48.6 163.6 -51.7 160.3 C-52.5 160.0 -53.2 159.7 -54.0 159.4 C-57.3 158.0 -59.2 156.2 -61.7 153.6 C-62.2 153.2 -62.2 153.2 -64.5 150.9 C-64.7 150.6 -64.7 150.6 -65.9 149.4 C-67.4 148.0 -68.8 146.5 -70.3 145.1 C-71.2 144.1 -72.1 143.2 -73.1 142.3 C-73.9 141.4 -74.8 140.6 -75.6 139.7 C-77.7 137.3 -78.7 135.3 -79.7 132.3 C-80.0 131.9 -80.4 131.6 -80.7 131.3 C-80.8 130.1 -81.0 129.0 -81.1 127.8 C-81.7 124.3 -81.7 124.3 -83.7 122.3 C-84.0 119.9 -84.4 117.6 -84.7 115.3 C-85.4 114.6 -86.0 113.9 -86.7 113.3 C-87.0 110.8 -87.0 110.8 -87.0 107.7 C-87.0 106.6 -87.0 105.4 -87.0 104.3 C-87.0 103.7 -87.0 103.7 -86.9 100.8 C-87.0 99.6 -87.0 98.4 -87.0 97.2 C-87.0 96.1 -87.0 95.0 -87.0 93.9 C-87.0 92.8 -87.0 91.8 -87.0 90.7 C-86.7 88.3 -86.7 88.3 -84.7 86.3 C-84.4 84.1 -84.3 81.9 -84.2 79.8 C-83.9 73.5 -83.9 73.5 -81.7 71.3 C-81.5 70.1 -81.4 68.9 -81.2 67.8 C-80.7 64.3 -80.7 64.3 -78.7 62.3 C-78.5 61.1 -78.4 59.9 -78.2 58.8 C-77.7 55.3 -77.7 55.3 -75.7 53.3 C-75.4 52.5 -75.1 51.7 -74.8 50.9 C-73.6 47.9 -71.9 46.5 -69.7 44.3 C-69.4 43.5 -69.1 42.7 -68.9 41.9 C-67.4 38.7 -65.6 36.8 -63.1 34.2 C-62.2 33.3 -61.2 32.4 -60.3 31.5 C-59.8 31.0 -59.3 30.5 -58.8 30.0 C-57.4 28.6 -55.9 27.1 -54.5 25.7 C-53.6 24.7 -52.7 23.8 -51.7 22.9 C-50.9 22.0 -50.0 21.2 -49.2 20.3 C-46.7 18.3 -44.7 17.3 -41.7 16.3 C-41.0 15.6 -40.4 14.9 -39.7 14.3 C-37.4 12.0 -35.7 11.3 -32.7 10.3 C-26.9 7.5 -26.9 7.5 -25.7 6.3 C-24.6 6.1 -23.4 6.0 -22.3 5.8 C-18.7 5.3 -18.7 5.3 -16.7 3.3 C-14.1 2.9 -11.6 2.8 -9.0 2.6 C-5.3 2.0 -4.2 0.0 0 0 Z M-3.7 47.3 C-5.4 47.9 -7.0 48.6 -8.7 49.3 C-14.4 51.6 -18.2 55.3 -22.4 59.6 C-23.1 60.3 -23.8 61.0 -24.5 61.6 C-27.8 65.0 -30.3 67.6 -31.7 72.3 C-32.0 72.6 -32.4 72.9 -32.7 73.3 C-32.8 73.8 -32.8 73.8 -33.1 76.7 C-33.7 80.3 -33.7 80.3 -35.7 82.3 C-35.9 85.0 -36.0 87.6 -35.9 90.3 C-36.0 91.0 -36.0 91.7 -36.0 92.5 C-35.9 98.0 -35.9 98.0 -33.7 100.3 C-33.4 102.6 -33.0 104.9 -32.7 107.3 C-32.0 107.9 -31.4 108.6 -30.7 109.3 C-30.4 110.0 -30.2 110.7 -29.9 111.5 C-27.9 116.0 -24.7 119.3 -20.2 121.4 C-19.4 121.7 -18.5 122.0 -17.7 122.3 C-11.9 125.0 -11.9 125.0 -10.7 126.3 C-6.6 126.5 -2.4 126.4 1.7 126.4 C2.9 126.5 4.1 126.5 5.3 126.5 C6.4 126.5 7.5 126.5 8.7 126.5 C9.7 126.5 10.7 126.5 11.8 126.5 C14.3 126.3 14.3 126.3 16.3 124.3 C17.4 124.2 18.5 124.1 19.6 123.9 C24.1 123.1 25.3 121.5 28.3 118.3 C29.1 117.9 29.9 117.6 30.7 117.3 C35.2 115.5 38.5 112.1 40.4 107.6 C40.7 106.9 41.0 106.1 41.3 105.3 C42.0 104.6 42.7 104.0 43.4 103.4 C46.0 100.5 45.9 98.0 46.3 94.3 C46.6 93.9 46.6 93.9 48.3 92.3 C48.6 89.8 48.6 89.8 48.6 86.7 C48.6 85.6 48.6 84.4 48.6 83.3 C48.6 82.7 48.6 82.7 48.6 79.8 C48.6 78.6 48.6 77.4 48.6 76.2 C48.6 75.1 48.6 74.0 48.6 72.9 C48.6 72.3 48.6 72.3 48.6 69.7 C48.3 67.3 48.3 67.3 46.3 65.3 C46.1 64.5 45.8 63.8 45.5 63.0 C43.9 59.3 41.4 56.9 38.5 54.1 C38.0 53.5 37.5 53.0 36.9 52.5 C33.9 49.5 31.4 47.6 27.3 46.3 C27.1 46.1 27.1 46.1 26.3 45.3 C21.7 45.0 17.0 45.1 12.4 45.1 C11.7 45.1 11.7 45.1 8.4 45.0 C7.1 45.0 5.9 45.0 4.6 45.0 C3.4 45.0 2.3 45.0 1.1 45.0 C-1.7 45.3 -1.7 45.3 -3.7 47.3 Z " fill="#E30412" transform="translate(590.7,68.7)"/>
<path d="M0 0 C0.9 -0.0 1.7 -0.0 2.6 -0.0 C3.5 -0.0 4.4 -0.0 5.4 -0.0 C5.9 -0.0 5.9 -0.0 8.3 -0.0 C10.3 -0.0 12.3 -0.0 14.3 -0.0 C17.3 0.0 20.4 -0.0 23.5 -0.0 C25.4 -0.0 27.4 -0.0 29.3 -0.0 C30.3 -0.0 31.2 -0.0 32.1 -0.0 C33.0 -0.0 33.8 -0.0 34.7 0 C35.5 0.0 36.2 0.0 37.0 0.0 C38.9 0.3 38.9 0.3 40.9 2.3 C42.5 2.9 44.2 3.6 45.9 4.3 C51.8 6.8 55.2 10.5 59.5 15.2 C61.9 17.3 61.9 17.3 65.9 17.3 C65.9 16.3 66.0 15.4 66.0 14.5 C66.1 13.3 66.2 12.1 66.3 10.8 C66.3 10.2 66.3 10.2 66.5 7.2 C66.9 4.3 66.9 4.3 67.9 3.3 C69.4 3.2 70.9 3.1 72.5 3.1 C73.4 3.1 74.4 3.1 75.4 3.1 C76.5 3.2 77.6 3.2 78.7 3.2 C79.2 3.2 79.2 3.2 82.0 3.2 C85.5 3.2 88.9 3.2 92.4 3.2 C94.8 3.2 97.1 3.2 99.5 3.2 C105.3 3.2 111.1 3.2 116.9 3.3 C117.2 4.9 117.5 6.6 117.9 8.3 C116.9 8.6 115.9 8.9 114.9 9.3 C114.9 10.0 114.9 10.8 114.9 11.6 C114.9 12.6 115.0 13.6 115.0 14.6 C115.0 15.6 115.0 16.6 115.1 17.7 C114.9 20.3 114.9 20.3 112.9 22.3 C112.5 24.6 112.5 24.6 112.4 27.3 C112.1 32.0 112.1 32.0 109.9 34.3 C109.6 36.4 109.5 38.6 109.4 40.8 C109.1 47.0 109.1 47.0 106.9 49.3 C106.5 51.6 106.5 51.6 106.4 54.3 C106.1 59.0 106.1 59.0 103.9 61.3 C103.5 63.6 103.5 63.6 103.4 66.3 C103.1 71.0 103.1 71.0 100.9 73.3 C100.6 75.4 100.5 77.6 100.4 79.8 C100.1 86.0 100.1 86.0 97.9 88.3 C97.5 90.6 97.5 90.6 97.4 93.3 C97.1 98.0 97.1 98.0 94.9 100.3 C94.5 102.6 94.5 102.6 94.4 105.3 C94.1 110.0 94.1 110.0 91.9 112.3 C91.6 114.4 91.5 116.6 91.4 118.8 C91.1 125.0 91.1 125.0 88.9 127.3 C88.5 129.6 88.5 129.6 88.4 132.3 C88.1 137.0 88.1 137.0 85.9 139.3 C85.5 141.6 85.5 141.6 85.4 144.3 C85.1 149.0 85.1 149.0 82.9 151.3 C82.5 153.6 82.5 153.6 82.4 156.3 C82.1 161.0 82.1 161.0 79.9 163.3 C79.5 165.6 79.5 165.6 79.4 168.3 C79.1 173.0 79.1 173.0 76.9 175.3 C76.7 176.4 76.5 177.6 76.4 178.8 C75.9 182.3 75.9 182.3 73.9 184.3 C73.2 185.9 72.5 187.6 71.9 189.3 C70.9 191.3 69.9 193.3 68.9 195.3 C68.4 196.2 67.9 197.2 67.4 198.3 C66.9 199.2 66.4 200.2 65.9 201.3 C65.5 202.1 65.2 203.0 64.8 203.9 C62.0 208.8 58.0 212.5 54.0 216.5 C53.2 217.3 52.4 218.1 51.5 219.0 C50.8 219.8 50.0 220.5 49.2 221.3 C48.5 222.0 47.8 222.7 47.0 223.5 C44.7 225.4 42.6 226.2 39.9 227.3 C39.2 227.9 38.5 228.6 37.9 229.3 C35.6 231.5 33.8 232.2 30.9 233.3 C30.5 233.6 30.2 233.9 29.9 234.3 C28.7 234.4 27.6 234.5 26.4 234.7 C22.9 235.3 22.9 235.3 20.9 237.3 C18.3 237.5 18.3 237.5 15.2 237.4 C14.2 237.4 13.2 237.3 12.2 237.3 C11.4 237.3 10.7 237.3 9.9 237.3 C9.9 238.2 9.9 239.2 9.9 240.3 C-9.0 240.3 -27.8 240.3 -47.1 240.3 C-47.1 239.3 -47.1 238.3 -47.1 237.3 C-48.4 237.3 -49.7 237.3 -51.0 237.4 C-53.2 237.5 -53.2 237.5 -55.1 237.3 C-55.5 236.9 -55.5 236.9 -57.1 235.3 C-58.8 234.6 -60.5 233.9 -62.1 233.3 C-67.9 230.9 -71.6 227.2 -75.9 222.9 C-76.2 222.6 -76.2 222.6 -77.9 220.9 C-81.2 217.5 -83.8 214.9 -85.1 210.3 C-85.5 209.9 -85.8 209.6 -86.1 209.3 C-86.3 208.1 -86.4 207.0 -86.6 205.8 C-87.1 202.3 -87.1 202.3 -89.1 200.3 C-89.4 197.3 -89.4 197.3 -89.3 193.7 C-89.3 193.1 -89.3 193.1 -89.3 190.1 C-89.1 187.3 -89.1 187.3 -88.1 186.3 C-87.6 186.2 -87.6 186.2 -84.7 185.8 C-81.1 185.3 -81.1 185.3 -79.1 183.3 C-75.8 182.9 -72.5 182.8 -69.1 182.6 C-66.1 182.3 -66.1 182.3 -64.1 180.3 C-60.8 179.9 -57.5 179.8 -54.1 179.6 C-51.1 179.3 -51.1 179.3 -49.1 177.3 C-45.6 177.1 -45.6 177.1 -42.1 177.3 C-41.1 178.3 -41.1 178.3 -40.7 181.7 C-40.1 185.3 -40.1 185.3 -38.1 187.3 C-38.1 188.3 -38.0 189.4 -37.9 190.5 C-36.9 195.3 -35.0 197.4 -31.1 200.3 C-28.3 201.6 -28.3 201.6 -26.1 202.3 C-25.8 202.6 -25.5 202.9 -25.1 203.3 C-21.5 203.5 -17.9 203.4 -14.2 203.4 C-13.2 203.5 -12.1 203.5 -11.1 203.5 C-10.1 203.5 -9.1 203.5 -8.1 203.5 C-7.2 203.5 -6.3 203.5 -5.4 203.5 C-3.1 203.3 -3.1 203.3 -1.1 201.3 C1.2 200.9 3.5 200.6 5.9 200.3 C6.5 199.6 7.2 198.9 7.9 198.3 C8.6 198.0 9.4 197.7 10.2 197.4 C13.2 196.1 14.8 194.7 17.0 192.4 C17.7 191.8 18.4 191.1 19.1 190.4 C21.0 188.1 21.9 186.1 22.9 183.3 C23.8 181.3 24.8 179.3 25.9 177.3 C26.1 176.7 26.1 176.7 27.5 173.9 C28.9 171.3 28.9 171.3 29.9 170.3 C30.1 167.7 30.3 165.2 30.5 162.6 C30.9 160.3 30.9 160.3 32.9 158.3 C33.3 155.9 33.6 153.6 33.9 151.3 C34.8 150.9 35.8 150.6 36.9 150.3 C36.9 149.3 36.9 148.3 36.9 147.3 C31.8 148.6 29.3 150.4 25.8 154.3 C22.6 157.7 20.3 159.8 15.9 161.3 C15.5 161.6 15.2 161.9 14.9 162.3 C13.7 162.4 12.6 162.5 11.4 162.7 C7.9 163.3 7.9 163.3 5.9 165.3 C2.8 165.5 2.8 165.5 -1.0 165.5 C-1.4 165.5 -1.4 165.5 -3.1 165.5 C-4.6 165.5 -6.0 165.5 -7.4 165.5 C-9.6 165.5 -11.8 165.5 -14.0 165.5 C-15.4 165.5 -16.8 165.5 -18.2 165.5 C-19.5 165.5 -20.8 165.5 -22.1 165.5 C-25.1 165.3 -25.1 165.3 -27.1 163.3 C-28.3 163.1 -29.5 162.9 -30.6 162.8 C-34.1 162.3 -34.1 162.3 -36.1 160.3 C-36.7 160.2 -36.7 160.2 -39.5 159.9 C-43.9 159.1 -45.1 157.5 -48.1 154.3 C-48.9 154.0 -49.6 153.7 -50.4 153.5 C-54.1 151.8 -56.5 149.3 -59.3 146.4 C-59.6 146.2 -59.6 146.2 -60.9 144.9 C-63.9 141.8 -65.8 139.4 -67.1 135.3 C-68.1 133.3 -69.1 131.3 -70.1 129.3 C-70.4 128.7 -70.4 128.7 -71.8 125.9 C-73.1 123.3 -73.1 123.3 -74.1 122.3 C-74.4 119.7 -74.6 117.2 -74.8 114.6 C-75.1 112.3 -75.1 112.3 -77.1 110.3 C-77.4 107.5 -77.4 107.5 -77.4 104.0 C-77.4 103.4 -77.4 103.4 -77.4 100.2 C-77.4 98.9 -77.4 97.6 -77.4 96.3 C-77.4 94.9 -77.4 93.6 -77.4 92.3 C-77.4 91.0 -77.4 89.8 -77.4 88.5 C-77.4 87.4 -77.4 86.2 -77.4 85.0 C-77.1 82.3 -77.1 82.3 -75.1 80.3 C-74.9 78.1 -74.7 75.9 -74.6 73.8 C-74.4 67.5 -74.4 67.5 -72.1 65.3 C-72.0 64.1 -71.8 62.9 -71.6 61.8 C-71.1 58.3 -71.1 58.3 -69.1 56.3 C-68.5 54.6 -67.8 52.9 -67.1 51.3 C-65.3 47.1 -63.3 44.5 -60.1 41.3 C-59.9 40.5 -59.6 39.7 -59.3 39.0 C-57.9 35.7 -56.1 33.8 -53.5 31.2 C-52.6 30.3 -51.7 29.4 -50.7 28.5 C-50.3 28.0 -49.8 27.5 -49.3 27.0 C-47.8 25.6 -46.4 24.1 -44.9 22.7 C-44.0 21.7 -43.1 20.8 -42.2 19.9 C-41.3 19.0 -40.5 18.2 -39.6 17.3 C-37.1 15.3 -35.1 14.3 -32.1 13.3 C-31.5 12.6 -30.8 11.9 -30.1 11.3 C-27.9 9.0 -26.1 8.3 -23.1 7.3 C-22.8 6.9 -22.5 6.6 -22.1 6.3 C-21.0 6.1 -19.9 6.0 -18.7 5.8 C-15.1 5.3 -15.1 5.3 -13.1 3.3 C-10.8 2.9 -8.5 2.6 -6.1 2.3 C-3.8 -0.1 -3.3 0.0 0 0 Z M5.9 44.3 C3.5 44.6 1.2 44.9 -1.1 45.3 C-1.8 45.9 -2.5 46.6 -3.1 47.3 C-3.5 47.4 -3.5 47.4 -5.5 48.1 C-8.6 49.5 -10.4 51.1 -12.8 53.6 C-13.6 54.3 -14.4 55.1 -15.2 55.9 C-17.2 58.3 -18.1 60.3 -19.1 63.3 C-19.8 63.9 -20.5 64.5 -21.2 65.1 C-23.8 68.0 -23.7 70.5 -24.1 74.3 C-24.8 74.9 -25.5 75.6 -26.1 76.3 C-26.4 78.7 -26.4 78.7 -26.4 81.9 C-26.4 83.0 -26.4 84.1 -26.4 85.2 C-26.4 86.4 -26.4 87.6 -26.4 88.8 C-26.4 89.9 -26.4 91.1 -26.4 92.3 C-26.4 93.4 -26.4 94.5 -26.4 95.7 C-26.4 96.7 -26.4 97.7 -26.4 98.8 C-26.1 101.3 -26.1 101.3 -24.1 103.3 C-24.0 103.6 -24.0 103.6 -23.4 105.5 C-21.7 109.2 -19.3 111.6 -16.5 114.5 C-16.0 115.1 -15.4 115.6 -14.9 116.1 C-11.2 119.9 -8.6 120.8 -3.1 121.3 C-2.5 121.9 -1.8 122.6 -1.1 123.3 C1.8 123.5 1.8 123.5 5.4 123.5 C6.5 123.5 7.7 123.5 8.9 123.5 C11.9 123.3 11.9 123.3 13.9 121.3 C16.2 120.9 18.5 120.6 20.9 120.3 C21.5 119.6 22.2 118.9 22.9 118.3 C23.6 118.0 24.3 117.8 25.0 117.6 C29.3 115.6 32.2 112.3 35.5 108.9 C36.2 108.3 36.9 107.6 37.6 106.9 C40.9 103.6 43.5 100.9 44.9 96.3 C45.2 95.9 45.5 95.6 45.9 95.3 C46.0 94.1 46.1 93.0 46.3 91.8 C46.9 88.3 46.9 88.3 48.9 86.3 C49.1 83.8 49.1 83.8 49.1 80.7 C49.1 79.6 49.1 78.4 49.1 77.3 C49.1 76.7 49.1 76.7 49.1 73.8 C49.1 72.6 49.1 71.4 49.1 70.2 C49.1 69.1 49.1 68.0 49.1 66.9 C49.1 66.3 49.1 66.3 49.1 63.7 C48.9 61.3 48.9 61.3 46.9 59.3 C46.7 58.9 46.7 58.9 46.0 56.9 C44.7 53.8 43.0 52.0 40.5 49.6 C39.8 48.8 39.0 48.0 38.2 47.2 C35.8 45.2 33.8 44.3 30.9 43.3 C30.7 43.1 30.7 43.1 29.9 42.3 C26.2 42.0 22.6 42.1 18.9 42.1 C17.9 42.1 16.9 42.0 15.8 42.0 C14.8 42.0 13.8 42.0 12.8 42.0 C11.9 42.0 11.0 42.0 10.1 42.0 C7.9 42.3 7.9 42.3 5.9 44.3 Z " fill="#E30412" transform="translate(773.1,68.7)"/>
<path d="M0 0 C0.5 -0.0 0.5 -0.0 3.0 -0.0 C3.5 -0.0 3.5 -0.0 6.2 -0.0 C7.2 -0.0 8.3 -0.0 9.4 -0.0 C11.7 -0.0 14.0 -0.0 16.3 -0.0 C19.8 0.0 23.3 -0.0 26.8 -0.0 C29.0 -0.0 31.2 -0.0 33.5 -0.0 C34.5 -0.0 35.6 -0.0 36.7 -0.0 C37.6 -0.0 38.6 -0.0 39.6 0 C40.5 0.0 41.3 0.0 42.2 0.0 C44.3 0.3 44.3 0.3 46.3 2.3 C47.5 2.4 48.6 2.6 49.8 2.8 C53.3 3.3 53.3 3.3 55.3 5.3 C57.0 5.9 58.6 6.6 60.3 7.3 C62.3 8.2 64.3 9.2 66.3 10.3 C66.8 10.4 66.8 10.4 69.1 11.4 C75.5 15.2 80.7 20.2 83.3 27.3 C83.6 27.6 83.6 27.6 85.3 29.3 C87.5 31.5 88.3 33.3 89.3 36.3 C89.6 36.6 90.0 36.9 90.3 37.3 C90.6 39.8 90.8 42.4 90.9 44.9 C91.3 47.3 91.3 47.3 93.3 49.3 C93.6 52.0 93.6 52.0 93.6 55.5 C93.6 56.8 93.6 58.0 93.6 59.3 C93.6 60.6 93.6 61.9 93.6 63.3 C93.6 64.6 93.6 65.9 93.6 67.2 C93.6 68.5 93.6 69.7 93.6 71.0 C93.6 72.2 93.6 73.3 93.6 74.5 C93.3 77.3 93.3 77.3 91.3 79.3 C91.0 81.6 91.0 81.6 90.8 84.3 C90.5 89.0 90.5 89.0 88.3 91.3 C87.6 92.9 87.0 94.6 86.3 96.3 C66.3 96.4 66.3 96.4 -34.7 97.3 C-34.7 101.5 -34.7 105.8 -34.7 110.3 C-34.4 110.6 -34.4 110.6 -32.7 112.3 C-32.4 113.0 -32.2 113.8 -31.9 114.5 C-30.4 118.0 -28.1 120.4 -25.5 123.0 C-25.0 123.5 -24.6 124.0 -24.1 124.5 C-20.5 128.2 -17.7 128.8 -12.7 129.3 C-12.0 129.9 -11.4 130.6 -10.7 131.3 C-8.5 131.5 -8.5 131.5 -5.8 131.5 C-4.8 131.5 -3.8 131.5 -2.8 131.5 C-1.8 131.5 -0.7 131.5 0.3 131.5 C1.3 131.5 2.4 131.5 3.4 131.5 C3.9 131.5 3.9 131.5 6.4 131.5 C6.8 131.5 6.8 131.5 9.1 131.5 C11.3 131.3 11.3 131.3 13.3 129.3 C15.6 128.9 18.0 128.6 20.3 128.3 C21.0 127.6 21.6 126.9 22.3 126.3 C23.1 126.0 23.9 125.7 24.7 125.4 C27.7 124.1 29.3 122.6 31.6 120.3 C32.2 119.6 32.9 118.9 33.6 118.1 C35.3 116.3 35.3 116.3 36.3 114.3 C37.3 114.3 38.3 114.3 39.3 114.3 C39.6 114.9 40.0 115.6 40.3 116.3 C43.2 116.6 43.2 116.6 46.7 116.8 C53.1 117.0 53.1 117.0 55.3 119.3 C58.0 119.5 60.6 119.7 63.3 119.8 C71.0 120.0 71.0 120.0 73.3 122.3 C75.9 122.9 75.9 122.9 78.3 123.3 C78.3 124.2 78.3 125.2 78.3 126.3 C78.0 126.4 78.0 126.4 76.3 127.3 C76.0 128.0 75.7 128.8 75.4 129.6 C74.2 132.6 72.6 134.0 70.3 136.3 C70.2 136.6 70.2 136.6 69.6 138.4 C67.6 142.7 64.4 145.6 61.0 148.9 C60.3 149.6 59.7 150.3 59.0 151.0 C55.6 154.4 52.9 156.8 48.3 158.3 C47.6 158.9 47.0 159.6 46.3 160.3 C44.0 162.5 42.3 163.2 39.3 164.3 C33.5 167.0 33.5 167.0 32.3 168.3 C29.8 168.5 27.2 168.7 24.7 168.9 C22.3 169.3 22.3 169.3 20.3 171.3 C18.4 171.5 18.4 171.5 16.0 171.6 C15.2 171.6 14.3 171.7 13.5 171.7 C11.7 171.7 9.9 171.8 8.1 171.8 C7.3 171.9 6.5 171.9 5.6 171.9 C4.8 171.9 4.0 172.0 3.2 172.0 C1.3 172.3 1.3 172.3 -0.7 174.3 C-3.7 174.5 -3.7 174.5 -7.2 174.5 C-8.4 174.5 -9.5 174.5 -10.7 174.5 C-13.7 174.3 -13.7 174.3 -15.7 172.3 C-18.4 172.0 -21.0 171.8 -23.7 171.8 C-31.4 171.5 -31.4 171.5 -33.7 169.3 C-35.4 168.6 -37.0 167.9 -38.7 167.3 C-39.0 166.9 -39.4 166.6 -39.7 166.3 C-40.8 166.2 -41.8 166.1 -42.9 166.0 C-47.4 165.1 -48.6 163.6 -51.7 160.3 C-52.1 160.1 -52.1 160.1 -54.0 159.5 C-57.7 157.8 -60.1 155.3 -62.9 152.4 C-63.1 152.2 -63.1 152.2 -64.5 150.9 C-67.5 147.8 -69.4 145.4 -70.7 141.3 C-71.7 139.3 -72.7 137.3 -73.7 135.3 C-74.2 134.2 -74.8 133.1 -75.3 131.9 C-76.7 129.3 -76.7 129.3 -77.7 128.3 C-77.8 127.7 -77.8 127.7 -78.1 124.8 C-78.7 121.3 -78.7 121.3 -80.7 119.3 C-80.9 116.3 -81.0 113.4 -81.0 110.4 C-81.0 109.5 -81.0 108.6 -81.0 107.7 C-81.0 105.9 -81.0 104.0 -81.0 102.1 C-80.9 99.3 -81.0 96.4 -81.0 93.6 C-81.0 91.7 -81.0 89.9 -81.0 88.1 C-81.0 87.3 -81.0 86.4 -81.0 85.5 C-80.9 79.5 -80.9 79.5 -78.7 77.3 C-78.3 74.9 -78.3 74.9 -78.2 72.3 C-77.9 67.5 -77.9 67.5 -75.7 65.3 C-75.5 64.1 -75.4 62.9 -75.2 61.8 C-74.7 58.3 -74.7 58.3 -72.7 56.3 C-72.4 55.5 -72.1 54.7 -71.8 53.9 C-70.6 50.9 -68.9 49.5 -66.7 47.3 C-66.4 46.4 -66.0 45.6 -65.7 44.8 C-64.5 41.8 -62.9 40.5 -60.7 38.3 C-60.4 37.5 -60.2 36.8 -59.9 36.0 C-58.3 32.3 -55.8 29.9 -52.9 27.1 C-52.4 26.5 -51.8 26.0 -51.3 25.5 C-48.2 22.4 -45.8 20.8 -41.7 19.3 C-39.8 17.6 -39.8 17.6 -38.2 15.8 C-35.5 12.9 -33.5 11.4 -29.7 10.3 C-23.9 7.5 -23.9 7.5 -22.7 6.3 C-21.6 6.1 -20.4 6.0 -19.3 5.8 C-15.7 5.3 -15.7 5.3 -13.7 3.3 C-11.4 2.9 -9.0 2.6 -6.7 2.3 C-4.2 -0.2 -3.4 0.0 0 0 Z M5.3 35.3 C4.1 35.4 4.1 35.4 -1.7 36.3 C-2.4 36.9 -3.0 37.6 -3.7 38.3 C-5.4 38.9 -7.0 39.6 -8.7 40.3 C-13.8 42.5 -17.2 45.3 -21.1 49.1 C-21.3 49.4 -21.3 49.4 -22.7 50.7 C-25.2 53.2 -26.6 54.6 -27.0 58.1 C-26.9 58.8 -26.8 59.5 -26.7 60.3 C-27.7 60.6 -28.7 60.9 -29.7 61.3 C-29.4 62.9 -29.0 64.6 -28.7 66.3 C-18.0 66.3 -7.3 66.3 3.3 66.3 C8.3 66.3 13.2 66.3 18.2 66.3 C23.0 66.3 27.8 66.4 32.5 66.4 C34.4 66.4 36.2 66.4 38.0 66.4 C40.6 66.4 43.1 66.4 45.7 66.4 C46.4 66.4 47.2 66.4 48.0 66.4 C53.2 66.4 53.2 66.4 54.3 65.3 C54.4 63.6 54.5 62.0 54.5 60.3 C54.5 59.4 54.5 58.5 54.5 57.6 C54.3 55.3 54.3 55.3 52.3 53.3 C52.2 52.9 52.2 52.9 51.5 51.0 C49.0 45.2 43.5 39.9 38.3 36.3 C35.4 35.3 33.3 35.1 30.3 35.3 C29.6 35.3 29.0 35.3 28.3 35.3 C27.6 34.6 27.0 33.9 26.3 33.3 C24.4 33 24.4 33 22.0 33.0 C21.2 33.0 20.3 33.0 19.5 33.0 C18.6 33.0 17.7 33.0 16.8 33.0 C16.4 33.0 16.4 33.0 14.1 33.0 C13.3 33.0 12.5 33.0 11.6 33.0 C11.2 33.0 11.2 33.0 9.2 33 C7.3 33.3 7.3 33.3 5.3 35.3 Z " fill="#E30412" transform="translate(959.7,68.7)"/>
<path d="M0 0 C1.3 0.0 2.7 0.0 4.0 0.0 C4.4 0.0 4.4 0.0 6.2 0.0 C8.5 0.0 10.7 0.0 13.0 0.1 C14.5 0.1 16.1 0.1 17.6 0.1 C21.4 0.1 25.2 0.1 28.9 0.1 C28.9 2.1 28.9 4.1 28.9 6.1 C28.0 6.1 27.0 6.1 25.9 6.1 C26.0 7.4 26.0 8.7 26.1 10.0 C26.1 12.2 26.1 12.2 25.9 14.1 C25.3 14.8 24.6 15.4 23.9 16.1 C23.8 17.0 23.6 17.8 23.4 18.7 C23.3 19.5 23.1 20.3 22.9 21.1 C22.3 21.4 21.6 21.8 20.9 22.1 C20.6 24.4 20.3 26.8 19.9 29.1 C19.3 29.8 18.6 30.4 17.9 31.1 C17.3 32.8 16.6 34.4 15.9 36.1 C15.6 36.4 15.3 36.8 14.9 37.1 C14.8 38.3 14.6 39.4 14.4 40.6 C13.9 44.1 13.9 44.1 12.9 45.1 C10.9 45.2 8.8 45.3 6.8 45.4 C5.5 45.4 4.3 45.4 3.0 45.5 C0.3 45.5 -2.3 45.6 -5.0 45.6 C-6.2 45.7 -7.5 45.7 -8.8 45.7 C-9.9 45.8 -11.1 45.8 -12.3 45.8 C-15.1 46.1 -15.1 46.1 -17.1 48.1 C-18.7 48.8 -20.4 49.5 -22.1 50.1 C-27.9 52.4 -32.1 56.3 -36.1 61.1 C-36.7 62.8 -37.4 64.4 -38.1 66.1 C-39.4 67.4 -40.7 68.8 -42.1 70.1 C-43.2 72.8 -43.2 72.8 -44.1 75.1 C-44.4 75.4 -44.7 75.8 -45.1 76.1 C-45.2 77.2 -45.3 78.4 -45.5 79.6 C-46.1 83.1 -46.1 83.1 -48.1 85.1 C-48.2 86.3 -48.4 87.4 -48.6 88.6 C-49.1 92.1 -49.1 92.1 -51.1 94.1 C-51.3 96.3 -51.5 98.4 -51.6 100.6 C-51.8 106.9 -51.8 106.9 -54.1 109.1 C-54.4 111.4 -54.4 111.4 -54.6 114.1 C-54.8 118.9 -54.8 118.9 -57.1 121.1 C-57.4 123.4 -57.4 123.4 -57.6 126.1 C-57.8 130.9 -57.8 130.9 -60.1 133.1 C-60.3 135.3 -60.5 137.4 -60.6 139.6 C-60.8 145.9 -60.8 145.9 -63.1 148.1 C-63.4 150.4 -63.4 150.4 -63.6 153.1 C-63.8 157.9 -63.8 157.9 -66.1 160.1 C-66.4 162.4 -66.8 164.8 -67.1 167.1 C-68.1 168.1 -68.1 168.1 -70.1 168.2 C-71.0 168.2 -71.8 168.2 -72.8 168.2 C-73.8 168.2 -74.8 168.2 -75.8 168.2 C-76.9 168.2 -78.0 168.2 -79.1 168.2 C-80.2 168.2 -81.3 168.2 -82.4 168.2 C-86.0 168.2 -89.6 168.2 -93.1 168.2 C-95.5 168.2 -97.9 168.2 -100.3 168.2 C-106.2 168.2 -112.1 168.1 -118.1 168.1 C-118.1 167.1 -118.1 166.1 -118.1 165.1 C-117.4 164.8 -116.7 164.5 -116.1 164.1 C-115.7 161.9 -115.7 161.9 -115.6 159.2 C-115.3 154.3 -115.3 154.3 -113.1 152.1 C-112.7 149.8 -112.7 149.8 -112.6 147.1 C-112.3 142.3 -112.3 142.3 -110.1 140.1 C-109.7 137.8 -109.7 137.8 -109.6 135.1 C-109.3 130.3 -109.3 130.3 -107.1 128.1 C-106.8 126.0 -106.6 123.8 -106.6 121.6 C-106.3 115.3 -106.3 115.3 -104.1 113.1 C-103.7 110.8 -103.7 110.8 -103.6 108.1 C-103.3 103.3 -103.3 103.3 -101.1 101.1 C-100.8 99.0 -100.6 96.8 -100.6 94.6 C-100.3 88.3 -100.3 88.3 -98.1 86.1 C-97.7 83.8 -97.7 83.8 -97.6 81.1 C-97.3 76.3 -97.3 76.3 -95.1 74.1 C-94.7 71.8 -94.7 71.8 -94.6 69.1 C-94.3 64.3 -94.3 64.3 -92.1 62.1 C-91.8 60.0 -91.6 57.8 -91.6 55.6 C-91.3 49.3 -91.3 49.3 -89.1 47.1 C-88.7 44.8 -88.7 44.8 -88.6 42.1 C-88.3 37.3 -88.3 37.3 -86.1 35.1 C-85.7 32.8 -85.7 32.8 -85.6 30.1 C-85.3 25.3 -85.3 25.3 -83.1 23.1 C-82.8 21.0 -82.6 18.8 -82.6 16.6 C-82.3 10.3 -82.3 10.3 -80.1 8.1 C-79.3 6.5 -78.7 4.8 -78.1 3.1 C-71.5 3.1 -65.0 3.1 -58.5 3.1 C-56.2 3.1 -54.0 3.0 -51.8 3.0 C-48.6 3.0 -45.4 3.0 -42.2 3.0 C-41.7 3.0 -41.7 3.0 -39.2 3.0 C-38.7 3.0 -38.7 3.0 -36.4 3 C-35.6 3.0 -34.8 3.0 -33.9 3.0 C-32.1 3.1 -32.1 3.1 -31.1 4.1 C-30.9 5.8 -30.9 7.4 -30.9 9.1 C-30.8 9.9 -30.8 10.8 -30.8 11.8 C-31.1 14.1 -31.1 14.1 -33.1 16.1 C-33.5 18.1 -33.5 18.1 -33.7 20.2 C-33.7 20.9 -33.7 20.9 -34.1 24.1 C-33.1 24.1 -32.1 24.1 -31.1 24.1 C-30.8 23.5 -30.5 22.9 -30.2 22.3 C-28.2 18.6 -25.2 15.9 -22.2 13.0 C-21.6 12.4 -21.0 11.7 -20.4 11.1 C-17.1 7.8 -14.6 5.4 -10.1 4.1 C-1.6 0.1 -1.6 0.1 0 0 Z " fill="#E30412" transform="translate(1156.1,68.9)"/>
</svg>
