<?xml version="1.0" encoding="UTF-8"?>

<svg version="1.1" xmlns="http://www.w3.org/2000/svg" viewBox="0 0 713 370">
<path d="M0 0 C0.515625 -0.0025781249999994316 0.515625 -0.0025781249999994316 3.125 -0.015625 C5.945972781939261 0.24500835485308414 7.601457180904234 0.7970365615093016 10 2.25 C9.835000000000008 2.085000000000001 9.835000000000008 2.085000000000001 9 1.25 C11.725066344489633 0.34164455183678655 13.322539156323614 0.11495533747785913 16.125 0.125 C16.476914062499986 0.12371093750000028 16.476914062499986 0.12371093750000028 18.2578125 0.1171875 C20.99999999999997 0.25 20.99999999999997 0.25 24.730712890625 0.782958984375 C30.807913840060422 1.466230668379687 36.83426575258633 1.154047393186488 42.9335880279541 0.9278163909912109 C47.38823266939099 0.7755945588474873 51.8450065186976 0.6982682296322764 56.301236152648926 0.6067609786987305 C60.1806269595977 0.5229708425010315 64.05602487992198 0.41404171163612347 67.932861328125 0.248779296875 C85.85607166785488 -0.49355088836760785 99.89106082590246 -0.761537440700188 114.160888671875 11.727783203125 C114.80300796508789 12.332318267822274 115.44512725830077 12.936853332519533 116.10670471191406 13.559707641601563 C117.97959467218735 15.231782572486495 119.89122135723949 16.518312094294487 122.01025390625 17.8564453125 C125 20.25 125 20.25 125.559326171875 22.939208984375 C125.40955322265626 23.886105957031248 125.25978027343751 24.833002929687495 125.10546875 25.80859375 C125.02772216796876 26.336384277343754 125.02772216796876 26.336384277343754 124.63427734375 29.00732421875 C124.42496582031251 30.0774072265625 124.21565429687499 31.147490234375 124 32.25 C123.90501220703123 32.74056884765625 123.90501220703123 32.74056884765625 123.42431640625 35.22314453125 C122.77763287197595 38.26919109245466 122.0563014055165 41.28875998150184 121.3125 44.3125 C120.76964540651997 46.586956383424166 120.228019414736 48.86170628584628 119.6875 51.13671875 C119.4090625 52.3012255859375 119.13062500000001 53.465732421875 118.84375 54.66552734375 C117.18071509430692 61.730538479567684 115.64390876434675 68.8239920997476 114.093017578125 75.914306640625 C112.94713922962737 81.11741940725648 111.74443929392311 86.29094598847763 110.41015625 91.44921875 C109.12917055891597 96.51029105096995 108.28597584290236 101.51452837467528 107.625 106.6875 C106.66815301633827 113.60277543785537 105.34921570054345 120.29954399194753 103.625 127.0625 C100.10449392769505 140.9367213244306 98.1365566971551 155.1102540383131 96 169.25 C94.68 169.25 93.36000000000001 169.25 92 169.25 C91.70397179260601 166.8754758683503 91.41255503791317 164.50055779716897 91.125 162.125 C91.03259033203125 161.36727294921874 90.9401806640625 160.6095458984375 90.844970703125 159.828857421875 C90.33893507320664 155.55494865324653 89.9092042816161 151.2887975444049 89.59765625 146.99609375 C88.83627738956065 136.7109476977659 87.4470779603337 127.00837268015911 84.95556640625 116.997802734375 C83.08651832930917 109.26092382301792 82.03565624044833 101.5192884713066 81.0625 93.625 C79.65551703771379 82.45318982932741 77.41742823879915 72.01659217389917 73.736328125 61.379150390625 C72.9512430289621 59.10901540304329 72.20858655450098 56.826949913313314 71.46484375 54.54296875 C67.97188252715904 44.13960247480735 67.97188252715904 44.13960247480735 64 40.25 C60.6418492874233 39.20242594123394 57.628857884903596 38.82309342825732 54.12109375 38.62890625 C51 38.25 51 38.25 48.53515625 36.609375 C46 35.25 46 35.25 42.625 35.69921875 C31.63198212575807 39.45437679540376 31.63198212575807 39.45437679540376 29 44.5625 C28.287358741500015 46.44153456831049 27.625958014575758 48.34033902584501 27 50.25 C26.263652801744684 52.11688026079406 25.52712909484299 53.98369355059414 24.787109375 55.84912109375 C23.450361414489805 59.289671520646294 22.226711603329562 62.76903915278021 21 66.25 C20.577187500000008 67.4269140625 20.154374999999987 68.603828125 19.71875 69.81640625 C12.871399942764867 90.16093670851592 9.811119926977241 111.76140501160887 6.25 132.875 C6.101294555664069 133.74848083496093 5.952589111328123 134.6219616699219 5.79937744140625 135.52191162109375 C5.36454817848356 138.08904069408806 4.937434587647999 140.65726321021316 4.515625 143.2265625 C4.447682342529305 143.63931930541992 4.447682342529305 143.63931930541992 4.103851318359375 145.72811889648438 C3.4206389888688733 150.03918394333897 2.8715454732168837 154.3295971731927 2.494140625 158.6787109375 C2.455458679199211 159.11668502807618 2.455458679199211 159.11668502807618 2.25970458984375 161.33309936523438 C2.1209243033726324 163.0058853791502 1.9992023727696306 164.68020062152897 1.89703369140625 166.35562133789063 C1.7138671875 168.61474609375006 1.7138671875 168.61474609375006 1 172.25 C-1.0654296875 173.77197265625 -1.0654296875 173.77197265625 -3 174.25 C-5.176469002816219 163.1213369874197 -7.348890557355077 151.99189950533238 -9.51495361328125 140.8612060546875 C-10.428046835675431 136.172565767415 -11.347661745089042 131.4853937433925 -12.28125 126.80078125 C-15.917986234622617 108.41660886548635 -18.644670640756445 89.85158839580086 -20.60546875 71.21484375 C-21 68.25000000000003 -21 68.25000000000003 -22 66.25 C-26.309817459021602 67.1499550808867 -29.47719540419922 69.35763574844212 -33.0625 71.8125 C-33.72644775390626 72.26214111328125 -34.3903955078125 72.71178222656249 -35.074462890625 73.175048828125 C-49.82686895112744 83.21549765961956 -49.82686895112744 83.21549765961956 -56.25 89 C-64.31292906178489 96.25 -64.31292906178489 96.25 -69 96.25 C-56.37508402495885 141.8469833065569 -56.37508402495885 141.8469833065569 -49.980712890625 160.386474609375 C-45.746558111878485 172.72092455328752 -41.929070908617064 185.3573780110907 -39.65185546875 198.2158203125 C-36.957220265502656 212.59761607861492 -36.957220265502656 212.59761607861492 -32.31640625 216.515625 C-29.249999999999957 217.9375 -29.249999999999957 217.9375 -26.05859375 219.1015625 C-22.900194689404998 220.28747479095136 -20.89039281060937 221.6650110857138 -18.3125 223.8125 C-14.839915502817533 226.6616402427511 -11.351737316926574 228.8306862620916 -7.39453125 230.9375 C-1.554949876443061 234.13831458648474 4.275335308581276 237.62215005876698 9.3125 242 C12.123716734623017 244.35357680107973 14.557561931901262 245.97779462700703 18 247.25 C20.0625 246.6875 20.0625 246.6875 22 245.25 C22.8390185546875 244.69376953125004 23.678037109374998 244.13753906249997 24.54248046875 243.564453125 C27.65658740388605 240.6316363412637 27.810443409794004 238.98970231102874 28.2578125 234.78125 C28.332215576171876 234.14018310546874 28.332215576171876 234.14018310546874 28.708740234375 230.89599609375 C28.84758983315581 229.51400707216095 28.986340808634594 228.132008138733 29.125 226.75 C29.28530980852159 225.32214183797362 29.448171675833407 223.89456799947982 29.613525390625 222.46728515625 C29.939167865819854 219.64986667701754 30.256518244792375 216.83172623916596 30.56787109375 214.0126953125 C31.08272418283522 209.52969203058956 31.72614110891982 205.08022177856742 32.4375 200.625 C36.07078836784174 177.23793553406784 38.97690919796656 153.72196517025952 42 130.25 C42.99000000000001 129.92 43.97999999999999 129.59 45 129.25 C47.63502991169969 137.83725483914318 49.33889452283563 146.14500791564151 50.375 155.0625 C51.20168396718236 161.98267325193603 52.41985199425977 168.2277924769237 54.875 174.75 C61.18706521528716 191.73358481758106 62.92691854870165 210.8281347959221 64.640625 228.78125 C64.97096805052539 231.96977857463628 65.4353093489645 235.09552119076722 66 238.25 C77.89247233304965 241.64784923801415 84.04579924597152 239.80665602494855 95 234.25 C96.16402343749999 233.68539062499997 97.32804687500001 233.12078125 98.52734375 232.5390625 C118.45873394797502 222.8046155745801 118.45873394797502 222.8046155745801 125 216.25 C125.65274902343751 216.01144287109378 126.30549804687499 215.7728857421875 126.97802734375 215.527099609375 C130.05426487178292 213.58411500310353 130.26823491815395 211.35695000345413 131.265625 207.8984375 C131.3670278930664 207.55302413940433 131.3670278930664 207.55302413940433 131.88018798828125 205.80502319335938 C132.60821735526937 203.29228240827075 133.30605038036637 200.77236476546295 134 198.25 C134.13974243164063 197.74567443847656 134.13974243164063 197.74567443847656 134.846923828125 195.1934814453125 C137.52314714737716 185.51049108397734 140.1556122478291 175.81540504375084 142.759765625 166.11279296875 C146.66542336005654 151.584125384411 150.78669565842114 137.24460984233986 155.97222900390625 123.11331176757813 C159.24979165979335 114.06496355381813 161.16262514928724 104.90590751682657 162.953125 95.46875 C163.937022409216 90.3568402133723 165.37605718687104 85.49963024678746 167.01953125 80.5625 C169.18203390533375 73.25651493337438 170.5173684937406 65.71836189589186 172 58.25 C178.64520719231137 62.172129034247874 183.0237170345838 65.8070964600569 187.07421875 72.3359375 C188.66158621968174 74.7379174845488 190.30934414320797 76.96385137416962 192.08203125 79.2265625 C201.9330213617049 91.97896020259213 201.9330213617049 91.97896020259213 201.5625 97.625 C200.96875000000006 100.17187499999977 200.96875000000006 100.17187499999977 200 103.25 C199.6069514547579 104.77409383452277 199.22228867525382 106.30036269954738 198.84375 107.828125 C198.02268553302713 111.09904255546874 197.16041231005067 114.35333390173389 196.25390625 117.6015625 C194.3725043690029 124.45477897373513 192.91949785587224 131.17133941574096 192.1875 138.25 C191.3876006410112 144.62380124146648 189.86242432661254 150.41127178173383 187.92027282714844 156.52003479003906 C186.3579011085004 161.60312232714085 185.40578601537578 166.5622065104291 184.69921875 171.82421875 C183.1537458385838 182.3190413343375 180.6994192030079 192.5274091271837 178.03125 202.787353515625 C177.24403105403474 205.83561287795476 176.4890441280453 208.89080690518097 175.734375 211.947265625 C173.21731618987138 221.8530742428253 170.9802465977573 230.46572925822227 164 238.25 C163.7806982421875 238.59264892578125 163.7806982421875 238.59264892578125 162.6708984375 240.32666015625 C160.4085741272463 242.93077922641055 158.18778013641798 243.66300337944892 154.96875 244.87109375 C154.3667578125 245.101513671875 154.3667578125 245.101513671875 151.3203125 246.267578125 C150.04711136877478 246.74152088335586 148.77367243555761 247.21482528558028 147.5 247.6875 C145.03015703425757 248.62081068045086 142.56139066279073 249.55697572705895 140.09375 250.49609375 C139.49626953125 250.72288818359374 139.49626953125 250.72288818359374 136.47265625 251.87060546875 C132.2931877382342 253.53075712028806 128.23654848399448 255.39344860943106 124.189453125 257.351806640625 C121.99999999999994 258.25 121.99999999999994 258.25 119 258.25 C118.66999999999999 258.91 118.34 259.57 118 260.25 C118 259.59 118 258.93 118 258.25 C117.34 258.25 116.68 258.25 116 258.25 C115.66999999999999 259.24 115.34 260.23 115 261.25 C112.94970703125009 262.58105468749994 112.94970703125009 262.58105468749994 110.2578125 263.921875 C109.27820556640626 264.418486328125 108.29859863281251 264.91509765625 107.289306640625 265.4267578125 C106.24508544921875 265.945927734375 105.2008642578125 266.46509765625 104.125 267 C96.13581735406694 271.0581926154713 88.3709786488258 275.13176543700115 81 280.25 C80.66999999999999 279.26 80.34 278.27 80 277.25 C77.97542620322989 279.18254771509874 76.57894208012704 280.88158687980945 75 283.25 C74.39156250000002 283.2809375 74.39156250000002 283.2809375 71.3125 283.4375 C66.44321498103508 283.79935316780677 62.701435801755935 285.7323182627236 58.5 288.0625 C57.84725097656249 288.4229541015625 57.19450195312501 288.783408203125 56.52197265625 289.15478515625 C54.678102687102324 290.180910628635 52.83855985869158 291.2143987314082 51 292.25 C44.2299625009845 296.01450515640323 39.6309125426381 296.7891897458162 32 295.25 C31.668912353515623 295.20000854492184 31.668912353515623 295.20000854492184 29.993408203125 294.947021484375 C23.673944624408392 293.8366513005212 19.353776645617046 291.2688649538655 14.1875 287.5625 C12.617688509925756 286.47525657221365 11.046068500646498 285.39061975483963 9.47265625 284.30859375 C8.713559570312498 283.7837841796875 7.9544628906249955 283.258974609375 7.17236328125 282.71826171875 C1.3797748877735216 278.80315421162845 -4.718399035362708 275.3177586106368 -11 272.25 C-11 271.26 -11 270.27 -11 269.25 C-11.556875000000005 269.0025 -12.113749999999996 268.755 -12.6875 268.5 C-15.000000000000071 267.24999999999994 -15.000000000000071 267.24999999999994 -17.625 265.125 C-20 263.25 -20 263.25 -22 263.25 C-22.659999999999997 264.24 -23.319999999999993 265.23 -24 266.25 C-24.659999999999997 266.25 -25.319999999999993 266.25 -26 266.25 C-26.5452734375 265.6866796875 -27.090546875 265.123359375 -27.65234375 264.54296875 C-30.65344911093115 261.6117726653634 -33.97221600283906 259.6976964957866 -37.5625 257.5625 C-43.758484772382374 253.79649308059777 -49.35263530235962 249.78832194590905 -54.86328125 245.0625 C-57.00000000000007 243.24999999999994 -57.00000000000007 243.24999999999994 -60 241.25 C-60 240.26 -60 239.26999999999998 -60 238.25 C-61.11375 238.29125 -62.2275 238.33249999999998 -63.375 238.375 C-67 238.25 -67 238.25 -69 236.25 C-69.6277734375 235.940625 -70.255546875 235.63125000000002 -70.90234375 235.3125 C-73.12011655962581 234.18915883758245 -74.71411504080945 232.90403575766493 -76.5625 231.25 C-78.66995197396375 229.3725372169588 -80.63332529087407 227.8277831394173 -83 226.25 C-83.22107787301377 223.46147109505296 -83.28107535357287 220.90346819070203 -83.1875 218.125 C-83.180732421875 217.74794921875002 -83.180732421875 217.74794921875002 -83.146484375 215.83984375 C-83.11109984924795 213.97625872705908 -83.05729166968209 212.11304022151364 -83 210.25 C-83.66 210.25 -84.32 210.25 -85 210.25 C-85.33 210.90999999999997 -85.66 211.57 -86 212.25 C-86 211.26 -86 210.26999999999998 -86 209.25 C-86.33 208.26 -86.66 207.26999999999998 -87 206.25 C-86.34 206.25 -85.68 206.25 -85 206.25 C-85.28211876645196 204.6233151976919 -85.57602374628758 202.9986710393921 -85.875 201.375 C-86.037421875 200.470078125 -86.19984375 199.56515624999997 -86.3671875 198.6328125 C-87 196.25 -87 196.25 -89 194.25 C-92.61030073109788 185.58831211152568 -93.88122252702887 176.40076959188036 -95.352294921875 167.203369140625 C-96.62082676812844 159.6297231589906 -98.51402923371845 152.42938454050667 -100.98193359375 145.159912109375 C-102.3536280992849 141.00143186510005 -103.16764650891312 137.2303931225414 -103.4609375 132.8515625 C-103.88225388521877 126.9910157466773 -105.47129181769506 121.88518830723339 -107.4375 116.375 C-107.75009765625 115.46492187500002 -108.0626953125 114.55484375 -108.384765625 113.6171875 C-109.58350659900445 110.15021571894698 -110.79829776440315 106.72576114618559 -112.23046875 103.34765625 C-113.50450152403732 99.87478518574596 -112.78196310552606 96.74728381054175 -112 93.25 C-111.8672265625 92.4971875 -111.734453125 91.74437499999999 -111.59765625 90.96875 C-109.1048014656603 81.88236806418189 -101.14285235565636 77.28489543940873 -94.02587890625 71.8505859375 C-91.09447764078122 69.53457404349984 -88.39216761608319 67.01090372744406 -85.6875 64.4375 C-81.35406477732847 60.39489935603126 -76.89568796068448 56.888504134822426 -72.05859375 53.4765625 C-50.169694238815566 37.54211457998068 -50.169694238815566 37.54211457998068 -43.296875 27.84765625 C-40.290329477489834 24.447396432875422 -36.88919434573641 22.46676516457559 -33 20.1875 C-28.503168720659957 17.527689469738178 -24.586995439831583 15.102980271175028 -21 11.25 C-19.185442021378535 9.686277977246789 -17.35097331844821 8.145442368725313 -15.5 6.625 C-14.561562499999994 5.848984375000001 -13.623125000000002 5.072968750000001 -12.65625 4.2734375 C-8.23692470920524 0.9069514696592833 -5.599734840668006 -0.02799867420333868 0 0 Z M87 30.25 C88 32.25 88 32.25 88 32.25 Z " fill="#0A794F" transform="translate(113,56.75)"/>
<path d="M0 0 C2.125 2.687500000000014 2.125 2.687500000000014 3.125 5.6875 C2.1875 8.874999999999886 2.1875 8.874999999999886 1.125 11.6875 C0.46500000000003183 11.6875 -0.19499999999993634 11.6875 -0.875 11.6875 C-1.0045507812500318 12.045859374999992 -1.0045507812500318 12.045859374999992 -1.66015625 13.859375 C-2.9409702028217453 16.841076935186408 -4.47540507278336 19.263973078894765 -6.3125 21.9375 C-6.6702148437500455 22.466015624999997 -6.6702148437500455 22.466015624999997 -8.48046875 25.140625 C-8.674069824218805 25.426474609374992 -8.674069824218805 25.426474609374992 -9.65380859375 26.873046875 C-17.657081646368624 38.76435541699561 -25.136856113602107 50.95688802419026 -32.444580078125 63.284912109375 C-33.96146322193613 65.83272692730387 -35.49661970953605 68.36909264082357 -37.03125 70.90625 C-39.16836183687451 74.46395936424602 -41.167362162876884 78.05625949708184 -43.0625 81.75 C-45.891794685535274 87.08237357584261 -49.041984336749124 92.09467281618905 -52.375 97.125 C-66.04413280749259 117.82123864381839 -66.04413280749259 117.82123864381839 -65.956787109375 130.2568359375 C-65.95372055053713 130.9078125 -65.95065399169926 131.5587890625 -65.94749450683594 132.2294921875 C-65.9403567110619 133.63941434694587 -65.93097576423816 135.04932655501636 -65.91959953308105 136.45922088623047 C-65.90215191174957 138.69647380794032 -65.89189094468384 140.93365468584028 -65.88368225097656 143.17095947265625 C-65.85928619352512 149.53103452402817 -65.82382072431403 155.89101287990079 -65.779052734375 162.2509765625 C-65.75213969978608 166.14593108420223 -65.73518083920055 170.04082930984666 -65.72418403625488 173.93585968017578 C-65.71800901666074 175.41412683773942 -65.70804783224878 176.89238353771887 -65.69410514831543 178.37059783935547 C-65.55606984792462 193.1424630425082 -65.55606984792462 193.1424630425082 -67.875 199.6875 C-72.09789725192161 202.97296762940198 -77.99584488397772 202.89552357464424 -83.1484375 202.640625 C-87.51023548500757 202.71561293097432 -91.8421100060234 203.54979605901656 -96.115478515625 204.416259765625 C-98.913116465788 204.86897531663283 -101.13950749526714 205.09994635679232 -103.66259765625 203.68505859375 C-105.85461229541204 201.9059659372856 -107.60464894627466 200.22820210745073 -108.875 197.6875 C-109.86500000000001 197.02750000000003 -110.85500000000002 196.3675 -111.875 195.6875 C-112.13441856204031 192.98638143066063 -112.20045645436653 190.53318540959697 -112.125 187.8359375 C-112.11915893554692 187.43650436401367 -112.11915893554692 187.43650436401367 -112.089599609375 185.41513061523438 C-111.89993700602452 175.17496365593584 -111.3043587162905 164.94874562530077 -110.7294921875 154.724609375 C-110.1948947845408 145.10185612173387 -109.7475154733421 135.47691367889058 -109.58984375 125.83984375 C-109.57681213378908 125.43234390258789 -109.57681213378908 125.43234390258789 -109.5108642578125 123.37014770507813 C-109.44409229756252 115.10151739522351 -112.86373822350174 110.17317855136986 -117.875 103.6875 C-119.14605842716105 101.78473317617372 -120.39718137511011 99.86845119966418 -121.625 97.9375 C-122.19476562499995 97.04417968749999 -122.76453125 96.15085937499998 -123.3515625 95.23046875 C-125.57586862520395 91.51758852562102 -127.24909568494513 87.69022829368942 -128.875 83.6875 C-129.30941406249997 82.68074218750002 -129.74382812500005 81.673984375 -130.19140625 80.63671875 C-133.74324623560676 72.34909211691763 -133.74324623560676 72.34909211691763 -134.421875 68.94140625 C-134.95317483279712 66.29864759893167 -135.82904242080338 65.37763886977109 -137.875 63.6875 C-137.54499999999996 63.357500000000016 -137.54499999999996 63.357500000000016 -135.875 61.6875 C-136.53499999999997 61.0275 -137.19500000000005 60.36750000000001 -137.875 59.6875 C-137.875 58.69749999999999 -137.875 57.70750000000001 -137.875 56.6875 C-138.47860351562497 56.45063476562501 -139.08220703125005 56.213769531249994 -139.7041015625 55.9697265625 C-142.40132993062787 54.37662676612037 -143.16213146942255 52.93321998616544 -144.609375 50.171875 C-145.09760742187495 49.256318359375 -145.58583984375002 48.34076171875 -146.0888671875 47.3974609375 C-146.59579101562497 46.42067382812499 -147.10271484375005 45.44388671875001 -147.625 44.4375 C-148.68624547461616 42.43683403772478 -149.7487475427721 40.43683412908942 -150.8125 38.4375 C-151.330703125 37.4578125 -151.84890625000003 36.478125000000006 -152.3828125 35.46875 C-154.9789817440187 30.62981674936836 -157.76203481114567 25.903839223337926 -160.546875 21.171875 C-161.875 18.6875 -161.875 18.6875 -161.875 16.6875 C-161.21500000000003 16.6875 -160.55499999999995 16.6875 -159.875 16.6875 C-160.20500000000004 15.697500000000005 -160.53499999999997 14.707499999999996 -160.875 13.6875 C-160.4375 11.5625 -160.4375 11.5625 -158.875 9.6875 C-156.19775871662114 9.274037764560333 -153.56673345176193 8.95414083938725 -150.875 8.6875 C-149.46825081481825 8.513094870001652 -148.06198524772128 8.334741208023132 -146.65625 8.15234375 C-145.22920569209998 7.976245960633918 -143.80212214888297 7.800465837977413 -142.375 7.625 C-141.66730468749995 7.534121093750002 -140.959609375 7.4432421875000045 -140.23046875 7.349609375 C-128.6219392123288 5.938334760273975 -128.6219392123288 5.938334760273975 -123.8125 7.25 C-120.74972250300618 7.941594918676017 -117.93152828840027 7.216514511453894 -114.875 6.6875 C-111.6953406140774 12.863255157661285 -108.6576111909634 19.067944007722303 -105.91015625 25.44921875 C-105.41966796874999 26.58810546875 -104.92917968749998 27.726992187500002 -104.423828125 28.900390625 C-103.42930419540403 31.225302675921498 -102.44236984484087 33.55347534943178 -101.462890625 35.884765625 C-98.73608053454086 42.178229018575934 -95.85813396291883 47.37497567855938 -91.469970703125 52.643310546875 C-89.03827581138569 55.75988506524837 -87.49148500441368 59.13616602018075 -85.9375 62.75 C-85.63521484374996 63.42482421875002 -85.33292968750004 64.09964843749998 -85.021484375 64.794921875 C-84.29498044931722 66.42090685152809 -83.58328371161792 68.05349593581158 -82.875 69.6875 C-82.25625000000002 68.69749999999999 -81.63750000000005 67.70749999999998 -81 66.6875 C-80.29875000000004 65.69749999999999 -79.59749999999997 64.70749999999998 -78.875 63.6875 C-78.21500000000003 63.6875 -77.55500000000006 63.6875 -76.875 63.6875 C-76.54499999999996 62.037499999999994 -76.21500000000003 60.38749999999999 -75.875 58.6875 C-75.21500000000003 58.6875 -74.55500000000006 58.6875 -73.875 58.6875 C-73.60687499999995 58.151250000000005 -73.33875 57.61500000000001 -73.0625 57.0625 C-72.36458333333337 55.66666666666666 -72.36458333333337 55.66666666666666 -68.875 48.6875 C-68.21500000000003 48.6875 -67.55500000000006 48.6875 -66.875 48.6875 C-66.71000000000004 48.0996875 -66.71000000000004 48.0996875 -65.875 45.125 C-64.32608502033008 40.44846823445799 -62.189939860353775 36.20656815233919 -59.875 31.875 C-59.530820312500055 31.229099121093753 -59.186640624999995 30.583198242187507 -58.83203125 29.917724609375 C-56.69740284921295 25.992482394421984 -54.633430038308916 22.272257935759868 -51.29296875 19.26171875 C-49.407726968476254 17.16873682726154 -48.92461734673407 15.202763604691683 -48.1875 12.5 C-47.93613281249998 11.598945312500007 -47.684765624999955 10.697890625 -47.42578125 9.76953125 C-47.244023437500005 9.082460937500002 -47.06226562500001 8.395390625000005 -46.875 7.6875 C-46.21500000000003 7.6875 -45.555000000000064 7.6875 -44.875 7.6875 C-44.875 7.027500000000003 -44.875 6.367500000000007 -44.875 5.6875 C-44.091249999999945 5.419375000000002 -43.307500000000005 5.1512500000000045 -42.5 4.875 C-39.875 3.6875 -39.875 3.6875 -37.875 0.6875 C-36.04931640625 0.213134765625 -36.04931640625 0.213134765625 -33.8515625 0.06640625 C-33.448891601562536 0.03426025390625398 -33.448891601562536 0.03426025390625398 -31.4111328125 -0.12841796875 C-30.57420898437499 -0.1891650390625017 -29.737285156249982 -0.2499121093750034 -28.875 -0.3125 C-27.27790757361572 -0.4841501205927017 -25.68151999251984 -0.6624955309540042 -24.0859375 -0.84765625 C-22.47398900957876 -1.0237185851188286 -20.862009696337054 -1.1994989443503954 -19.25 -1.375 C-18.846523437499968 -1.4204394531249989 -18.846523437499968 -1.4204394531249989 -16.8046875 -1.650390625 C-3.7975709958028574 -3.054567974884918 -3.7975709958028574 -3.054567974884918 0 0 Z M-43.875 10.6875 C-42.875 12.6875 -42.875 12.6875 -42.875 12.6875 Z M-126.875 12.6875 C-125.875 14.6875 -125.875 14.6875 -125.875 14.6875 Z M-103.875 140.6875 C-102.875 142.6875 -102.875 142.6875 -102.875 142.6875 Z " fill="#0B7950" transform="translate(709.875,73.3125)"/>
<path d="M0 0 C4.125253342122903 5.488060249788489 5.152398987172944 11.577647574898137 5.13720703125 18.27294921875 C5.138907737731927 19.01352695465087 5.1406084442138535 19.754104690551756 5.142360687255859 20.51712417602539 C5.145357769770385 22.98802168988837 5.139694235284253 25.458798791034184 5.1328125 27.9296875 C5.131836891174316 28.788725547790534 5.130861282348633 29.647763595581054 5.129856109619141 30.532833099365234 C5.1099062142740195 44.30093010045408 4.864095116558701 58.05758778923865 4.4921875 71.8203125 C4.467818679809568 72.73273460388185 4.443449859619136 73.64515670776368 4.418342590332031 74.5852279663086 C4.192916408412771 82.98525500781005 3.959203100995694 91.385013096834 3.70361328125 99.7841796875 C3.0916922762733066 120.06335738472598 2.7243766235730504 140.04120301190193 4.562255859375 160.266357421875 C5.209228661874704 167.61964011795197 4.791078160786128 174.67353748817402 4 182 C3.9484375000000114 182.9783984375 3.8968750000000227 183.956796875 3.84375 184.96484375 C3.528288215647308 190.33558062860504 2.733105443193665 193.84025393472706 -1 198 C-6.328945094630853 199.93467854966775 -12.486245088765315 199.57866682777092 -18.10693359375 199.832275390625 C-19.529172245245093 199.90210734081802 -20.950845654829607 199.98468005846667 -22.37158203125 200.080322265625 C-35.68802704334291 200.97004523587293 -35.68802704334291 200.97004523587293 -40.859375 197.12890625 C-42.608398437499886 195.5100097656251 -42.608398437499886 195.5100097656251 -44 194 C-44.660000000000025 193.34000000000003 -45.31999999999999 192.68 -46 192 C-46.16298723518088 189.4649361131519 -46.20744944094474 187.04062561503974 -46.16015625 184.5078125 C-46.154954681396475 183.76546356201175 -46.14975311279295 183.02311462402344 -46.14439392089844 182.25827026367188 C-46.126553413528086 179.88031637227027 -46.09539811927982 177.50278961393224 -46.0625 175.125 C-46.03484531299739 172.7543921350303 -46.01011452752806 170.383848179516 -45.99131774902344 168.01315307617188 C-45.97910590125343 166.5372868688986 -45.961546781518564 165.0614528177745 -45.93800354003906 163.58572387695313 C-45.905112842023925 160.1916168578744 -46.13264313138018 157.2658598624226 -47 154 C-47.09297345007326 151.90914990297532 -47.130688175226 149.8155713648317 -47.1328125 147.72265625 C-47.13410156250001 146.48580078125 -47.135390625000014 145.2489453125 -47.13671875 143.974609375 C-47.13285156249998 142.68361328125 -47.128984375000016 141.3926171875 -47.125 140.0625 C-47.12886718750002 138.80630859375 -47.132734374999984 137.5501171875 -47.13671875 136.255859375 C-47.13031926629816 130.05795940976728 -47.018845325158566 123.87279798147435 -46.6796875 117.68359375 C-46.622807617187505 116.63614990234373 -46.56592773437501 115.58870605468752 -46.50732421875 114.509521484375 C-46 112 -46 112 -43 110 C-43.48823242187501 109.605224609375 -43.97646484375002 109.21044921875 -44.4794921875 108.8037109375 C-46.45926673638098 106.45519225298932 -46.361120194011676 105.18187167562553 -46.328125 102.140625 C-46.32296874999997 101.189296875 -46.3178125 100.23796875 -46.3125 99.2578125 C-46.291875000000005 98.265234375 -46.27125000000001 97.27265625000001 -46.25 96.25 C-46.24484374999997 95.272890625 -46.2396875 94.29578125 -46.234375 93.2890625 C-46.18960322029869 89.13647993270345 -46.09062592485304 85.08748551313073 -45.421875 80.984375 C-45 78 -45 78 -46 75 C-45.91153753727298 72.1720548205648 -45.768436590732506 69.38170091451084 -45.5625 66.5625 C-45.45863794499411 65.0430366026913 -45.35574196999045 63.52350679894863 -45.25390625 62.00390625 C-45.229776611328134 61.66782348632813 -45.229776611328134 61.66782348632813 -45.107666015625 59.967041015625 C-44.961615338635625 57.29871832967575 -44.98901411415494 54.635960725030884 -45.03515625 51.96484375 C-45.079135793559374 48.704074734670655 -45.03825981904231 46.114779457126986 -44 43 C-43.95145005610328 40.846899895484256 -43.9629360127617 38.692242301598355 -44.0078125 36.5390625 C-44.016191406250016 35.900976562500006 -44.016191406250016 35.900976562500006 -44.05859375 32.671875 C-44.089503339292605 30.64852347233844 -44.124986286435444 28.62559791141436 -44.17138671875 26.6025390625 C-44.2139192693125 24.644130161319765 -44.236092486747395 22.685312786050687 -44.2578125 20.7265625 C-44.27988769531248 19.5568994140625 -44.30196289062502 18.387236328125 -44.32470703125 17.18212890625 C-43.96595194798846 13.666329090286936 -43.15162197137812 11.781110159666 -41 9 C-40.339999999999975 9 -39.68000000000001 9 -39 9 C-39 8.340000000000003 -39 7.680000000000007 -39 7 C-32.17336008828937 2.19032188038571 -25.395406136711415 1.9098260812805847 -17.1953125 2.046875 C-15 2 -15 2 -14 1 C-12.334995571286981 0.6584606300075819 -10.66821322704891 0.32550501991198644 -9 0 C-5.659906071441526 -1.6700469642792513 -3.5162815652618633 -1.0306342518870935 0 0 Z M-33 5 C-32.670000000000016 5.989999999999995 -32.339999999999975 6.980000000000004 -32 8 C-32 7.010000000000005 -32 6.019999999999996 -32 5 C-32.329999999999984 5 -32.660000000000025 5 -33 5 Z M-35 97 C-34.670000000000016 97.66 -34.339999999999975 98.32 -34 99 C-33.670000000000016 98.34 -33.339999999999975 97.68 -33 97 C-33.660000000000025 97 -34.31999999999999 97 -35 97 Z " fill="#0A794F" transform="translate(457,90)"/>
<path d="M0 0 C2.046111389497355 5.92638637515752 2.334467303555357 11.31939232957653 2.3125 17.5625 C2.32861328125 18.482246093750007 2.3447265625 19.4019921875 2.361328125 20.349609375 C2.361972656250032 21.246152343749998 2.36261718749995 22.142695312499995 2.36328125 23.06640625 C2.366262207031241 23.870217285156258 2.369243164062482 24.6740283203125 2.372314453125 25.502197265625 C2 28 2 28 0.4970245361328125 30.73382568359375 C-1.1801533708816123 34.39305455507596 -1.357963105158774 36.75262624907731 -1.32470703125 40.756591796875 C-1.3235671424865814 41.408058996200566 -1.3224272537231627 42.05952619552613 -1.3212528228759766 42.73073482513428 C-1.3141438415780158 44.88722562524491 -1.2858646386422379 47.04290719313536 -1.2578125 49.19921875 C-1.2492151370934153 50.733909769322054 -1.2421069157904867 52.26860975968242 -1.23638916015625 53.803314208984375 C-1.221852437720372 57.06837823626512 -1.1986900360403752 60.33321727686186 -1.16864013671875 63.598175048828125 C-1.09918650966938 71.2744627391233 -1.0792297642971107 78.9509531720644 -1.0552406311035156 86.62749290466309 C-1.046865774130879 89.19814436852474 -1.0369047671892986 91.76878648198661 -1.026824951171875 94.33943176269531 C-0.9783078202582374 107.86228162408057 -1.0597970230750207 121.37881262915812 -1.31536865234375 134.89981079101563 C-1.3544910799387253 136.97476103861456 -1.390289233875592 139.04977718900304 -1.42242431640625 141.12484741210938 C-1.5859269976646146 151.46932311234772 -1.9416956279528677 161.67421768440255 -3.364349365234375 171.93275451660156 C-4.213870155998734 178.33905509458907 -3.7609188040860317 184.43117417998099 -3.09375 190.83984375 C-3 194 -3 194 -5 197 C-7.929931640625 197.615966796875 -7.929931640625 197.615966796875 -11.66015625 197.94921875 C-12.324058685302703 198.01156204223633 -12.987961120605519 198.07390533447267 -13.671981811523438 198.1381378173828 C-15.081113283435002 198.26792909347898 -16.490871850453118 198.391057309546 -17.901123046875 198.508056640625 C-20.031270281691945 198.6849072243357 -22.15898407253485 198.88049682121277 -24.287109375 199.080078125 C-44.37984242141971 200.9169187538854 -44.37984242141971 200.9169187538854 -48.5 197.625 C-53.07247693292004 192.823899220434 -52.19256508994681 188.46114239935417 -52.06787109375 182.07421875 C-51.916185638624256 177.43853663939512 -51.60611403719099 172.80714538496488 -51.26806640625 168.181640625 C-51.003987288561916 164.20553909223423 -51.221489571212885 160.87670929091252 -52 157 C-52.08847485452026 155.31163268185335 -52.13059084109614 153.62036992585644 -52.1328125 151.9296875 C-52.13482666015625 150.9598291015625 -52.1368408203125 149.989970703125 -52.138916015625 148.99072265625 C-52.134323730468736 147.9625341796875 -52.12973144531247 146.934345703125 -52.125 145.875 C-52.12367065429686 145.34350341796875 -52.12367065429686 145.34350341796875 -52.116943359375 142.65380859375 C-52.050967035439896 131.49128269859844 -51.72129789273953 120.32413277661297 -50.46484375 109.2265625 C-49.8624553075079 103.39580167639988 -49.926990872339104 97.60533203840481 -50 91.75 C-50.07456551418585 85.68036714527256 -50.068439792012725 79.99089454807125 -49 74 C-49.329999999999984 73.00999999999999 -49.660000000000025 72.01999999999998 -50 71 C-49.93755993708237 68.4796920058709 -49.8162443792512 66.01008247767237 -49.625 63.5 C-49.581171874999995 62.8232421875 -49.53734374999999 62.146484375 -49.4921875 61.44921875 C-49.27840351401437 58.438427614036044 -48.95888465419682 55.87665396259047 -48 53 C-47.92972641513535 51.38159934056773 -47.91568479810786 49.760403740491114 -47.9375 48.140625 C-47.94136718750002 47.664960937499984 -47.94136718750002 47.664960937499984 -47.9609375 45.2578125 C-47.98677627894267 43.268226521414675 -48.012814734498306 41.27864312502797 -48.0390625 39.2890625 C-48.08138881679713 34.054707989423434 -47.822963133342796 29.164093661726213 -47 24 C-47.16500000000002 23.236874999999998 -47.329999999999984 22.473749999999995 -47.5 21.6875 C-48.49359413041509 16.346931549018976 -47.61068556419832 11.035618547327829 -46.0625 5.875 C-43.55949319129013 3.5995392648092377 -42.85216167500454 3.7650529566105178 -39.5625 3.8125 C-38.67949218749999 3.857617187499997 -37.79648437499998 3.9027343749999943 -36.88671875 3.94921875 C-30.552296271444902 4.060649727295285 -24.177068202056944 2.6854477527520686 -18.125 0.875 C-12.260516310241655 -0.7221359835937591 -6.020143198466826 -0.1521946314219207 0 0 Z M-37 6 C-37.329999999999984 6.4950000000000045 -37.329999999999984 6.4950000000000045 -39 9 C-38.339999999999975 9.659999999999997 -37.68000000000001 10.319999999999993 -37 11 C-36.670000000000016 9.349999999999994 -36.339999999999975 7.700000000000003 -36 6 C-36.329999999999984 6 -36.660000000000025 6 -37 6 Z M-24 55 C-23 57 -23 57 -23 57 Z M-29 189 C-28 191 -28 191 -28 191 Z " fill="#09784F" transform="translate(538,83)"/>
<path d="M0 0 C1.7723603071207776 2.110221330293996 1.7850870459151906 3.1083091356634327 1.7667694091796875 5.837432861328125 C1.7659889221191634 6.718245239257811 1.7652084350585824 7.599057617187498 1.764404296875 8.506561279296875 C1.7456071472167878 9.498434448242193 1.7268099975585756 10.490307617187511 1.7074432373046875 11.512237548828125 C1.7020125579833802 12.049665832519537 1.7020125579833802 12.049665832519537 1.674530029296875 14.769378662109375 C1.4275996006533092 31.955853420440008 0.7064367735078463 49.13659788360184 -0.0198516845703125 66.30813598632813 C-0.2356794192131133 71.44083736220423 -0.4255894985291775 76.5741773737187 -0.6102628707885742 81.70808029174805 C-0.7593706039148742 85.71532394165257 -0.9282935726262167 89.72156325863796 -1.1024112701416016 93.72779083251953 C-1.181204056032584 95.62026746009445 -1.2526452991374981 97.51306703536181 -1.316091537475586 99.40612030029297 C-1.694411132186815 110.47861742894531 -2.643688827873234 119.5819684522254 -7.5855255126953125 129.68411254882813 C-8.24552551269528 129.68411254882813 -8.905525512695306 129.68411254882813 -9.585525512695313 129.68411254882813 C-9.915525512695297 130.67411254882813 -10.24552551269528 131.66411254882814 -10.585525512695313 132.68411254882813 C-14.917067992602654 133.2206086221804 -19.250923100289185 133.73547766085642 -23.585525512695313 134.24661254882813 C-24.806267700195292 134.3980773925781 -26.02700988769533 134.54954223632814 -27.284744262695313 134.70559692382813 C-39.74300070093943 136.15344834773214 -39.74300070093943 136.15344834773214 -45.58552551269531 134.68411254882813 C-47.20661926269531 133.01223754882813 -47.20661926269531 133.01223754882813 -48.02302551269531 130.93411254882813 C-48.315642700195326 130.20450317382813 -48.60825988769534 129.47489379882813 -48.90974426269531 128.72317504882813 C-51.006802848532175 122.3956341135285 -51.72027394317115 115.08835784025564 -49.58552551269531 108.68411254882813 C-49.45717023309669 106.49232429340344 -49.383425653554696 104.2971838868603 -49.33943176269531 102.10208129882813 C-49.30642107530656 100.76288383314909 -49.273210953238845 99.42369127161493 -49.23982238769531 98.08450317382813 C-49.193021617805584 95.99641286543178 -49.14872902392153 93.90833059127397 -49.10871887207031 91.82009887695313 C-48.969550751650445 84.88252640692156 -48.74197988674939 78.10571558578158 -47.54255676269531 71.25051879882813 C-45.668846327618326 59.32667602558408 -46.5409314165214 47.05989110459345 -46.77742004394531 35.031768798828125 C-46.838141733133966 31.723153923351987 -46.87343745845595 28.414984326313686 -46.90583801269531 25.105987548828125 C-46.93275726318359 24.10783020019531 -46.959676513671866 23.109672851562493 -46.98741149902344 22.081268310546875 C-47.0435889355914 14.141244869071272 -45.380493215798765 7.689059424605915 -40.80232238769531 1.128936767578125 C-37.70840407952312 -0.8875619711623131 -34.71076516854606 -1.1656018105075816 -31.116775512695313 -1.433074951171875 C-30.39945251464843 -1.4987466430663972 -29.68212951660155 -1.5644183349609477 -28.943069458007813 -1.632080078125 C-27.430914660357132 -1.7664549979325557 -25.917952348776566 -1.8920000031332336 -24.404373168945313 -2.009246826171875 C-22.091111174469347 -2.190449913547127 -19.782365584991908 -2.4032790106621746 -17.472244262695313 -2.620574951171875 C-15.999749318799843 -2.7474610058287396 -14.527095805953763 -2.872522871018276 -13.054275512695313 -2.995574951171875 C-12.365634155273426 -3.0589706420898324 -11.67699279785154 -3.122366333007818 -10.967483520507813 -3.18768310546875 C-6.184942068151827 -3.5370826762040792 -3.6478521117643936 -3.0274901155273994 0 0 Z " fill="#08784E" transform="translate(377.5855255126953,159.31588745117188)"/>
<path d="M0 0 C4.053459341887333 1.858692862354423 7.833658072569733 3.8336580725697615 11 7 C11.082499999999982 7.464062500000001 11.082499999999982 7.464062500000001 11.5 9.8125 C13.552153929535791 14.173327100263581 16.26089108832855 14.92867641665486 20.58984375 16.7265625 C23.9114159495918 18.48155850821221 25.462414783509587 20.470868717538394 26.703125 24 C26.88359374999999 24.66 27.064062499999977 25.32 27.25 26 C28.519773531011992 29.680992417029376 28.519773531011992 29.680992417029376 30.640625 31.08984375 C31.254218750000007 31.369570312500002 31.867812500000014 31.649296875000005 32.5 31.9375 C35.54437639263665 33.41057163348141 36.69360266170878 34.64958660257769 37.89453125 37.81640625 C39.81004712653788 44.20977637499767 37.98062523813269 49.75806304330659 36.1875 56 C35.90712890625002 57.1240625 35.62675781249999 58.248125 35.337890625 59.40625 C33.22373879898856 67.090810352721 30.175093070811272 72.8083942573709 24 78 C23.340000000000032 78 22.680000000000007 78 22 78 C21.753789062500005 78.67546875 21.50757812500001 79.3509375 21.25390625 80.046875 C19.737696206920873 83.6177622042612 17.8812265222939 86.89802796513182 15.9375 90.25 C15.755419921874989 90.56839843750001 15.755419921874989 90.56839843750001 14.833984375 92.1796875 C12.140742481203006 96.859257518797 12.140742481203006 96.859257518797 11 98 C1.0805929824700797 98.95994261459967 -7.097621633514848 95.13691888091455 -14.73828125 88.921875 C-15.484648437500027 88.28765625 -16.231015624999998 87.6534375 -17 87 C-17.26772216796877 86.78633789062499 -17.26772216796877 86.78633789062499 -18.62255859375 85.705078125 C-29.438328986370266 77.03363642865935 -29.438328986370266 77.03363642865935 -30.6796875 72.5390625 C-30.42017337991632 70.1532068798758 -29.877107794511517 68.23188931748936 -29 66 C-26.35304348715107 58.85741893358226 -27.689325004904816 53.96850122351549 -30.099853515625 46.952880859375 C-32.50213633832513 39.844767805095096 -33.556160369616265 33.757479349146806 -30.25 26.75 C-29.525099067979056 25.485279224984748 -28.775442542875425 24.23437792539355 -28 23 C-27.641640625000008 22.39671875 -27.283281249999987 21.7934375 -26.9140625 21.171875 C-25.875 19.50000000000001 -25.875 19.50000000000001 -24 17 C-23.340000000000003 17 -22.680000000000007 17 -22 17 C-21.92136718750001 16.4328125 -21.842734374999992 15.865625000000001 -21.76171875 15.28125 C-19.201356858896162 7.613294387668519 -8.233780360274409 -1.4530200635778379 0 0 Z M-15 19 C-14 21 -14 21 -14 21 Z M-21 24 C-20.669999999999987 24.99 -20.340000000000003 25.98 -20 27 C-20 26.009999999999998 -20 25.02 -20 24 C-20.330000000000013 24 -20.659999999999997 24 -21 24 Z M-22 28 C-21.669999999999987 28.99 -21.340000000000003 29.98 -21 31 C-21 30.009999999999998 -21 29.02 -21 28 C-21.330000000000013 28 -21.659999999999997 28 -22 28 Z " fill="#FD792D" transform="translate(275,1)"/>
<path d="M0 0 C0.8984765624999795 0.0025781250000136424 1.796953125000016 0.005156250000027285 2.72265625 0.0078125 C3.6185546875000227 0.005234374999986358 4.514453124999989 0.002656249999972715 5.4375 0 C7.78515625 0.1328125 7.78515625 0.1328125 9.78515625 1.1328125 C10.64236229092569 17.143871078247685 10.916988002666187 33.10004319497983 10.78515625 49.1328125 C7.320479463726201 50.98719247931649 4.5995847869654085 51.52509733936745 0.66015625 51.8203125 C-0.3942968750000091 51.9066796875 -1.4487500000000182 51.993046875000005 -2.53515625 52.08203125 C-5.21484375 52.1328125 -5.21484375 52.1328125 -7.21484375 51.1328125 C-8.193698274259987 49.47419788944842 -9.166293375791156 47.811330062281684 -10.095703125 46.12451171875 C-11.911993705951033 42.89211674505924 -13.945591357002627 39.80338481717678 -15.96484375 36.6953125 C-17.367343749999975 34.52968750000002 -18.769843750000007 32.36406249999999 -20.21484375 30.1328125 C-20.544843749999984 37.39281249999999 -20.874843750000025 44.65281249999998 -21.21484375 52.1328125 C-25.46992288750124 53.834844155000496 -27.17632570480032 54.39093180912755 -31.46484375 54.3203125 C-32.33625000000001 54.31386718750002 -33.207656250000014 54.30742187499999 -34.10546875 54.30078125 C-36.21484375 54.1328125 -36.21484375 54.1328125 -37.21484375 53.1328125 C-37.323092254344886 51.78892684186525 -37.36383737756711 50.43949220180281 -37.3759765625 49.09130859375 C-37.38558410644532 48.2330648803711 -37.39519165039064 47.374821166992206 -37.40509033203125 46.490570068359375 C-37.40934020996093 45.55524444580078 -37.41359008789061 44.61991882324219 -37.41796875 43.65625 C-37.42366882324217 42.69764068603513 -37.42936889648439 41.739031372070315 -37.43524169921875 40.751373291015625 C-37.44471121680073 38.715282280268866 -37.45123338655549 36.679175807483944 -37.455078125 34.64306640625 C-37.46473815210015 31.541714705747665 -37.4957241133302 28.44103842775411 -37.52734375 25.33984375 C-37.533878156596074 23.361983103172008 -37.539126906646516 21.384117709676275 -37.54296875 19.40625 C-37.555315551757815 18.483069763183607 -37.56766235351563 17.559889526367215 -37.58038330078125 16.608734130859375 C-37.56133406780873 11.041052444028992 -36.99854678573786 7.009592774384373 -34.21484375 2.1328125 C-31.53781143852899 1.2404683961763112 -29.621012909534613 0.8812090838701465 -26.83984375 0.7578125 C-26.08960937500001 0.708828125000025 -25.339375000000018 0.6598437499999932 -24.56640625 0.609375 C-19.891397702403538 1.6499915205613433 -17.602282319308756 5.546687484891891 -15.08203125 9.359375 C-14.424609374999989 10.480859375000023 -13.767187499999977 11.602343749999989 -13.08984375 12.7578125 C-11.008005427751925 16.29774770164363 -9.138649211832103 19.275081737870323 -6.21484375 22.1328125 C-5.525852005535228 23.45474767173937 -4.856562899736446 24.7872944751918 -4.21484375 26.1328125 C-4.202315673828139 25.756768798828148 -4.202315673828139 25.756768798828148 -4.138916015625 23.853759765625 C-4.023338614618751 20.467420540223486 -3.9004403041390105 17.081386369824543 -3.77734375 13.6953125 C-3.738027343749991 12.511308593750016 -3.698710937499982 11.327304687499975 -3.658203125 10.107421875 C-3.6372558593749886 9.545068359375023 -3.6372558593749886 9.545068359375023 -3.53125 6.69921875 C-3.4945922851562727 5.657092285156239 -3.4579345703124886 4.614965820312477 -3.420166015625 3.541259765625 C-3.1549384025989866 0.4301177888095822 -3.109889787982297 0.18648369099014417 0 0 Z " fill="#FD7E34" transform="translate(336.21484375,310.8671875)"/>
<path d="M0 0 C4.3519158992467055 4.351915899246691 8.54669031776308 8.875156644425758 8.8828125 15.28125 C8.874501640362553 18.43937666223046 8.828835658601008 21.592819576977888 8.75 24.75 C8.733242187499968 25.782539062500007 8.716484374999993 26.815078125 8.69921875 27.87890625 C8.36285614198971 35.09628678187764 8.36285614198971 35.09628678187764 5.875 37.75 C5.359375 37.91499999999999 5.359375 37.91499999999999 2.75 38.75 C2.0307031250000023 39.010390625000014 1.3114062500000045 39.27078125 0.5703125 39.5390625 C-9.455540100881137 42.799750123994784 -25.345267527426756 45.38871832156957 -35.25 40.75 C-40.26892844118589 34.97904349042571 -39.681007207264145 27.79379334531221 -39.25 20.625 C-39.2177734375 19.5666796875 -39.185546875 18.508359374999998 -39.15234375 17.41796875 C-38.85857726590177 11.414587010864537 -38.316684126274936 7.458399419595409 -34.25 2.75 C-33.722773437499995 2.1351171875000006 -33.19554687499999 1.5202343750000011 -32.65234375 0.88671875 C-23.75966723401666 -7.911102549812867 -9.84755683837318 -6.817539349642956 0 0 Z M-2.25 14.75 C-1.25 16.75 -1.25 16.75 -1.25 16.75 Z " fill="#107C54" transform="translate(373.25,98.25)"/>
<path d="M0 0 C2.068948464585617 1.8297394128992437 3.0013327013770095 3.1126916338051274 3.92578125 5.703125 C3.92578125 9.703125 3.92578125 9.703125 2.31640625 11.40625 C1.6100000000000136 11.916718749999973 0.9035937500000273 12.427187500000002 0.17578125 12.953125 C-0.5203124999999886 13.473906250000027 -1.2164062499999773 13.994687499999998 -1.93359375 14.53125 C-4.07421875 15.703125 -4.07421875 15.703125 -8.07421875 15.703125 C-8.558906250000007 15.373125000000016 -8.558906250000007 15.373125000000016 -11.01171875 13.703125 C-14.07421875 11.703125 -14.07421875 11.703125 -16.51171875 11.078125 C-20.67104093687135 12.092593826066206 -23.42379068119709 14.37945985489688 -26.07421875 17.703125 C-27.69934861878488 23.210509555326553 -27.185938305425907 27.482455262968017 -25.15234375 32.84375 C-24.07421875 34.703125 -24.07421875 34.703125 -21.26171875 36.328125 C-17.776401404806847 36.7381623347286 -15.414733617461593 36.81662995582053 -12.07421875 35.703125 C-10.19921875 33.140625 -10.19921875 33.140625 -9.07421875 30.703125 C-12.044218750000027 30.703125 -15.014218749999998 30.703125 -18.07421875 30.703125 C-18.07421875 27.733124999999973 -18.07421875 24.763125000000002 -18.07421875 21.703125 C-13.104102020575965 19.711942587896374 -8.95088740122236 19.45466805159873 -3.69921875 19.578125 C-3.3311914062500136 19.582636718749995 -3.3311914062500136 19.582636718749995 -1.46875 19.60546875 C0.3295700533265631 19.62882355588738 2.12772036284332 19.66468664374247 3.92578125 19.703125 C5.2280610495246265 37.396599583926445 5.2280610495246265 37.396599583926445 2.35546875 42.484375 C0.26564677464205033 44.29608378472096 -1.5832006011146404 45.50760291182257 -4.07421875 46.703125 C-4.533124999999984 46.96609375000003 -4.533124999999984 46.96609375000003 -6.85546875 48.296875 C-10.561290112524262 49.915923168093116 -13.959647603263932 50.42068649835812 -17.94921875 50.640625 C-18.656672363281245 50.68074707031252 -19.36412597656249 50.720869140624984 -20.093017578125 50.76220703125 C-25.7699058033175 50.949364383688646 -29.629816892579413 50.22019618996893 -34.07421875 46.703125 C-34.98171875000003 46.02249999999998 -35.88921875 45.341875000000016 -36.82421875 44.640625 C-42.6527241132614 37.031187442408736 -44.3056085726231 28.103140378637534 -43.07421875 18.703125 C-42.10321642143168 14.861745056249276 -41.018554341641504 11.16911453292613 -39.07421875 7.703125 C-38.08421874999999 7.373125000000016 -37.09421874999998 7.043124999999975 -36.07421875 6.703125 C-35.38671875 4.640625 -35.38671875 4.640625 -35.07421875 2.703125 C-34.414218749999975 2.703125 -33.75421875000001 2.703125 -33.07421875 2.703125 C-33.07421875 2.043124999999975 -33.07421875 1.3831250000000068 -33.07421875 0.703125 C-31.826863078361043 0.052199103392297275 -30.576200430407198 -0.5923916930758537 -29.32421875 -1.234375 C-28.62812500000001 -1.5940234375000273 -27.932031250000023 -1.9536718749999977 -27.21484375 -2.32421875 C-18.05821343566464 -6.484804422024638 -8.27549756998576 -5.363497606733802 0 0 Z " fill="#FD7D32" transform="translate(509.07421875,304.296875)"/>
<path d="M0 0 C3.4204088649141795 3.336814350904092 4.3450825411605365 8.070711041690856 5.72265625 12.5546875 C6.057167968750036 13.641528320312489 6.391679687499959 14.728369140624977 6.736328125 15.84814453125 C7.085019531250055 16.990092773437482 7.4337109374999955 18.13204101562502 7.79296875 19.30859375 C8.149394531249982 20.471166992187477 8.505820312499964 21.63374023437501 8.873046875 22.83154296875 C11.313729459857996 30.819535651642184 13.692937420901558 38.819993546025444 15.91796875 46.87109375 C14.13147594390989 49.14042244962798 13.213759447675102 49.81763759981777 10.32421875 50.33984375 C7.443287061378101 50.370821510092696 4.761880856971857 50.347263365453045 1.91796875 49.87109375 C-0.7589745546135873 47.04118225655134 -1.08203125 45.73428460365403 -1.08203125 41.87109375 C-1.5770312500000045 41.95359374999998 -1.5770312500000045 41.95359374999998 -4.08203125 42.37109375 C-8.109360669974308 42.95583892140729 -12.01677747948031 42.94241399158807 -16.08203125 42.87109375 C-16.15421875000004 43.34546875000001 -16.15421875000004 43.34546875000001 -16.51953125 45.74609375 C-17.08203125 48.87109375 -17.08203125 48.87109375 -18.08203125 50.87109375 C-19.732031249999977 50.87109375 -21.382031249999955 50.87109375 -23.08203125 50.87109375 C-23.41203125000004 51.53109374999997 -23.742031249999968 52.19109374999999 -24.08203125 52.87109375 C-26.722031249999986 52.87109375 -29.362031249999973 52.87109375 -32.08203125 52.87109375 C-35.79581281029118 45.44353062941764 -30.038853335854924 33.55103960296475 -27.70703125 26.37109375 C-26.907238634350733 23.860776927333063 -26.10775352128553 21.350362110452807 -25.30859375 18.83984375 C-25.116845703125023 18.246552734374973 -25.116845703125023 18.246552734374973 -24.146484375 15.244140625 C-22.94974189892332 11.451894283377044 -21.86845012170943 7.635173356853386 -20.84423828125 3.79296875 C-19.505411108734506 0.4171687813768017 -17.27035152232895 -0.6573738166173939 -14.08203125 -2.12890625 C-12.988906250000014 -2.6651562499999955 -11.895781250000027 -3.201406249999991 -10.76953125 -3.75390625 C-5.918115384349562 -4.247270575320385 -3.906237139292898 -2.6960431890816494 0 0 Z M-9.08203125 16.87109375 C-9.585398916734107 18.49505372243982 -10.084621007042188 20.120299159591752 -10.58203125 21.74609375 C-10.860468749999995 22.651015625000014 -11.138906249999991 23.555937500000027 -11.42578125 24.48828125 C-12.08203125 26.87109375 -12.08203125 26.87109375 -12.08203125 28.87109375 C-10.927031250000027 28.70609374999998 -10.927031250000027 28.70609374999998 -5.08203125 27.87109375 C-6.072031250000009 24.241093750000005 -7.062031250000018 20.61109375000001 -8.08203125 16.87109375 C-8.412031250000041 16.87109375 -8.742031249999968 16.87109375 -9.08203125 16.87109375 Z " fill="#FD7C32" transform="translate(552.08203125,297.12890625)"/>
<path d="M0 0 C5.940000000000055 0 11.879999999999995 0 18 0 C18 0.660000000000025 18 1.3199999999999932 18 2 C18.381562499999973 2.1237499999999727 18.381562499999973 2.1237499999999727 20.3125 2.75 C23.348138676002577 4.161924965582557 24.445048742514928 5.053776564765087 26 8 C26.1875 11.25 26.1875 11.25 26 14 C19.642264150943447 18.034716981132078 19.642264150943447 18.034716981132078 16.6875 17.875 C15 17 15 17 13 15 C10.344626275816722 14.434799970354561 7.708552870907965 14.262118019765296 5 14 C5 15.649999999999977 5 17.30000000000001 5 19 C5.542695312499973 19.121171875000016 5.542695312499973 19.121171875000016 8.2890625 19.734375 C9.734525070321524 20.072275341114164 11.179829392455872 20.41085313238017 12.625 20.75 C12.981425781249982 20.828632812500018 12.981425781249982 20.828632812500018 14.78515625 21.2265625 C20.163977722779464 22.50958413570885 25.020421056433065 24.19655005101788 28.3515625 28.9140625 C30.067323378777814 34.43343785703229 29.866169488663104 40.20103260046898 27.375 45.375 C21.608367490934143 51.74864645738853 17.635235263403274 54.30112636414157 9 55 C2.010278774117637 55.293685765793384 -3.380506262720246 55.186889214541964 -8.8125 50.4375 C-9.903868592777826 49.31912847296792 -10.978226386252459 48.182293939774354 -12 47 C-10.638426223251372 41.704990868200014 -7.396560454265909 39.76254467046118 -3 37 C-0.5063842912230712 38.2038144800992 1.6814308277921555 39.454287218528066 4 41 C8.074907518005716 41.339575626500505 9.530012707613878 41.31332486159073 13 39 C13.330000000000041 38.00999999999999 13.659999999999968 37.01999999999998 14 36 C13.092499999999973 36.061874999999986 12.184999999999945 36.12374999999997 11.25 36.1875 C4.507730263284088 36.16003657948386 -3.252800010071951 34.83914077822277 -8.625 30.5625 C-11.31493816522891 27.660198295410964 -12.940642286175034 25.687455007308586 -13.08203125 21.66796875 C-12.49300956780678 16.24726196459875 -11.655085491418617 11.79957761910299 -9 7 C-8.009999999999991 6.670000000000016 -7.019999999999982 6.339999999999975 -6 6 C-6 5.339999999999975 -6 4.680000000000007 -6 4 C-4.019999999999982 3.339999999999975 -2.0399999999999636 2.680000000000007 0 2 C0 1.339999999999975 0 0.6800000000000068 0 0 Z " fill="#FD7F36" transform="translate(584,293)"/>
<path d="M0 0 C4.495798888934701 4.393853335897575 4.903425239303601 8.07225373487546 5.09765625 14.18359375 C4.9273404634551525 20.700023843889596 3.71585061961639 24.291760506460378 -0.46484375 29.30859375 C-7.169127090601705 34.96998857095258 -13.560781200706401 36.68359375 -22.27734375 36.68359375 C-22.25414062499999 37.382265625 -22.230937499999982 38.080937500000005 -22.20703125 38.80078125 C-22.19800781250001 39.25582031250002 -22.19800781250001 39.25582031250002 -22.15234375 41.55859375 C-22.12914062499999 42.463515625000014 -22.105937499999982 43.36843750000003 -22.08203125 44.30078125 C-22.27734375 46.68359375 -22.27734375 46.68359375 -24.27734375 48.68359375 C-27.09765625 48.87890625 -27.09765625 48.87890625 -30.40234375 48.80859375 C-31.498046875 48.79054687500002 -32.59375 48.77249999999998 -33.72265625 48.75390625 C-34.56570312500003 48.73070312499999 -35.408750000000055 48.70749999999998 -36.27734375 48.68359375 C-38.34004798346018 42.78424956312364 -38.48462000811253 37.62279226149576 -38.2890625 31.41015625 C-38.26640823364255 30.445806579589828 -38.2437539672851 29.481456909179656 -38.22041320800781 28.487884521484375 C-38.17068529253504 26.46233155584048 -38.11575992751307 24.436900198785565 -38.055908203125 22.41162109375 C-37.96453410979905 19.298042739399307 -37.89014750128206 16.184398114486385 -37.818359375 13.0703125 C-37.76791560867923 11.10023485733933 -37.71651744305768 9.130181369286788 -37.6640625 7.16015625 C-37.64107589721675 6.224830627441406 -37.61808929443362 5.2895050048828125 -37.59440612792969 4.325836181640625 C-37.56800552368168 3.467592468261728 -37.54160491943355 2.6093487548828307 -37.514404296875 1.72509765625 C-37.49282760620122 0.9667764282226585 -37.47125091552732 0.20845520019531705 -37.44902038574219 -0.572845458984375 C-37.27734375 -2.31640625 -37.27734375 -2.31640625 -36.27734375 -3.31640625 C-9.740314963159676 -7.438371038885634 -9.740314963159676 -7.438371038885634 0 0 Z M-21.27734375 10.68359375 C-21.47146555588745 12.161905964066023 -21.65746505958475 13.641286907516758 -21.83984375 15.12109375 C-21.94425781250004 15.944804687499982 -22.048671874999968 16.76851562500002 -22.15625 17.6171875 C-22.19621093750004 18.299101562500027 -22.236171874999968 18.981015624999998 -22.27734375 19.68359375 C-21.94734374999996 20.013593749999984 -21.617343750000032 20.343593750000025 -21.27734375 20.68359375 C-19.31640625 20.6328125 -19.31640625 20.6328125 -16.90234375 20.37109375 C-16.110859375000018 20.292460937499982 -15.319375000000036 20.21382812500002 -14.50390625 20.1328125 C-12.27734375 19.68359375 -12.27734375 19.68359375 -9.27734375 17.68359375 C-8.96484375 15.18359375 -8.96484375 15.18359375 -9.27734375 12.68359375 C-11.27734375 10.68359375 -11.27734375 10.68359375 -13.66015625 10.48828125 C-14.565078125000014 10.511484375000009 -15.470000000000027 10.534687500000018 -16.40234375 10.55859375 C-17.31242187500004 10.576640624999982 -18.222499999999968 10.59468750000002 -19.16015625 10.61328125 C-19.858828124999945 10.636484375000009 -20.557500000000005 10.659687500000018 -21.27734375 10.68359375 Z " fill="#FD7B2F" transform="translate(658.27734375,294.31640625)"/>
<path d="M0 0 C6.393310520853277 4.213772843289689 7.335167703126899 13.072101841955657 9.1875 20.0625 C11.066603047201113 27.14819643416513 13.003378237210711 33.922461139246195 16.097900390625 40.5849609375 C16.90545735750402 43.343534417771025 16.552387789537306 45.08034471225716 15.75 47.8125 C14.75 48.8125 14.75 48.8125 12.02734375 48.91015625 C10.925195312500023 48.898554687499995 9.823046874999989 48.88695312499999 8.6875 48.875 C8.135136718750005 48.870488281250005 8.135136718750005 48.870488281250005 5.33984375 48.84765625 C4.485195312499968 48.836054687499995 3.630546874999993 48.82445312499999 2.75 48.8125 C1.759999999999991 46.5025 0.7699999999999818 44.192499999999995 -0.25 41.8125 C-4.8700000000000045 41.8125 -9.490000000000009 41.8125 -14.25 41.8125 C-14.25 44.1225 -14.25 46.432500000000005 -14.25 48.8125 C-14.579999999999984 49.47249999999997 -14.910000000000025 50.13249999999999 -15.25 50.8125 C-18.41015625 51.2265625 -18.41015625 51.2265625 -22.3125 51.4375 C-23.602851562500007 51.512265625 -24.893203125000014 51.587031249999995 -26.22265625 51.6640625 C-27.2216796875 51.71304687500003 -28.220703125 51.76203125000001 -29.25 51.8125 C-30.434497823670114 47.666757617154644 -29.951666889164215 45.702883311976166 -28.25 41.8125 C-27.976969633829952 40.00608697129917 -27.75234000068002 38.19204000650865 -27.5625 36.375 C-26.626507489756932 29.80040744821207 -24.821040801000038 23.636261120293568 -22.8125 17.3125 C-22.662203369140627 16.83462036132812 -22.662203369140627 16.83462036132812 -21.901611328125 14.416259765625 C-18.96186583997843 5.377961494344902 -18.96186583997843 5.377961494344902 -16.25 1.8125 C-15.589999999999975 1.8125 -14.930000000000007 1.8125 -14.25 1.8125 C-13.920000000000016 0.8224999999999909 -13.589999999999975 -0.1675000000000182 -13.25 -1.1875 C-8.501871319338079 -2.7702095602206214 -4.6239845483788145 -1.6895328157538074 0 0 Z M-7.25 16.8125 C-7.75166076930708 18.457827880286914 -8.251284474973943 20.10377699377966 -8.75 21.75 C-9.028437499999995 22.666523437500018 -9.306874999999991 23.58304687499998 -9.59375 24.52734375 C-10.25 26.8125 -10.25 26.8125 -10.25 27.8125 C-7.939999999999998 27.8125 -5.6299999999999955 27.8125 -3.25 27.8125 C-4.240000000000009 24.182500000000005 -5.230000000000018 20.55250000000001 -6.25 16.8125 C-6.579999999999984 16.8125 -6.910000000000025 16.8125 -7.25 16.8125 Z " fill="#FD7D32" transform="translate(277.25,318.1875)"/>
<path d="M0 0 C0.37238044738768394 0.0014149475097724462 0.37238044738768394 0.0014149475097724462 2.2568511962890625 0.008575439453125 C4.610207258055368 0.019673332148613554 6.963167339707638 0.04475740067709921 9.31640625 0.0703125 C10.922520502914665 0.08035577621592438 12.52864078626277 0.08947925764312004 14.134765625 0.09765625 C18.04962920919951 0.1195784338066801 21.964200847372013 0.15403488605386428 25.87890625 0.1953125 C25.905771779085057 2.1744064759317325 25.925240004918578 4.153602209317853 25.94140625 6.1328125 C25.953007812500005 7.234960937499977 25.96460937500001 8.337109375000011 25.9765625 9.47265625 C25.87890625 12.1953125 25.87890625 12.1953125 24.87890625 13.1953125 C23.02998678591007 13.428951309034744 21.174025935044142 13.608348847180366 19.31640625 13.7578125 C18.30449218749999 13.841601562499989 17.292578124999977 13.925390624999977 16.25 14.01171875 C15.467539062500009 14.07230468749998 14.685078125000018 14.132890625000016 13.87890625 14.1953125 C13.881524658203148 14.720202636718739 13.881524658203148 14.720202636718739 13.894775390625 17.37646484375 C13.912848635280739 21.26398875427128 13.92434679305876 25.151508936875132 13.933837890625 29.0390625 C13.938872776253106 30.722988119097238 13.945701061443685 32.40690935556211 13.954345703125 34.0908203125 C13.966448212482646 36.508474534768425 13.972142927910795 38.92607105904182 13.9765625 41.34375 C13.98172378540039 42.09900970458983 13.986885070800781 42.854269409179665 13.992202758789063 43.632415771484375 C13.992777956803309 48.96756908639338 13.992777956803309 48.96756908639338 12.87890625 51.1953125 C10.010029963223417 52.18741288992055 7.273843450773143 52.35756218895676 4.25390625 52.3828125 C3.4778906249999864 52.39699218750002 2.7018749999999727 52.41117187499998 1.90234375 52.42578125 C-0.12109375 52.1953125 -0.12109375 52.1953125 -2.12109375 50.1953125 C-3.6794882074420343 42.85875720598415 -3.2424851343646424 35.026867781859096 -3.18359375 27.5703125 C-3.1790820312500045 26.47074218749998 -3.174570312500009 25.371171875000016 -3.169921875 24.23828125 C-3.158265141169977 21.557232469093776 -3.141903923625648 18.87630317601463 -3.12109375 16.1953125 C-5.125081380208314 16.211588541666686 -7.129069010416686 16.227864583333314 -9.133056640625 16.244140625 C-11.806338862377345 16.178482213560642 -13.155732928342047 16.082058888791607 -15.12109375 14.1953125 C-16.008731061159835 9.96196532369936 -16.67457367348453 6.337925629292158 -15.12109375 2.1953125 C-9.986600070955944 0.5004310913835184 -5.419494231048645 -0.07906265379301658 0 0 Z " fill="#FD7D33" transform="translate(367.12109375,309.8046875)"/>
<path d="M0 0 C1.095703125 0.009023437499990905 2.19140625 0.01804687499998181 3.3203125 0.02734375 C4.163359375000027 0.03894531250000455 5.006406249999998 0.050546875000009095 5.875 0.0625 C7.785641702096825 3.292653484471373 8.121872167902893 5.671048630558403 8.10546875 9.40234375 C8.104421386718741 10.456152343749977 8.103374023437482 11.509960937500011 8.102294921875 12.595703125 C8.089162597656241 13.719121093750005 8.076030273437482 14.842539062500009 8.0625 16 C8.053879394531236 17.150488281249977 8.045258789062473 18.30097656250001 8.036376953125 19.486328125 C8.000155148469617 23.0122412439365 7.942406262716474 26.537053333072095 7.875 30.0625 C7.855664062500011 31.132583007812514 7.836328125000023 32.20266601562503 7.81640625 33.30517578125 C7.753315568160758 36.22543932667679 7.664740350405282 39.14337059988941 7.5625 42.0625 C7.551341552734357 42.50396362304684 7.551341552734357 42.50396362304684 7.494873046875 44.738037109375 C7.38671875 47.1875 7.38671875 47.1875 6.875 51.0625 C3.2221625293033753 53.4977249804644 0.1253154762023314 53.617243670598384 -4.125 53.0625 C-5.470007719348644 52.41971196564123 -6.80517807621419 51.755531248730165 -8.125 51.0625 C-8.293063810519527 44.906257834167775 -8.453575217732464 38.749881711827584 -8.607177734375 32.59326171875 C-8.660453857095717 30.500109249788977 -8.715771283788285 28.407007678668833 -8.773193359375 26.31396484375 C-8.855507067983012 23.30056733731783 -8.930409727436484 20.28706138722498 -9.00390625 17.2734375 C-9.030941314697259 16.34195892333986 -9.057976379394518 15.410480346679662 -9.085830688476563 14.450775146484375 C-9.189986991294859 9.887471169287949 -9.287279748289961 5.516933770945229 -8.125 1.0625 C-5.3604796745133285 -0.3197601627433073 -3.078863696151359 -0.03275386910797806 0 0 Z " fill="#FD7E35" transform="translate(410.125,306.9375)"/>
<path d="M0 0 C1.1885156250000364 0.009023437499990905 2.377031249999959 0.01804687499998181 3.6015625 0.02734375 C4.5167968749999545 0.03894531250000455 5.432031250000023 0.050546875000009095 6.375 0.0625 C7.9159386465778425 3.144377293155685 7.519861675853008 6.368904358818384 7.5 9.75 C7.498066406250018 10.55348876953127 7.496132812500036 11.356977539062484 7.494140625 12.184814453125 C7.406241929529983 25.480712958182437 6.854386203170975 38.77610738498748 6.375 52.0625 C3.2256910669060517 53.11226964436463 0.9868554366323679 53.16381594631332 -2.3125 53.125 C-3.3063671874999727 53.11597656250001 -4.300234374999945 53.10695312500002 -5.32421875 53.09765625 C-5.703847656249991 53.09185546875 -5.703847656249991 53.09185546875 -7.625 53.0625 C-9.737155820177009 35.57839986308841 -9.568908246122874 18.614343256463087 -8.625 1.0625 C-5.740841172721844 -0.3795794136390782 -3.2077847154705523 -0.03144886975951522 0 0 Z " fill="#FD7C31" transform="translate(678.625,288.9375)"/>
<path d="M0 0 C1.1056419229396397 3.0172035607931775 1.0113217653716333 5.529058539867151 0.625 8.6875 C0.5347656249999773 9.475117187500018 0.44453125000001137 10.26273437499998 0.3515625 11.07421875 C0 13 0 13 -1 14 C-9.88774698870077 15.14817784064553 -19.052500677377168 15.439617018741558 -28 15 C-29 14 -29 14 -29.09765625 11.49609375 C-29.086054687499995 10.486757812500002 -29.07445312499999 9.477421875000005 -29.0625 8.4375 C-29.05347656250001 7.425585937499989 -29.044453125000018 6.413671874999977 -29.03515625 5.37109375 C-29.023554687499995 4.588632812500009 -29.01195312499999 3.806171875000018 -29 3 C-21.31260161183718 -0.08660692858052244 -7.819301834008854 -3.9096509170043987 0 0 Z " fill="#FD7E34" transform="translate(459,326)"/>
<path d="" fill="#F7FBEA" transform="translate(0,0)"/>
<path d="" fill="#E8F4F2" transform="translate(0,0)"/>
<path d="" fill="#FFF0E2" transform="translate(0,0)"/>
<path d="" fill="#F9F7EA" transform="translate(0,0)"/>
<path d="" fill="#FCEEE5" transform="translate(0,0)"/>
<path d="" fill="#FFFFEA" transform="translate(0,0)"/>
<path d="" fill="#E8FAFF" transform="translate(0,0)"/>
<path d="" fill="#FDEBE9" transform="translate(0,0)"/>
<path d="" fill="#FFFCE9" transform="translate(0,0)"/>
<path d="" fill="#FFF7E8" transform="translate(0,0)"/>
<path d="" fill="#FFF2E9" transform="translate(0,0)"/>
<path d="" fill="#E8F3EF" transform="translate(0,0)"/>
<path d="" fill="#E7F2EE" transform="translate(0,0)"/>
<path d="" fill="#F8E9EE" transform="translate(0,0)"/>
<path d="" fill="#EAF0EE" transform="translate(0,0)"/>
<path d="" fill="#EAEEED" transform="translate(0,0)"/>
<path d="" fill="#EAF9F4" transform="translate(0,0)"/>
<path d="" fill="#E9F2EF" transform="translate(0,0)"/>
<path d="" fill="#E0ECE8" transform="translate(0,0)"/>
<path d="" fill="#F6EAEE" transform="translate(0,0)"/>
<path d="" fill="#EAF5F1" transform="translate(0,0)"/>
<path d="" fill="#EAF5F1" transform="translate(0,0)"/>
<path d="" fill="#E9F2F1" transform="translate(0,0)"/>
<path d="" fill="#E6FDF5" transform="translate(0,0)"/>
<path d="" fill="#E3E7E6" transform="translate(0,0)"/>
<path d="" fill="#E9F8F3" transform="translate(0,0)"/>
<path d="" fill="#EAF0EE" transform="translate(0,0)"/>
<path d="" fill="#F1E6EA" transform="translate(0,0)"/>
<path d="" fill="#E5F6F0" transform="translate(0,0)"/>
<path d="" fill="#F3E8EC" transform="translate(0,0)"/>
<path d="" fill="#E7E5E6" transform="translate(0,0)"/>
<path d="" fill="#FFF5E9" transform="translate(0,0)"/>
<path d="" fill="#E8F1EE" transform="translate(0,0)"/>
<path d="" fill="#FFF7EA" transform="translate(0,0)"/>
<path d="" fill="#EAF6F6" transform="translate(0,0)"/>
<path d="" fill="#EAEEED" transform="translate(0,0)"/>
<path d="" fill="#E9F4EE" transform="translate(0,0)"/>
<path d="" fill="#E9F8F3" transform="translate(0,0)"/>
<path d="" fill="#EAFFFF" transform="translate(0,0)"/>
</svg>
