<?xml version="1.0" encoding="UTF-8"?>

<svg version="1.1" xmlns="http://www.w3.org/2000/svg" viewBox="0 0 654 242">
<path d="M0 0 C4.567704168035675 3.0127410470022458 8.190463989476342 6.696391968429 9.9375 11.9375 C10.397691529649421 18.035037767854963 9.500284035784745 21.890634535233694 5.53125 26.609375 C1.564512543780097 30.53869040474612 -1.9972755838842033 31.934530009663256 -7.56640625 32.171875 C-13.048832943475787 31.657093150847345 -16.763272688412684 29.30335435320719 -20.5 25.375 C-23.473263278525764 20.736709285499824 -23.695340814105577 16.294363792640244 -23.0625 10.9375 C-21.246806499536547 5.61492419578425 -17.924209297037436 2.626956206871768 -13.0625 -0.0625 C-8.441508852451847 -1.6028303825160477 -4.614807038483946 -1.6010555031474891 0 0 Z " fill="#46605B" transform="translate(179.0625,1.0625)"/>
<path d="M0 0 C1.3199999999999932 0.6599999999999966 2.6399999999999864 1.3200000000000003 4 2 C4.00182281494142 2.631159744262696 4.00182281494142 2.631159744262696 4.01104736328125 5.8252105712890625 C4.04800831649095 17.72854562285218 4.105793404076479 29.63162223627161 4.183902740478516 41.53476047515869 C4.22339095922041 47.65412522865894 4.255573047856672 53.77334578477965 4.27099609375 59.892822265625 C4.28615350468408 65.7998373385944 4.32058360851579 71.7064560207595 4.368309020996094 77.61329460144043 C4.3831321123276155 79.86546315418445 4.391041543363713 82.1176882965442 4.391883850097656 84.36990547180176 C4.3942523644405185 87.527712553713 4.421324296234673 90.68442319284861 4.4541015625 93.842041015625 C4.449071197509767 94.77064941406252 4.4440408325195335 95.69925781249998 4.4388580322265625 96.656005859375 C4.5340651455848615 102.59492428450835 5.525501425299268 106.13770344624811 9 111 C11.3671875 112.48828125 11.3671875 112.48828125 13.875 113.3125 C14.747695312500014 113.614140625 15.620390624999999 113.91578125000001 16.51953125 114.2265625 C16.928808593750006 114.3541796875 16.928808593750006 114.3541796875 19 115 C25 117 25 117 26 118 C26.382478882866963 122.97222547727065 26.236018529793427 126.10975168221637 23 130 C19.926025390625057 130.61473083496094 19.926025390625057 130.61473083496094 16.09765625 130.599365234375 C15.399779968261726 130.60330795288087 14.701903686523451 130.6072506713867 13.982879638671875 130.61131286621094 C11.675356825770592 130.61802750263033 9.369811088439747 130.5888550177966 7.0625 130.55859375 C5.459720701397714 130.55434381671583 3.8569352500506966 130.5520150960094 2.254150390625 130.55152893066406 C-1.1052641289894893 130.54536076545196 -4.4640125915537965 130.52264913534867 -7.8232421875 130.487060546875 C-12.131003862327702 130.44178743872473 -16.438161930259525 130.42703487977988 -20.746139526367188 130.42332363128662 C-24.055846801282996 130.41889612103716 -27.365427150283438 130.40359423822426 -30.675079345703125 130.38444709777832 C-32.26350865667396 130.37556267727518 -33.85195152183769 130.3688337488438 -35.440399169921875 130.3642864227295 C-37.659716630915284 130.35524953713693 -39.87848689427716 130.3328643469449 -42.09765625 130.306396484375 C-43.361018066406245 130.29575668334962 -44.62437988281249 130.28511688232422 -45.926025390625 130.27415466308594 C-49.00000000000003 130 -49.00000000000003 130 -52 128 C-52.58203125 125.94140625 -52.58203125 125.94140625 -52.8125 123.5625 C-52.90144531249999 122.78003906250001 -52.990390625 121.99757812500002 -53.08203125 121.19140625 C-53 119 -53 119 -51 116 C-48.390625 115.19140625 -48.390625 115.19140625 -45.25 114.5625 C-40.41190272035445 113.4326449466696 -36.734563795846555 112.44728965770452 -33 109 C-29.657661842400614 102.95962379468949 -29.560888196987918 97.61944845412125 -29.6015625 90.80859375 C-29.59869232177735 89.74512222290039 -29.5958221435547 88.68165069580078 -29.592864990234375 87.58595275878906 C-29.590830501968554 85.3461147556203 -29.59631713206744 83.1062587358308 -29.60888671875 80.866455078125 C-29.62496442542559 77.44507037723699 -29.609008215391754 74.02486409397595 -29.58984375 70.603515625 C-29.591825978983564 68.42187240343335 -29.595669231880947 66.24022991234017 -29.6015625 64.05859375 C-29.5954898071289 63.03970565795899 -29.5894171142578 62.020817565917966 -29.583160400390625 60.97105407714844 C-29.64779792277548 54.42308031721596 -30.31647149050326 49.76484755523907 -35.0625 44.875 C-38.526054307938324 42.66422065450746 -42.04787500631093 41.258851144106444 -45.890625 39.83203125 C-48 39 -48 39 -49 38 C-49.2734375 36.0390625 -49.2734375 36.0390625 -49.375 33.625 C-49.39949218749999 33.229257812499995 -49.39949218749999 33.229257812499995 -49.5234375 31.2265625 C-49 29 -49 29 -47.0859375 27.48828125 C-43.73099313497619 25.87026377775433 -40.352034400316 24.317698759839885 -36.955322265625 22.78955078125 C-26.33912821887705 17.97437243281979 -17.04226401580661 12.304626331904643 -7.75048828125 5.2939453125 C-5.228781828490241 3.4299224115757596 -2.6261911888390728 1.712909863508635 0 0 Z " fill="#46605B" transform="translate(183,49)"/>
<path d="M0 0 C2.817870752106103 2.2447444974404647 5.435122715491616 4.566061004538895 8.01171875 7.08203125 C10 9 10 9 13 11 C13.092812500000036 10.670000000000002 13.092812500000036 10.670000000000002 13.5625 9 C16.130264517863793 3.6411870931538672 19.98319180805794 -0.5658252857300781 24.8125 -4 C30.233140363150767 -5.7005930551061255 35.57278282504802 -6.002546224436685 40.875 -3.8125 C44.525691771609104 -0.6986746653922182 46.63436174294213 1.6837022745915604 47.9375 6.375 C48.03653739781123 12.119169073052689 46.221604783863654 15.629419022982276 42.4375 19.875 C37.91093747565833 23.821233995579945 33.80127651954837 23.381429495933617 28 23 C24.375 22 24.375 22 22 21 C20.490331599237322 24.907377037268134 19.87841342022182 27.012614079298515 21 31 C21.970160791570095 46.76113679419599 20.127080417982256 60.229382275212416 10 73 C0.1810749595642278 83.77188830259246 -12.975420115878933 90.42461059809105 -27.62060546875 91.18896484375 C-31.417951379561828 91.18748324175593 -35.20446053588148 91.1160715432452 -39 91 C-41.56212082525235 90.92351878133576 -44.12468557137748 90.8604030734322 -46.6875 90.8125 C-47.8051171875 90.77769531249999 -48.922734375000005 90.742890625 -50.07421875 90.70703125 C-53.369155984943916 91.03696488500773 -54.69928296395315 91.64998188460928 -57 94 C-57.5625 97 -57.5625 97 -57 100 C-46.8964137061169 107.58829911684987 -29.140261000946737 105.37262860445088 -17.019775390625 105.53173828125 C18.89037552132862 106.04864060557819 18.89037552132862 106.04864060557819 32 119 C37.45880586651049 125.66001009141499 39.50617071609645 133.11298017954866 39.2421875 141.6484375 C38.10323719595499 152.7072775489534 32.661026489875155 160.08711632493623 24.375 167.1875 C2.9420205021127117 183.44811642147408 -26.81994040073471 185.01973598387752 -52.53515625 181.6875 C-66.16082033488209 179.71455316417996 -81.51711853946807 175.67486376702334 -91 165 C-95.13612422132547 159.17643859635461 -96.59248465239796 154.1098158287755 -96 147 C-93.87735229630627 139.8432351071407 -88.75243499363364 135.45313983097896 -83 131 C-82.34 130.67 -81.68 130.34 -81 130 C-80.6875 127.8125 -80.6875 127.8125 -81 125 C-83.31250000000003 122.43749999999997 -83.31250000000003 122.43749999999997 -86 120 C-89.97649017650525 115.58167758166081 -91.28719872627144 110.50231679119776 -91 104.625 C-89.95454495594385 97.7830775450102 -86.42721295550558 93.00045023805404 -81.15625 88.65625 C-78.47924168034794 86.69679030211034 -75.77736187870482 84.81368649374497 -73 83 C-73.74438600175773 78.091960427971 -75.35744739256268 76.38842103017427 -79 73 C-87.6153689111838 63.340343948066646 -90.63551097905304 50.9803343246697 -90.28515625 38.23046875 C-89.0401129858495 24.125663552021066 -83.3966896475797 12.59074471365878 -73 3 C-51.328190734246505 -13.546505468597204 -23.132384925415977 -14.419829935628776 0 0 Z M-59.875 20.9375 C-64.85802146919784 28.118913293843917 -65.80331153241156 36.383932827321644 -64.4375 44.9375 C-61.946034079562594 55.36843732023132 -56.7646196255148 64.60872997191159 -47.6953125 70.49609375 C-40.29963570192325 74.77588704462474 -33.267786245544585 76.37956473688763 -24.74609375 74.50390625 C-18.7820108442898 72.50078922094744 -15.038765503071545 68.98880501182742 -11.6875 63.6875 C-8.048935395872206 55.84602199600218 -8.947593534853581 45.049720967453695 -11.625 37.0625 C-16.02195318918814 26.823441174827593 -21.66638960649169 20.800166236104985 -31.125 15.125 C-41.015647329041144 11.327900910460073 -52.768815342205755 13.012158609318831 -59.875 20.9375 Z M-62 135 C-65.99483603172763 139.08562775972143 -67.34489378780196 141.89382545928265 -67.5 147.625 C-67.26739652028601 151.88164367876615 -67.01221324602167 154.79952342610196 -64 158 C-52.716521716354464 167.8323222839116 -35.03672169762939 166.94509543046098 -21 166 C-10.889496525154811 164.97707047088707 -1.1271567805766836 162.5167809733652 6.625 155.6875 C8.657695195926522 151.71450484432546 8.635720462282109 149.4500432359747 8 145 C4.8876126186596025 141.71937546291147 2.0840463960431634 140.146462092279 -2.469970703125 139.826416015625 C-3.4453881835937636 139.80248779296875 -4.420805664062527 139.7785595703125 -5.42578125 139.75390625 C-6.522290039062511 139.72240478515624 -7.618798828125023 139.6909033203125 -8.74853515625 139.658447265625 C-9.336589355468732 139.64261596679688 -9.336589355468732 139.64261596679688 -12.3125 139.5625 C-21.272472044833137 139.27422263855755 -30.19526405272927 138.8641158260023 -39.125 138.0625 C-39.99294189453127 137.98781494140624 -40.860883789062484 137.9131298828125 -41.755126953125 137.836181640625 C-46.612787011476314 137.3732088694798 -51.25400107503833 136.59095183640815 -55.98779296875 135.400146484375 C-58 135 -58 135 -62 135 Z " fill="#46605B" transform="translate(309,59)"/>
<path d="M0 0 C2.769008267132506 2.246267992352358 5.376837253046233 4.570739416734256 7.94140625 7.046875 C10 8.999999999999986 10 8.999999999999986 13 11 C13.092812500000036 10.670000000000002 13.092812500000036 10.670000000000002 13.5625 9 C16.130264517863793 3.6411870931538672 19.98319180805794 -0.5658252857300781 24.8125 -4 C30.233140363150767 -5.7005930551061255 35.57278282504802 -6.002546224436685 40.875 -3.8125 C44.525691771609104 -0.6986746653922182 46.63436174294213 1.6837022745915604 47.9375 6.375 C48.03653739781123 12.119169073052689 46.221604783863654 15.629419022982276 42.4375 19.875 C37.91093747565833 23.821233995579945 33.80127651954837 23.381429495933617 28 23 C24.375 22 24.375 22 22 21 C20.01649048394836 25.077214005217257 19.98880326441156 27.765092270579387 20.9375 32.0625 C23.51517740993387 44.4960028008575 20.935321850562786 57.315045013694956 14 67.9375 C13.013680547478145 69.30166322289091 12.015346353203995 70.65730154385045 11 72 C10.381250000000023 72.886875 9.762499999999989 73.77375 9.125 74.6875 C-1.0818174955028326 85.79491903922363 -15.784369837438646 91.34524969861803 -30.61328125 92.2109375 C-37.00595619182752 92.2808027999107 -43.26555597430212 91.90154077397966 -49.59765625 91.0234375 C-52.47346139185072 90.99538086446975 -54.414623627678395 91.79256932344339 -57 93 C-57 95.97 -57 98.94 -57 102 C-43.417067816843144 105.80603364621115 -29.72052038257152 105.7185828835745 -15.719482421875 106.083984375 C18.01241851465261 107.01103867969118 18.01241851465261 107.01103867969118 29.8125 117.5 C30.53437500000001 118.32499999999999 31.256250000000023 119.15 32 120 C32.70124999999996 120.7425 33.40250000000003 121.48500000000001 34.125 122.25 C39.05788913906031 129.48490407062184 39.99049760769378 137.40067986047688 39 146 C36.409385457728376 156.54750206496294 29.763043348961844 164.53142360428987 20.78125 170.375 C-3.377379516233418 184.49015432409146 -34.90997314876387 187.07122410367953 -61.9501953125 180.5478515625 C-73.75846235423927 177.39185451132528 -86.24717873589731 172.9084035804736 -93 162 C-95.9212631032616 155.29379600642557 -96.58506127405394 149.7053880690083 -95.4375 142.4375 C-93.55062150607813 137.92539925366512 -91.25418670446606 135.4090943648397 -87 133 C-82.49538183435334 131.60012734088411 -79.12894774306267 131.59528288456244 -74.6875 133.1875 C-68.48583674468756 137.3700170791642 -67.07959662675626 141.3419962097975 -65.666015625 148.423828125 C-64.21068608661722 154.81573803587054 -61.044699058104754 157.62376024935256 -55.75 161.1875 C-47.8075620181761 165.41274152764407 -39.045512336145634 165.3564298118852 -30.25 165.3125 C-29.673184814453123 165.3100427246094 -29.673184814453123 165.3100427246094 -26.754150390625 165.297607421875 C-15.340083954497231 165.14025549857737 -4.439500803664089 164.10069591704197 5 157 C7.60799107433661 154.0084808264962 8.033297151382499 152.83242878456196 7.875 148.875 C6.953962345458194 145.84873342079132 6.395746763387422 144.94503134838837 4 143 C-3.5283917239679 140.3013511982007 -11.931883025982017 140.69030506775894 -19.8125 140.5625 C-41.273834846899774 139.98048390231241 -67.18578264675244 138.94643893088158 -83.8671875 123.2421875 C-89.23438793745237 117.31001859544739 -90.53097751733333 111.94901103916692 -90.375 104.00390625 C-89.49835654702258 96.98162692354543 -85.04741741034087 92.53630129014243 -79.71484375 88.25390625 C-77.5588072837212 86.67739666987359 -75.34448453514523 85.27880974644285 -73 84 C-73.5073710632496 79.72465265820586 -74.73527361469093 77.8328931642288 -77.75 74.8125 C-87.10415264887206 64.67186224469327 -90.6604019184536 51.88614807589906 -90.28515625 38.23046875 C-89.04011298584948 24.125663552021066 -83.3966896475797 12.59074471365878 -73 3 C-51.664537540898436 -13.289703454175367 -22.664995714081044 -14.650499351251817 0 0 Z M-60.5546875 22.8671875 C-65.23544338588982 29.774465104583385 -64.79347214323883 37.97402927113926 -64 46 C-61.80257238244991 56.26298580469427 -55.73736168116176 65.15202327082639 -47 71 C-39.782830635614175 74.9189351354675 -32.83947310173028 76.32947723857257 -24.76953125 74.4921875 C-18.782993340203518 72.53785805102328 -15.036892641348686 68.98584236645407 -11.6875 63.6875 C-7.99451456615941 55.728739554825125 -8.954564229102061 44.9839823354223 -11.75 36.875 C-15.985143008366435 26.948419194425284 -22.993797024669448 19.34386960186231 -32.75 14.6875 C-44.21509240225163 12.262191991831386 -52.947612062521046 13.84484221368777 -60.5546875 22.8671875 Z " fill="#46605B" transform="translate(457,59)"/>
<path d="M0 0 C3.1875000000000107 1.187500000000007 3.1875000000000107 1.187500000000007 5.3348846435546875 2.241790771484375 C9.261376760129423 3.543515457901897 12.905250250711028 3.495563390848403 17.016845703125 3.50634765625 C17.895397186279297 3.5163932800292983 18.773948669433594 3.5264389038085966 19.679122924804688 3.5367889404296875 C22.573835908632624 3.5676012325975535 25.46845647546376 3.584650703562211 28.36328125 3.6015625 C30.37396539257788 3.620275710480996 32.38464169745301 3.6398492391315997 34.39530944824219 3.660247802734375 C39.680627203511676 3.711558763330771 44.96597041560014 3.75119011968588 50.25140380859375 3.78839111328125 C55.64748425740751 3.828437177673571 61.04345889730858 3.8795267986007786 66.439453125 3.9296875 C77.02206107629705 4.026434568571176 87.60472878705393 4.1108433436258665 98.1875 4.1875 C99.3544921875 8.901367187500014 99.3544921875 8.901367187500014 97.8515625 11.4765625 C97.178671875 12.247421875 96.50578125 13.018281250000001 95.8125 13.8125 C95.0661328125 14.689062500000006 94.319765625 15.565624999999997 93.55078125 16.46875 C92.7708984375 17.3659375 91.991015625 18.263125000000002 91.1875 19.1875 C89.78609806665577 20.89126820414083 88.39035567467278 22.599705625263965 87 24.3125 C86.2484765625 25.229023437500004 85.496953125 26.145546875000008 84.72265625 27.08984375 C81.7840136775397 30.676560912950947 78.86062804313445 34.27563562814515 75.9375 37.875 C75.38618408203125 38.55385253906249 74.8348681640625 39.23270507812501 74.266845703125 39.93212890625 C73.13683389614849 41.32369180516946 72.00687005459751 42.71529365548854 70.876953125 44.10693359375 C67.60972558276421 48.13053375486754 64.34085239479536 52.15279697726362 61.072265625 56.17529296875 C58.31323596832114 59.57082976878209 55.55464835233792 62.96672400118197 52.796875 66.36328125 C47.403873180467315 73.00466312035043 42.00338546767331 79.63953592258065 36.58203125 86.2578125 C33.506473112857925 90.0207302860629 30.439999878617975 93.79098010481863 27.375 97.5625 C26.82328125 98.24119140624998 26.2715625 98.91988281250002 25.703125 99.619140625 C22.850522935437816 103.13084023259671 20.00800920013497 106.64991218966122 17.1875 110.1875 C38.55823033764396 111.24043744364303 62.56215019914738 107.20264306461462 79.6875 93.625 C81.6585463552341 91.70322980364676 83.04299445732913 90.01113390115603 84.625 87.8125 C87.1875 85.1875 87.1875 85.1875 90.6875 85.0625 C94.48274926947062 86.28240155090128 96.61031934778507 87.12709797549479 99.1875 90.1875 C98.88995519540812 95.39611256738479 97.42432514180722 99.35684471457239 95.1328125 104.00390625 C94.83059783935546 104.62345687866213 94.52838317871094 105.24300750732422 94.21701049804688 105.88133239746094 C93.25789143269236 107.84215582245255 92.28549629979376 109.79603202090595 91.3125 111.75 C90.66708043740161 113.06401717578734 90.02254144727029 114.37846725665582 89.37890625 115.693359375 C86.67577995556952 121.20504196926998 83.93515397150962 126.69790119821357 81.1875 132.1875 C77.37663593105626 132.48064338991875 74.56003608135053 132.05013605952564 71.04307556152344 130.6998291015625 C66.244913187801 129.05392471681859 61.975898284087606 128.76429127795606 56.935791015625 128.802734375 C56.059868011474606 128.7973616027832 55.18394500732421 128.7919888305664 54.28147888183594 128.7864532470703 C52.397483883016605 128.77673746204326 50.513444460679665 128.77371214793538 48.62942695617676 128.7768096923828 C45.649703108712245 128.78131302704932 42.6705650812505 128.76722071874897 39.69090270996094 128.7484130859375 C32.30090203561954 128.70554279276072 24.910916326338153 128.69434218950974 17.52081298828125 128.68218994140625 C11.254809878808857 128.6706857243143 4.989078094160941 128.64722279971238 -1.2768115997314453 128.6074981689453 C-4.216266503698314 128.59388810409405 -7.1553591308721884 128.59810350909686 -10.094833374023438 128.6029052734375 C-11.885411295448943 128.5935717010368 -13.675985134439015 128.58340467027907 -15.466552734375 128.572265625 C-15.876670989990235 128.57533973693847 -15.876670989990235 128.57533973693847 -17.952117919921875 128.5908966064453 C-20.215805053710927 128.5660400390625 -20.215805053710927 128.5660400390625 -23.8125 128.1875 C-26.375545028493388 124.3429324572599 -26.403205226164573 122.76546550277544 -25.8125 118.1875 C-22.369498136010947 110.84923755259962 -16.12007865950087 104.73976398071449 -10.8359375 98.67578125 C-6.7127263046889745 93.94042978620746 -2.7663291707680386 89.0643738485025 1.1875 84.1875 C7.1155353608092895 76.92341121506892 13.07140128717186 69.68254878835603 19.033935546875 62.44677734375 C22.957699603023272 57.68405928396015 26.870595227422697 52.91269797989804 30.7734375 48.1328125 C32.71090373893347 45.7689782861556 34.65424775467026 43.410395943967984 36.6015625 41.0546875 C37.21322265625 40.31412109375 37.8248828125 39.57355468750001 38.455078125 38.810546875 C39.65321614564304 37.36043450721857 40.85236070429653 35.91115291007995 42.052734375 34.462890625 C46.1963914577796 29.445885428553225 50.21709905889723 24.342556731178107 54.1875 19.1875 C29.750633546803392 20.767802089244583 8.465915947927733 23.378354287913155 -8.87890625 42.4609375 C-10.812499999999998 44.1875 -10.812499999999998 44.1875 -14.25 44.1875 C-18.00361352234409 43.13385409899112 -19.995884772908102 41.833411273934814 -22.8125 39.1875 C-22.25907035822822 34.876219660266415 -21.231090505967643 31.537351447648064 -19.265625 27.66796875 C-18.75 26.64509765625 -18.234375 25.622226562500003 -17.703125 24.568359375 C-17.16171875 23.514550781249994 -16.6203125 22.460742187500003 -16.0625 21.375 C-15.5365625 20.33279296875 -15.010625 19.290585937499998 -14.46875 18.216796875 C-12.048739555473013 13.44566242186697 -9.585521406517632 8.697451694982966 -7.046875 3.98828125 C-6.662412109375001 3.2745434570312497 -6.277949218749999 2.5608056640624994 -5.8818359375 1.825439453125 C-4.052866402504431 -0.9760574898625052 -3.200122659117895 -0.9244798793007263 0 0 Z " fill="#46605B" transform="translate(25.8125,50.8125)"/>
<path d="M0 0 C1.2746461486816543 -0.0062287902832025566 2.5492922973633085 -0.012457580566405113 3.8625640869140625 -0.0188751220703125 C5.254652822222624 -0.010187966128334836 6.646737744410643 -0.0008700838031572289 8.038818359375 0.009033203125 C9.464635207812194 0.009551819345340107 10.890452779285283 0.009034060929479892 12.316268920898438 0.0075225830078125 C15.303077051008131 0.0076122758916810085 18.28961508746329 0.018036530610260115 21.2763671875 0.0361328125 C25.108907996584435 0.05884069571135342 28.941054852144475 0.059360159062862294 32.77364444732666 0.05261516571044922 C35.71699030947548 0.04927761280521281 38.660245982122774 0.05590084011546992 41.60357475280762 0.06574440002441406 C43.016997944039645 0.06959885919062003 44.43043116076956 0.07074359796545338 45.84385871887207 0.06915855407714844 C47.81650156640342 0.0687886522245762 49.78913129726607 0.08286834750060024 51.76171875 0.09765625 C52.323450393676694 0.09995994567871236 52.323450393676694 0.09995994567871236 55.16615295410156 0.1116180419921875 C57.816162109375 0.372314453125 57.816162109375 0.372314453125 59.816162109375 2.372314453125 C61.07657877604163 9.591064453125 61.07657877604163 9.591064453125 59.816162109375 13.372314453125 C58.038818359375 14.583251953124972 58.038818359375 14.583251953124972 55.878662109375 15.747314453125 C53.35131499995157 17.278216465643126 51.9553266908606 18.171917455785803 50.253662109375 20.622314453125 C49.05436321245793 28.160764662318144 51.28896944615849 34.30174574319841 54.851318359375 40.837158203125 C55.24943222045897 41.596541900634776 55.64754608154294 42.35592559814452 56.05772399902344 43.13832092285156 C57.31783007866443 45.536271419895996 58.59717930505724 47.92323068029367 59.878662109375 50.309814453125 C61.15994765778942 52.72318653897216 62.43709794090057 55.13864990220276 63.71031188964844 57.55628967285156 C64.50051241439883 59.05386659067099 65.2960571997894 60.54863818218297 66.09742736816406 62.04026794433594 C68.816162109375 67.15218842345715 68.816162109375 67.15218842345715 68.816162109375 69.372314453125 C69.47616210937497 69.372314453125 70.13616210937494 69.372314453125 70.816162109375 69.372314453125 C70.86381713867183 69.03603027343749 70.86381713867183 69.03603027343749 71.10498046875 67.334228515625 C71.99290055964013 63.636237941413086 73.54845624788288 60.38659626260642 75.195068359375 56.981689453125 C75.87610198551147 55.53540196992495 76.55641801699335 54.08877640525725 77.236083984375 52.641845703125 C78.30393048955273 50.38268523724997 79.37670420984296 48.12637315812478 80.46240234375 45.875732421875 C81.5140524580703 43.68897170525652 82.54336835133029 41.49275283003739 83.570068359375 39.294189453125 C83.89503799438478 38.63449157714844 84.22000762939456 37.974793701171876 84.55482482910156 37.29510498046875 C86.83753203150604 32.347814271184546 87.55005485053948 27.805887356163907 86.816162109375 22.372314453125 C84.35142539779315 17.253245898301188 81.78145861565702 15.7997927450851 76.816162109375 13.372314453125 C74.9609446697292 9.909241899119522 76.05999634520583 6.0844009317735726 76.816162109375 2.372314453125 C79.2839270263853 -0.09545046388529244 80.00424962547413 0.11265126949692217 83.40185546875 0.081787109375 C84.35301742553713 0.06902740478515312 85.30417938232426 0.05626770019531335 86.28416442871094 0.043121337890625 C86.79926826477049 0.04200851440429432 86.79926826477049 0.04200851440429432 89.406005859375 0.036376953125 C89.93373847961425 0.03304855346679858 89.93373847961425 0.03304855346679858 92.60438537597656 0.016204833984375 C94.83959201237542 0.0060665314345556 97.07482898816977 0.001388176394293339 99.31005859375 0.001708984375 C102.7364266722841 -0.0026635519889595116 106.16150656984757 -0.0389701860951277 109.587646484375 -0.076904296875 C111.75626185533508 -0.08277221244640032 113.92488336562292 -0.0867417733996092 116.093505859375 -0.088623046875 C117.12168930053713 -0.10299407958984119 118.14987274169926 -0.11736511230468949 119.20921325683594 -0.132171630859375 C120.16352737426757 -0.12601837158203466 121.11784149169921 -0.11986511230468722 122.10107421875 -0.113525390625 C122.94109481811529 -0.11637542724609062 123.78111541748046 -0.11922546386718835 124.64659118652344 -0.122161865234375 C126.816162109375 0.372314453125 126.816162109375 0.372314453125 128.58375549316406 2.275482177734375 C130.68009111631363 5.842214242339473 130.27068841652874 8.281577688741564 129.816162109375 12.372314453125 C127.3229264758969 14.655477017706914 124.58769536272109 16.030023125061234 121.566162109375 17.497314453125 C111.82749732863783 22.904888622086702 106.92328353444327 32.12507240647284 102.128662109375 41.809814453125 C101.53343749999999 42.98415039062499 100.93821289062498 44.15848632812501 100.324951171875 45.368408203125 C98.77620494868938 48.42544774884094 97.24418192241444 51.49050364908187 95.71832275390625 54.55902099609375 C94.27553118272817 57.45895298906646 92.82445584648656 60.35473763028442 91.374755859375 63.251220703125 C89.77920467024023 66.44024463868183 88.18582647165897 69.63008368264123 86.6064453125 72.8271484375 C83.53688864494166 79.02315287131404 80.35653762371317 85.15095949861654 77.116943359375 91.259033203125 C73.41875317235645 98.24169721326723 69.8409792625572 105.27533220303383 66.343505859375 112.360595703125 C65.88462982177737 113.28858978271484 65.42575378417973 114.21658386230467 64.95297241210938 115.17269897460938 C63.07859038828883 118.96631253640123 61.20614018256947 122.7607991679277 59.34521484375 126.56103515625 C39.00299535927252 168.05435904653606 39.00299535927252 168.05435904653606 19.941162109375 176.184814453125 C11.369242010159724 179.0251133748888 3.0898048249483736 179.15413713047116 -5.183837890625 175.372314453125 C-8.91500049565957 173.04709717752374 -11.501629598162253 170.4717499766492 -13.183837890625 166.372314453125 C-13.90335040333889 161.77078094158267 -13.617214461195601 158.25573592390353 -11.558837890625 154.059814453125 C-7.467535105550496 149.43018235422488 -3.6424156706293616 146.80513911613116 2.656005859375 146.259033203125 C7.316456697929084 146.50343297585206 11.676636509529544 148.30255165320224 15.816162109375 150.372314453125 C21.52817624365059 151.02779148492712 21.52817624365059 151.02779148492712 23.816162109375 150.372314453125 C29.45586873011473 145.01985944294927 32.61453532206815 137.68117868813854 36.191162109375 130.872314453125 C36.831182786475324 129.66886786555494 37.47180433876258 128.46574063791937 38.113037109375 127.262939453125 C39.39599187963677 124.85595247062685 40.649338045475815 122.43613583337651 41.890380859375 120.00732421875 C43.17349698326473 117.5201613345042 44.560236792038495 115.14812089042152 46.054443359375 112.7822265625 C51.16862538168789 104.38200609288293 51.16862538168789 104.38200609288293 50.260986328125 99.206787109375 C48.7864569371734 95.88316941465766 47.05620263664741 92.9773874389881 45.066162109375 89.934814453125 C44.05258917806816 88.23488504864969 43.03905079247454 86.53493257114951 42.02854919433594 84.83317565917969 C40.99130418445725 83.1056248954682 39.93012152467577 81.39510138056448 38.861572265625 79.686767578125 C36.3961792326387 75.69175972233347 34.103999569490384 71.61716362584502 31.825927734375 67.513427734375 C30.254078784530293 64.68556408019778 28.653908606812593 61.87548063645235 27.046630859375 59.067626953125 C24.798132687785028 55.126423765297034 22.599910054559928 51.1616923163368 20.429443359375 47.177001953125 C13.588339266306434 34.678964075251926 7.867956987708794 24.30370585054777 -4.246337890625 16.309814453125 C-8.948797463860956 13.073996117415803 -8.948797463860956 13.073996117415803 -9.984619140625 9.981689453125 C-10.084694585738362 6.716069665214228 -9.974756159924596 4.467368614150168 -8.027847290039063 1.7718048095703125 C-5.353740941750971 -0.2576783631985222 -3.3319389525116776 -0.0018654118495646799 0 0 Z " fill="#46605B" transform="translate(524.183837890625,54.627685546875)"/>
</svg>
